<svg width="32" height="32" viewBox="0 0 32 32" fill="none" xmlns="http://www.w3.org/2000/svg">
<path d="M16.0002 5.33334C17.4009 5.33334 18.788 5.60924 20.0821 6.14529C21.3763 6.68135 22.5521 7.46705 23.5426 8.45754C24.5331 9.44803 25.3188 10.6239 25.8549 11.9181C26.3909 13.2122 26.6668 14.5992 26.6668 16C26.6668 17.4008 26.3909 18.7878 25.8549 20.082C25.3188 21.3761 24.5331 22.552 23.5426 23.5425C22.5521 24.533 21.3763 25.3187 20.0821 25.8547C18.788 26.3908 17.4009 26.6667 16.0002 26.6667C13.1712 26.6667 10.4581 25.5429 8.45769 23.5425C6.4573 21.5421 5.3335 18.829 5.3335 16C5.3335 13.171 6.4573 10.4579 8.45769 8.45754C10.4581 6.45715 13.1712 5.33334 16.0002 5.33334V5.33334ZM16.0002 20.4445C15.6465 20.4445 15.3074 20.5849 15.0574 20.835C14.8073 21.085 14.6668 21.4242 14.6668 21.7778C14.6668 22.1314 14.8073 22.4705 15.0574 22.7206C15.3074 22.9706 15.6465 23.1111 16.0002 23.1111C16.3538 23.1111 16.6929 22.9706 16.943 22.7206C17.193 22.4705 17.3335 22.1314 17.3335 21.7778C17.3335 21.4242 17.193 21.085 16.943 20.835C16.6929 20.5849 16.3538 20.4445 16.0002 20.4445ZM16.0002 9.77779C15.0572 9.77779 14.1528 10.1524 13.486 10.8192C12.8192 11.486 12.4446 12.3904 12.4446 13.3333C12.4446 13.5691 12.5383 13.7952 12.705 13.9619C12.8717 14.1286 13.0977 14.2222 13.3335 14.2222C13.5692 14.2222 13.7953 14.1286 13.962 13.9619C14.1287 13.7952 14.2224 13.5691 14.2224 13.3333C14.2224 12.8618 14.4097 12.4097 14.7431 12.0763C15.0765 11.7429 15.5287 11.5556 16.0002 11.5556C16.4717 11.5556 16.9238 11.7429 17.2572 12.0763C17.5906 12.4097 17.7779 12.8618 17.7779 13.3333C17.7779 13.9911 17.6304 14.3645 17.1273 14.9298L16.9211 15.152L16.4517 15.632C15.4882 16.64 15.1113 17.3653 15.1113 18.6667C15.1113 18.9024 15.2049 19.1285 15.3716 19.2952C15.5383 19.4619 15.7644 19.5556 16.0002 19.5556C16.2359 19.5556 16.462 19.4619 16.6287 19.2952C16.7954 19.1285 16.8891 18.9024 16.8891 18.6667C16.8891 18.0089 17.0366 17.6356 17.5397 17.0702L17.7459 16.848L18.2153 16.368C19.1788 15.36 19.5557 14.6347 19.5557 13.3333C19.5557 12.3904 19.1811 11.486 18.5143 10.8192C17.8475 10.1524 16.9432 9.77779 16.0002 9.77779V9.77779Z" fill="#262626" fill-opacity="0.7"/>
</svg>
