<svg width="48" height="48" viewBox="0 0 48 48" fill="none" xmlns="http://www.w3.org/2000/svg">
<path d="M23.6382 26.3758H34.7047L34.7008 29.1018H23.6382V26.3758Z" fill="#677178"/>
<path d="M23.7349 20.8926H34.6717V23.6399L23.7349 23.636V20.8926Z" fill="#677178"/>
<path d="M27.024 34.6774L18.1766 38.6396L18.1689 34.6967H15.4584L15.4758 42.865L29.6939 36.4786L27.024 34.6774Z" fill="#2A72F8"/>
<path d="M37.4076 15.3711H37.3921L20.9471 15.4252C19.4925 15.4252 18.0974 16.0031 17.0688 17.0318C16.0401 18.0604 15.4623 19.4555 15.4623 20.9101V31.9109L18.1709 31.9438V20.9159C18.1724 20.1788 18.4664 19.4723 18.9884 18.9518C19.5104 18.4312 20.2177 18.1391 20.9549 18.1396L37.3999 18.0854C38.1357 18.086 38.8413 18.3784 39.3618 18.8985C39.8823 19.4187 40.1752 20.124 40.1762 20.8598V29.1017C40.1742 29.834 39.8837 30.5361 39.3676 31.0558C38.8516 31.5755 38.1516 31.8708 37.4192 31.878H37.3941L34.2657 31.9283H33.6852L33.1609 32.174L29.723 33.7798L32.1607 35.5423L34.3082 34.6272L37.4366 34.5769C38.8844 34.5662 40.2693 33.9836 41.2895 32.9562C42.3096 31.9288 42.8824 30.5399 42.8828 29.092V20.8501C42.8818 19.398 42.3048 18.0056 41.2783 16.9784C40.2518 15.9512 38.8598 15.3732 37.4076 15.3711Z" fill="#677178"/>
<path d="M37.4075 4.50002H9.98503C8.53034 4.50002 7.13526 5.07792 6.10664 6.10654C5.07803 7.13515 4.50012 8.53024 4.50012 9.98492V31.9109L12.7826 31.9438L12.8387 29.1772H7.24163L7.21258 12.7322H42.9001V9.99073C42.9011 9.26923 42.7598 8.55462 42.4841 7.88787C42.2084 7.22113 41.8038 6.61535 41.2935 6.10526C40.7833 5.59518 40.1774 5.1908 39.5105 4.91534C38.8437 4.63989 38.129 4.49874 37.4075 4.50002ZM9.97534 7.2086H37.4075C38.1413 7.20961 38.845 7.50092 39.3647 8.0189C39.8845 8.53688 40.1783 9.23949 40.1819 9.9733H7.19907C7.20317 9.23763 7.49865 8.53361 8.02085 8.0154C8.54304 7.4972 9.24935 7.20705 9.98503 7.2086H9.97534Z" fill="#677178"/>
</svg>
