<svg width="48" height="49" viewBox="0 0 48 49" fill="none" xmlns="http://www.w3.org/2000/svg">
<path d="M23.6382 27.3591H34.7047L34.7008 30.0851H23.6382V27.3591Z" fill="#677178"/>
<path d="M23.7348 21.876H34.6717V24.6232L23.7348 24.6194V21.876Z" fill="#677178"/>
<path d="M27.0239 35.6606L18.1766 39.6229L18.1688 35.68H15.4583L15.4757 43.8483L29.6938 37.4619L27.0239 35.6606Z" fill="#2A72F8"/>
<path d="M37.4075 16.3545H37.392L20.947 16.4086C19.4924 16.4086 18.0973 16.9865 17.0687 18.0151C16.04 19.0438 15.4622 20.4388 15.4622 21.8935V32.8943L18.1708 32.9271V21.8993C18.1723 21.1621 18.4663 20.4557 18.9883 19.9352C19.5103 19.4146 20.2176 19.1225 20.9548 19.123L37.3998 19.0688C38.1356 19.0694 38.8412 19.3618 39.3617 19.8819C39.8822 20.4021 40.1751 21.1074 40.1761 21.8432V30.0851C40.1741 30.8174 39.8836 31.5195 39.3675 32.0392C38.8515 32.5589 38.1515 32.8542 37.4191 32.8613H37.394L34.2656 32.9117H33.6852L33.1609 33.1574L29.7229 34.7632L32.1606 36.5257L34.3081 35.6106L37.4365 35.5603C38.8843 35.5496 40.2692 34.967 41.2894 33.9396C42.3095 32.9122 42.8823 31.5232 42.8827 30.0754V21.8335C42.8817 20.3814 42.3047 18.989 41.2782 17.9618C40.2517 16.9346 38.8597 16.3565 37.4075 16.3545Z" fill="#677178"/>
<path d="M37.4075 5.48341H9.98498C8.5303 5.48341 7.13521 6.06131 6.1066 7.08993C5.07798 8.11854 4.50008 9.51363 4.50008 10.9683V32.8943L12.7826 32.9272L12.8387 30.1606H7.24158L7.21253 13.7156H42.9001V10.9741C42.9011 10.2526 42.7597 9.53801 42.484 8.87126C42.2083 8.20452 41.8038 7.59874 41.2935 7.08865C40.7832 6.57857 40.1773 6.17419 39.5105 5.89874C38.8436 5.62328 38.129 5.48213 37.4075 5.48341ZM9.9753 8.19199H37.4075C38.1413 8.19301 38.8449 8.48431 39.3647 9.00229C39.8845 9.52028 40.1783 10.2229 40.1819 10.9567H7.19903C7.20312 10.221 7.49861 9.517 8.0208 8.9988C8.543 8.48059 9.2493 8.19044 9.98498 8.19199H9.9753Z" fill="#677178"/>
</svg>
