<svg width="48" height="48" viewBox="0 0 48 48" fill="none" xmlns="http://www.w3.org/2000/svg">
<g clip-path="url(#clip0_3_294)">
<path d="M21.593 46.4987L19.2102 43.2082L7.72764 43.2309L7.75033 36.8315L4.50525 36.8088V46.4987H21.593Z" fill="#2A72F8"/>
<path d="M39.8159 27.1648C40.7236 27.1648 41.4725 27.9137 41.4725 28.8214C41.4725 29.7291 40.7236 30.478 39.8159 30.478H33.4619C32.5542 30.478 31.8053 29.7291 31.8053 28.8214C31.8053 27.9137 32.5542 27.1648 33.4619 27.1648H39.8159ZM39.8159 23.9878H33.4619C30.7841 23.9878 28.6283 26.1436 28.6283 28.8214C28.6283 31.4991 30.7841 33.655 33.4619 33.655H39.8159C42.4937 33.655 44.6495 31.4991 44.6495 28.8214C44.6495 26.1436 42.4937 23.9878 39.8159 23.9878Z" fill="#677178"/>
<path d="M39.8159 20.6975C40.7236 20.6975 41.4725 21.4464 41.4725 22.3541C41.4725 23.2618 40.7236 24.0107 39.8159 24.0107H33.4619C32.5542 24.0107 31.8053 23.2618 31.8053 22.3541C31.8053 21.4464 32.5542 20.6975 33.4619 20.6975H39.8159ZM39.8159 17.5205H33.4619C30.7841 17.5205 28.6283 19.6763 28.6283 22.3541C28.6283 25.0319 30.7841 27.1877 33.4619 27.1877H39.8159C42.4937 27.1877 44.6495 25.0319 44.6495 22.3541C44.6495 19.6763 42.4937 17.5205 39.8159 17.5205Z" fill="#677178"/>
<path d="M38.1753 33.5886C39.083 33.5886 39.8318 34.3375 39.8318 35.2452C39.8318 36.1529 39.083 36.9018 38.1753 36.9018H31.8213C30.9135 36.9018 30.1647 36.1529 30.1647 35.2452C30.1647 34.3375 30.9135 33.5886 31.8213 33.5886H38.1753ZM38.1753 30.4116H31.8213C29.1435 30.4116 26.9877 32.5674 26.9877 35.2452C26.9877 37.923 29.1435 40.0788 31.8213 40.0788H38.1753C40.853 40.0788 43.0088 37.923 43.0088 35.2452C43.0088 32.5901 40.8303 30.4116 38.1753 30.4116Z" fill="#677178"/>
<path d="M38.1753 40.0105C39.083 40.0105 39.8318 40.7594 39.8318 41.6671C39.8318 42.5748 39.083 43.3237 38.1753 43.3237H31.8213C30.9135 43.3237 30.1647 42.5748 30.1647 41.6671C30.1647 40.7594 30.9135 40.0105 31.8213 40.0105H38.1753ZM38.1753 36.8335H31.8213C29.1435 36.8335 26.9877 38.9893 26.9877 41.6671C26.9877 44.3448 29.1435 46.5007 31.8213 46.5007H38.1753C40.853 46.5007 43.0088 44.3448 43.0088 41.6671C43.0088 38.9893 40.8303 36.8335 38.1753 36.8335Z" fill="#677178"/>
<path d="M30.9888 43.2766L22.7739 43.2993L25.134 46.4763C25.134 46.4763 32.4865 46.499 32.8042 46.4536L30.9888 43.2766Z" fill="#677178"/>
<path d="M20.6167 27.1895V28.2106C20.6167 29.4587 19.5955 30.4799 18.3474 30.4799C17.0993 30.4799 16.0781 29.4587 16.0781 28.2106V27.2121L13.0599 29.4587C13.6273 31.8642 15.7831 33.6569 18.3701 33.6569C21.3655 33.6569 23.8164 31.2061 23.8164 28.2106V27.1895H20.6167V27.1895Z" fill="#677178"/>
<path d="M7.69946 33.6558H4.52246V23.4667C4.52246 20.1762 6.29251 17.1127 9.15181 15.4788C11.2622 14.2761 12.5784 12.0068 12.5784 9.55598V7.05976C12.5784 3.99622 15.0747 1.5 18.1382 1.5H18.2063C21.2698 1.5 23.766 3.99622 23.766 7.05976V27.1883H20.589V7.05976C20.589 5.74357 19.5225 4.677 18.2063 4.677H18.1382C16.822 4.677 15.7554 5.74357 15.7554 7.05976V9.57867C15.7554 13.1415 13.8265 16.4773 10.7403 18.2474C8.8795 19.3139 7.69946 21.3336 7.69946 23.4894V33.6558V33.6558Z" fill="#677178"/>
<path d="M36.2743 17.5181H21.7509V20.6953H36.2743V17.5181Z" fill="#677178"/>
</g>
<defs>
<clipPath id="clip0_3_294">
<rect width="40.1437" height="45" fill="white" transform="translate(4.5 1.5)"/>
</clipPath>
</defs>
</svg>
