<svg width="40" height="41" viewBox="0 0 40 41" fill="none" xmlns="http://www.w3.org/2000/svg">
<path d="M20.7393 10.1013C21.4772 10.1006 22.1987 10.3189 22.8125 10.7284C23.4263 11.1379 23.9049 11.7203 24.1876 12.4019C24.4703 13.0834 24.5444 13.8335 24.4006 14.5573C24.2568 15.281 23.9016 15.9458 23.3798 16.4676C22.858 16.9893 22.1932 17.3446 21.4695 17.4884C20.7458 17.6322 19.9957 17.558 19.3141 17.2753C18.6325 16.9926 18.0501 16.5141 17.6406 15.9003C17.2311 15.2864 17.0129 14.565 17.0136 13.8271C17.0145 12.8383 17.4077 11.8903 18.1069 11.1911C18.806 10.4919 19.7541 10.0987 20.7428 10.0978L20.7393 10.1013ZM20.7428 7.61224C19.5137 7.61259 18.3123 7.97737 17.2905 8.66048C16.2687 9.34359 15.4725 10.3143 15.0023 11.45C14.5322 12.5856 14.4094 13.8352 14.6494 15.0406C14.8894 16.2461 15.4814 17.3533 16.3506 18.2223C17.2199 19.0913 18.3273 19.683 19.5328 19.9227C20.7383 20.1623 21.9878 20.0391 23.1233 19.5687C24.2588 19.0983 25.2294 18.3017 25.9122 17.2797C26.595 16.2577 26.9594 15.0562 26.9594 13.8271C26.9594 13.0108 26.7987 12.2025 26.4862 11.4484C26.1738 10.6942 25.7158 10.009 25.1386 9.43189C24.5613 8.85476 23.8759 8.39704 23.1217 8.08482C22.3675 7.7726 21.5591 7.61201 20.7428 7.61224Z" fill="#2A72F8"/>
<path d="M5.86127 14.427L5.8911 5.30203H10.8482L10.8307 2.72348L3.37392 2.72699V16.2583L5.86127 14.427Z" fill="#2A72F8"/>
<path d="M38.2158 2.64983L13.3669 2.79719V5.28101H35.6565V35.1239H30.8274V30.1229C30.8449 28.8069 30.6008 27.5006 30.1093 26.2798C29.6178 25.0589 28.8887 23.9478 27.9643 23.0111C27.0399 22.0743 25.9387 21.3305 24.7244 20.8228C23.5102 20.3152 22.2073 20.0537 20.8912 20.0537C19.5751 20.0537 18.2722 20.3152 17.058 20.8228C15.8438 21.3305 14.7425 22.0743 13.8181 23.0111C12.8937 23.9478 12.1646 25.0589 11.6731 26.2798C11.1816 27.5006 10.9375 28.8069 10.955 30.1229V35.1379H5.89959L5.84173 16.8214L3.50874 18.5755L3.33333 37.6112L38.2807 37.6498L38.2158 2.64983ZM13.4458 30.1229C13.4307 29.1355 13.6121 28.155 13.9794 27.2384C14.3468 26.3218 14.8928 25.4875 15.5857 24.7839C16.2785 24.0803 17.1044 23.5215 18.0153 23.1402C18.9261 22.7588 19.9037 22.5624 20.8912 22.5624C21.8787 22.5624 22.8563 22.7588 23.7671 23.1402C24.678 23.5215 25.5039 24.0803 26.1967 24.7839C26.8896 25.4875 27.4356 26.3218 27.803 27.2384C28.1703 28.155 28.3517 29.1355 28.3366 30.1229V35.1274L13.4458 35.1362V30.1229Z" fill="#677178"/>
</svg>
