<svg width="40" height="41" viewBox="0 0 40 41" fill="none" xmlns="http://www.w3.org/2000/svg">
<path d="M20.7394 10.1013C21.4773 10.1006 22.1987 10.3188 22.8125 10.7283C23.4264 11.1378 23.9049 11.7202 24.1876 12.4018C24.4703 13.0834 24.5445 13.8335 24.4007 14.5572C24.2569 15.2809 23.9016 15.9457 23.3799 16.4675C22.8581 16.9893 22.1933 17.3445 21.4695 17.4883C20.7458 17.6321 19.9957 17.558 19.3142 17.2753C18.6326 16.9926 18.0502 16.514 17.6407 15.9002C17.2312 15.2864 17.0129 14.5649 17.0136 13.827C17.0146 12.8382 17.4077 11.8902 18.1069 11.191C18.8061 10.4919 19.7541 10.0987 20.7429 10.0978L20.7394 10.1013ZM20.7429 7.61218C19.5138 7.61253 18.3124 7.97731 17.2906 8.66042C16.2688 9.34352 15.4725 10.3143 15.0024 11.4499C14.5323 12.5856 14.4094 13.8351 14.6494 15.0406C14.8894 16.246 15.4815 17.3532 16.3507 18.2222C17.2199 19.0912 18.3273 19.6829 19.5328 19.9226C20.7383 20.1623 21.9879 20.0391 23.1234 19.5686C24.2589 19.0982 25.2294 18.3016 25.9122 17.2796C26.5951 16.2576 26.9595 15.0561 26.9595 13.827C26.9595 13.0107 26.7987 12.2024 26.4863 11.4483C26.1738 10.6942 25.7159 10.009 25.1386 9.43183C24.5613 8.8547 23.876 8.39698 23.1217 8.08476C22.3675 7.77254 21.5592 7.61195 20.7429 7.61218V7.61218Z" fill="#2A72F8"/>
<path d="M5.86138 14.4269L5.89121 5.30194H10.8483L10.8308 2.72339L3.37402 2.7269V16.2582L5.86138 14.4269Z" fill="#3F81FD"/>
<path d="M38.216 2.64978L13.3671 2.79714V5.28096H35.6567V35.1238H30.8276V30.1228C30.8451 28.8069 30.601 27.5006 30.1095 26.2797C29.618 25.0589 28.8889 23.9478 27.9645 23.011C27.0401 22.0743 25.9388 21.3305 24.7246 20.8228C23.5104 20.3151 22.2074 20.0537 20.8914 20.0537C19.5753 20.0537 18.2723 20.3151 17.0581 20.8228C15.8439 21.3305 14.7427 22.0743 13.8183 23.011C12.8939 23.9478 12.1647 25.0589 11.6732 26.2797C11.1817 27.5006 10.9377 28.8069 10.9551 30.1228V35.1379H5.89976L5.8419 16.8213L3.50891 18.5755L3.3335 37.6112L38.2809 37.6498L38.216 2.64978ZM13.446 30.1228C13.4308 29.1355 13.6122 28.155 13.9796 27.2384C14.347 26.3218 14.893 25.4874 15.5858 24.7838C16.2787 24.0802 17.1046 23.5215 18.0154 23.1401C18.9263 22.7587 19.9039 22.5623 20.8914 22.5623C21.8788 22.5623 22.8565 22.7587 23.7673 23.1401C24.6782 23.5215 25.504 24.0802 26.1969 24.7838C26.8898 25.4874 27.4358 26.3218 27.8032 27.2384C28.1705 28.155 28.3519 29.1355 28.3368 30.1228V35.1273L13.446 35.1361V30.1228Z" fill="#677178"/>
</svg>
