<svg width="40" height="40" viewBox="0 0 40 40" fill="none" xmlns="http://www.w3.org/2000/svg">
<path d="M20.7394 9.11818C21.4773 9.11748 22.1987 9.33572 22.8125 9.74523C23.4264 10.1547 23.9049 10.7371 24.1876 11.4187C24.4703 12.1003 24.5445 12.8504 24.4007 13.5741C24.2569 14.2978 23.9016 14.9626 23.3799 15.4844C22.8581 16.0062 22.1933 16.3615 21.4695 16.5052C20.7458 16.649 19.9957 16.5749 19.3142 16.2922C18.6326 16.0095 18.0502 15.5309 17.6407 14.9171C17.2312 14.3033 17.0129 13.5818 17.0136 12.8439C17.0146 11.8552 17.4077 10.9071 18.1069 10.208C18.8061 9.50878 19.7541 9.1156 20.7429 9.11467L20.7394 9.11818ZM20.7429 6.62909C19.5138 6.62944 18.3124 6.99422 17.2906 7.67732C16.2688 8.36043 15.4725 9.33118 15.0024 10.4668C14.5323 11.6025 14.4094 12.852 14.6494 14.0575C14.8894 15.2629 15.4815 16.3701 16.3507 17.2391C17.2199 18.1081 18.3273 18.6998 19.5328 18.9395C20.7383 19.1792 21.9879 19.056 23.1234 18.5856C24.2589 18.1151 25.2294 17.3185 25.9122 16.2965C26.5951 15.2746 26.9595 14.073 26.9595 12.8439C26.9595 12.0276 26.7987 11.2193 26.4863 10.4652C26.1738 9.71107 25.7159 9.02586 25.1386 8.44873C24.5613 7.87161 23.876 7.41389 23.1217 7.10167C22.3675 6.78944 21.5592 6.62886 20.7429 6.62909V6.62909Z" fill="#2A72F8"/>
<path d="M5.86138 13.4439L5.89121 4.31891H10.8483L10.8308 1.74036L3.37402 1.74387V15.2751L5.86138 13.4439Z" fill="#3F81FD"/>
<path d="M38.216 1.66669L13.3671 1.81405V4.29787H35.6567V34.1407H30.8276V29.1397C30.8451 27.8238 30.601 26.5175 30.1095 25.2966C29.618 24.0758 28.8889 22.9647 27.9645 22.0279C27.0401 21.0912 25.9388 20.3474 24.7246 19.8397C23.5104 19.332 22.2074 19.0706 20.8914 19.0706C19.5753 19.0706 18.2723 19.332 17.0581 19.8397C15.8439 20.3474 14.7427 21.0912 13.8183 22.0279C12.8939 22.9647 12.1647 24.0758 11.6732 25.2966C11.1817 26.5175 10.9377 27.8238 10.9551 29.1397V34.1548H5.89976L5.8419 15.8382L3.50891 17.5924L3.3335 36.6281L38.2809 36.6667L38.216 1.66669ZM13.446 29.1397C13.4308 28.1524 13.6122 27.1719 13.9796 26.2553C14.347 25.3387 14.893 24.5043 15.5858 23.8007C16.2787 23.0972 17.1046 22.5384 18.0154 22.157C18.9263 21.7756 19.9039 21.5792 20.8914 21.5792C21.8788 21.5792 22.8565 21.7756 23.7673 22.157C24.6782 22.5384 25.504 23.0972 26.1969 23.8007C26.8898 24.5043 27.4358 25.3387 27.8032 26.2553C28.1705 27.1719 28.3519 28.1524 28.3368 29.1397V34.1442L13.446 34.153V29.1397Z" fill="#677178"/>
</svg>
