<svg width="108" height="298" viewBox="0 0 108 298" fill="none" xmlns="http://www.w3.org/2000/svg">
<g clip-path="url(#clip0_6_1181)">
<g filter="url(#filter0_dd_6_1181)">
<path d="M185.529 2.51123H24.5192C13.6859 2.51123 4.90381 11.5058 4.90381 22.6011V29.2977C4.90381 40.3931 13.6859 49.3876 24.5192 49.3876H185.529C196.362 49.3876 205.144 40.3931 205.144 29.2977V22.6011C205.144 11.5058 196.362 2.51123 185.529 2.51123Z" fill="white"/>
<path d="M24.7153 31.876H26.1669C26.5592 30.8982 26.9188 29.6058 27.2457 27.9986C27.5857 26.3914 27.7688 24.503 27.7949 22.3333L27.8342 19.4202H36.1511V31.876H37.9165V36.0948H36.2688V33.4831H26.363V36.0948H24.7153V31.876ZM34.3857 21.0274H29.5407L29.5211 22.3935C29.508 23.3177 29.4557 24.2284 29.3642 25.1258C29.2857 26.0097 29.1746 26.8602 29.0307 27.6772C28.8999 28.4942 28.743 29.2576 28.5599 29.9674C28.3899 30.6773 28.2069 31.3134 28.0107 31.876H34.3857V21.0274ZM39.5303 28.1191C39.5303 27.195 39.6546 26.3914 39.903 25.7084C40.1515 25.0253 40.498 24.4561 40.9427 24.0007C41.3873 23.5453 41.9169 23.2038 42.5315 22.9761C43.1592 22.7484 43.8457 22.6346 44.5911 22.6346C45.2973 22.6346 45.938 22.7417 46.5134 22.956C47.0888 23.1703 47.5727 23.5052 47.965 23.9605C48.3703 24.4159 48.6842 24.9918 48.9065 25.6883C49.1288 26.3847 49.24 27.2151 49.24 28.1794C49.24 29.1839 49.1092 30.0344 48.8477 30.7308C48.5992 31.4273 48.2527 31.9965 47.808 32.4385C47.3765 32.8804 46.8665 33.2019 46.278 33.4028C45.6896 33.6037 45.0553 33.7041 44.3753 33.7041C42.8192 33.7041 41.6227 33.2153 40.7857 32.2376C39.9488 31.2599 39.5303 29.8871 39.5303 28.1191ZM41.1584 28.1794C41.1584 29.4518 41.4396 30.4429 42.0019 31.1527C42.5773 31.8492 43.4142 32.1974 44.5127 32.1974C45.4803 32.1974 46.2388 31.8826 46.788 31.2532C47.3373 30.6103 47.6119 29.5857 47.6119 28.1794V28.1191C47.6119 26.7664 47.3307 25.7619 46.7684 25.1057C46.2192 24.4494 45.4215 24.1213 44.3753 24.1213C43.3423 24.1213 42.5446 24.4628 41.9823 25.1458C41.433 25.8155 41.1584 26.8066 41.1584 28.1191V28.1794ZM52.0593 22.8355H58.6305V24.4025H53.6874V33.4831H52.0593V22.8355ZM59.9579 28.1191C59.9579 27.195 60.0821 26.3914 60.3306 25.7084C60.579 25.0253 60.9256 24.4561 61.3702 24.0007C61.8148 23.5453 62.3444 23.2038 62.959 22.9761C63.5867 22.7484 64.2733 22.6346 65.0187 22.6346C65.7248 22.6346 66.3656 22.7417 66.941 22.956C67.5163 23.1703 68.0002 23.5052 68.3925 23.9605C68.7979 24.4159 69.1117 24.9918 69.334 25.6883C69.5564 26.3847 69.6675 27.2151 69.6675 28.1794C69.6675 29.1839 69.5367 30.0344 69.2752 30.7308C69.0267 31.4273 68.6802 31.9965 68.2356 32.4385C67.804 32.8804 67.294 33.2019 66.7056 33.4028C66.1171 33.6037 65.4829 33.7041 64.8029 33.7041C63.2467 33.7041 62.0502 33.2153 61.2133 32.2376C60.3764 31.2599 59.9579 29.8871 59.9579 28.1191ZM61.586 28.1794C61.586 29.4518 61.8671 30.4429 62.4294 31.1527C63.0048 31.8492 63.8417 32.1974 64.9402 32.1974C65.9079 32.1974 66.6664 31.8826 67.2156 31.2532C67.7648 30.6103 68.0394 29.5857 68.0394 28.1794V28.1191C68.0394 26.7664 67.7583 25.7619 67.196 25.1057C66.6467 24.4494 65.849 24.1213 64.8029 24.1213C63.7698 24.1213 62.9721 24.4628 62.4098 25.1458C61.8606 25.8155 61.586 26.8066 61.586 28.1191V28.1794ZM72.4869 22.8154C72.8661 22.7886 73.3434 22.7618 73.9188 22.7351C74.5073 22.7083 75.2069 22.6949 76.0177 22.6949C76.8546 22.6949 77.5411 22.7551 78.0773 22.8757C78.6134 22.9962 79.0384 23.1636 79.3523 23.3779C79.6661 23.5922 79.8819 23.8601 79.9996 24.1815C80.1304 24.4896 80.1957 24.8311 80.1957 25.2061C80.1957 25.8892 80.0454 26.4383 79.7446 26.8535C79.4438 27.2553 78.9207 27.5633 78.1754 27.7776C79.0515 27.858 79.6857 28.079 80.078 28.4406C80.4834 28.8022 80.6861 29.425 80.6861 30.3089C80.6861 30.8045 80.6142 31.2599 80.4704 31.6751C80.3265 32.0769 80.078 32.4251 79.725 32.7197C79.385 33.0144 78.9207 33.2421 78.3323 33.4028C77.7569 33.5635 77.0377 33.6439 76.1746 33.6439C75.8346 33.6439 75.4815 33.6372 75.1154 33.6238C74.7623 33.6238 74.4223 33.6171 74.0954 33.6037C73.7684 33.5903 73.4677 33.5702 73.193 33.5434C72.9184 33.53 72.683 33.5166 72.4869 33.5032V22.8154ZM74.115 32.0969C74.455 32.1237 74.795 32.1505 75.135 32.1773C75.488 32.1907 75.8542 32.1974 76.2334 32.1974C76.7696 32.1974 77.2142 32.1706 77.5673 32.117C77.9334 32.0501 78.2277 31.9429 78.45 31.7956C78.6723 31.6483 78.8292 31.4541 78.9207 31.213C79.0123 30.9719 79.058 30.6773 79.058 30.329C79.058 29.7263 78.8554 29.3111 78.45 29.0835C78.0577 28.8424 77.4169 28.7218 76.5277 28.7218H74.115V32.0969ZM76.5277 27.2955C77.1423 27.2955 77.6327 27.1682 77.9988 26.9138C78.365 26.6593 78.548 26.2508 78.548 25.6883C78.548 25.0856 78.365 24.6771 77.9988 24.4628C77.6457 24.2485 77.0246 24.1413 76.1354 24.1413C75.6384 24.1413 75.233 24.1413 74.9192 24.1413C74.6054 24.1413 74.3373 24.148 74.115 24.1614V27.2955H76.5277ZM82.7989 28.1191C82.7989 27.195 82.9232 26.3914 83.1716 25.7084C83.4201 25.0253 83.7666 24.4561 84.2113 24.0007C84.6559 23.5453 85.1855 23.2038 85.8001 22.9761C86.4278 22.7484 87.1143 22.6346 87.8597 22.6346C88.5659 22.6346 89.2066 22.7417 89.782 22.956C90.3574 23.1703 90.8413 23.5052 91.2336 23.9605C91.6389 24.4159 91.9528 24.9918 92.1751 25.6883C92.3974 26.3847 92.5086 27.2151 92.5086 28.1794C92.5086 29.1839 92.3778 30.0344 92.1163 30.7308C91.8678 31.4273 91.5213 31.9965 91.0766 32.4385C90.6451 32.8804 90.1351 33.2019 89.5466 33.4028C88.9582 33.6037 88.3239 33.7041 87.6439 33.7041C86.0878 33.7041 84.8913 33.2153 84.0543 32.2376C83.2174 31.2599 82.7989 29.8871 82.7989 28.1191ZM84.427 28.1794C84.427 29.4518 84.7082 30.4429 85.2705 31.1527C85.8459 31.8492 86.6828 32.1974 87.7813 32.1974C88.7489 32.1974 89.5074 31.8826 90.0566 31.2532C90.6059 30.6103 90.8805 29.5857 90.8805 28.1794V28.1191C90.8805 26.7664 90.5993 25.7619 90.037 25.1057C89.4878 24.4494 88.6901 24.1213 87.6439 24.1213C86.6109 24.1213 85.8132 24.4628 85.2509 25.1458C84.7016 25.8155 84.427 26.8066 84.427 28.1191V28.1794ZM95.3087 22.8355H96.7994L96.8975 24.7039C97.4467 23.3244 98.6564 22.6346 100.526 22.6346C101.873 22.6346 102.88 23.0498 103.547 23.8802C104.214 24.6972 104.548 26.0499 104.548 27.9383C104.548 28.9696 104.456 29.8536 104.273 30.5902C104.09 31.3134 103.815 31.9094 103.449 32.3782C103.096 32.8336 102.651 33.1684 102.115 33.3827C101.579 33.597 100.958 33.7041 100.252 33.7041C99.3625 33.7041 98.6498 33.5434 98.1137 33.222C97.5906 32.8871 97.1983 32.4987 96.9367 32.0568V37.0993H95.3087V22.8355ZM96.9367 29.204C96.9367 30.1281 97.1917 30.8581 97.7017 31.3938C98.2248 31.9295 98.9637 32.1974 99.9183 32.1974C100.468 32.1974 100.932 32.1237 101.311 31.9764C101.69 31.8291 101.998 31.588 102.233 31.2532C102.468 30.9183 102.638 30.4897 102.743 29.9674C102.861 29.4451 102.919 28.8022 102.919 28.0388C102.919 27.3155 102.854 26.7062 102.723 26.2106C102.593 25.7017 102.403 25.2999 102.154 25.0052C101.906 24.6972 101.592 24.4762 101.213 24.3422C100.847 24.2083 100.422 24.1413 99.9379 24.1413C99.4279 24.1413 98.9833 24.215 98.604 24.3623C98.2248 24.5097 97.911 24.7173 97.6625 24.9851C97.414 25.2396 97.231 25.5476 97.1133 25.9093C96.9956 26.2709 96.9367 26.6593 96.9367 27.0745V29.204ZM108.99 26.3512C109.251 26.3244 109.493 26.3044 109.715 26.291C109.938 26.2776 110.173 26.2709 110.421 26.2709C111.245 26.2709 111.945 26.3445 112.52 26.4919C113.096 26.6258 113.56 26.8401 113.913 27.1347C114.266 27.416 114.521 27.7776 114.678 28.2196C114.835 28.6482 114.913 29.1638 114.913 29.7665C114.913 30.3022 114.835 30.8045 114.678 31.2733C114.521 31.742 114.253 32.1505 113.874 32.4987C113.508 32.847 113.017 33.1215 112.403 33.3224C111.788 33.5233 111.023 33.6238 110.108 33.6238C109.65 33.6238 109.192 33.6104 108.735 33.5836C108.277 33.5702 107.819 33.5367 107.361 33.4831V22.8355H108.99V26.3512ZM108.99 32.0568C109.225 32.0835 109.421 32.1036 109.578 32.117C109.748 32.117 109.983 32.117 110.284 32.117C110.873 32.117 111.357 32.0635 111.736 31.9563C112.128 31.8492 112.435 31.6951 112.658 31.4942C112.893 31.2933 113.056 31.0523 113.148 30.771C113.24 30.4897 113.285 30.175 113.285 29.8268C113.285 29.5053 113.246 29.2107 113.168 28.9428C113.089 28.675 112.932 28.4473 112.697 28.2598C112.475 28.0589 112.154 27.9049 111.736 27.7977C111.33 27.6906 110.788 27.637 110.108 27.637C109.898 27.637 109.709 27.6504 109.539 27.6772C109.382 27.6906 109.199 27.7107 108.99 27.7374V32.0568ZM116.385 22.8355H118.013V33.4831H116.385V22.8355ZM127.176 22.8355H128.804V27.2955H133.983V22.8355H135.611V33.4831H133.983V28.8826H128.804V33.4831H127.176V22.8355ZM144.94 31.9563C144.678 32.4385 144.273 32.8537 143.724 33.2019C143.187 33.5367 142.547 33.7041 141.801 33.7041C140.755 33.7041 139.931 33.4363 139.33 32.9005C138.728 32.3514 138.427 31.5612 138.427 30.5299C138.427 29.9406 138.499 29.4451 138.643 29.0433C138.8 28.6281 139.042 28.2933 139.369 28.0388C139.709 27.7709 140.14 27.5767 140.664 27.4562C141.187 27.3356 141.821 27.2754 142.566 27.2754H144.9V26.2709C144.9 25.8423 144.848 25.4941 144.744 25.2262C144.652 24.9449 144.502 24.7306 144.292 24.5833C144.083 24.4226 143.815 24.3155 143.488 24.2619C143.174 24.1949 142.802 24.1614 142.37 24.1614C141.782 24.1614 141.193 24.2753 140.605 24.503C140.029 24.7306 139.565 24.9985 139.212 25.3066V23.3779C139.421 23.2574 139.663 23.1502 139.938 23.0565C140.225 22.9627 140.52 22.8891 140.82 22.8355C141.121 22.7685 141.422 22.7217 141.723 22.6949C142.024 22.6547 142.298 22.6346 142.547 22.6346C143.227 22.6346 143.815 22.6949 144.312 22.8154C144.822 22.936 145.24 23.1369 145.567 23.4181C145.894 23.6994 146.136 24.0744 146.293 24.5431C146.45 24.9985 146.529 25.5677 146.529 26.2508V33.4831H145.038L144.94 31.9563ZM140.095 30.2688C140.095 30.8447 140.252 31.2933 140.565 31.6148C140.879 31.9362 141.396 32.0969 142.115 32.0969C143.083 32.0969 143.789 31.8425 144.234 31.3335C144.678 30.8246 144.9 30.1817 144.9 29.4049V28.5009H142.625C142.128 28.5009 141.716 28.5343 141.389 28.6013C141.062 28.6683 140.801 28.7754 140.605 28.9227C140.422 29.0567 140.291 29.2375 140.212 29.4652C140.134 29.6795 140.095 29.9473 140.095 30.2688ZM149.941 22.8355H151.569V28.0187C151.569 28.6482 151.556 29.2576 151.53 29.8469C151.503 30.4228 151.477 30.8447 151.451 31.1125L151.53 31.1527C151.778 30.7241 152.04 30.3089 152.314 29.9071C152.589 29.492 152.87 29.0835 153.158 28.6817L157.1 22.8355H158.532V33.4831H156.904V29.1839C156.904 28.7955 156.904 28.4071 156.904 28.0187C156.917 27.6169 156.93 27.2352 156.943 26.8736C156.957 26.512 156.97 26.1838 156.983 25.8892C156.996 25.5811 157.009 25.3333 157.022 25.1458L156.963 25.1258C156.793 25.4338 156.571 25.8222 156.296 26.291C156.022 26.7463 155.734 27.1749 155.433 27.5767L151.392 33.4831H149.941V22.8355ZM152.707 18.2148C152.759 18.7238 152.89 19.1256 153.099 19.4202C153.321 19.7149 153.707 19.8622 154.256 19.8622C154.805 19.8622 155.191 19.7149 155.413 19.4202C155.649 19.1256 155.793 18.7238 155.845 18.2148H157.297C157.192 19.2059 156.865 19.9225 156.316 20.3644C155.78 20.8064 155.093 21.0274 154.256 21.0274C153.419 21.0274 152.726 20.8064 152.177 20.3644C151.641 19.9225 151.32 19.2059 151.216 18.2148H152.707ZM162.051 22.8355H164.209L167.504 29.1638L170.662 22.8355H172.722V33.4831H171.094V27.8781C171.094 27.2754 171.12 26.6794 171.172 26.0901C171.224 25.4874 171.277 24.8847 171.329 24.282C171.028 24.965 170.747 25.6079 170.485 26.2106C170.224 26.7999 169.982 27.2955 169.76 27.6973L167.955 30.9116H166.837L165.13 27.7173C164.908 27.2888 164.653 26.7798 164.365 26.1905C164.078 25.6012 163.777 24.9717 163.463 24.3021C163.515 24.9048 163.561 25.5142 163.6 26.1302C163.653 26.7329 163.679 27.3423 163.679 27.9584V33.4831H162.051V22.8355ZM182.055 31.9563C181.794 32.4385 181.388 32.8537 180.839 33.2019C180.303 33.5367 179.662 33.7041 178.917 33.7041C177.871 33.7041 177.047 33.4363 176.445 32.9005C175.844 32.3514 175.543 31.5612 175.543 30.5299C175.543 29.9406 175.615 29.4451 175.759 29.0433C175.916 28.6281 176.158 28.2933 176.484 28.0388C176.824 27.7709 177.256 27.5767 177.779 27.4562C178.302 27.3356 178.936 27.2754 179.682 27.2754H182.016V26.2709C182.016 25.8423 181.964 25.4941 181.859 25.2262C181.768 24.9449 181.617 24.7306 181.408 24.5833C181.199 24.4226 180.931 24.3155 180.604 24.2619C180.29 24.1949 179.917 24.1614 179.486 24.1614C178.897 24.1614 178.309 24.2753 177.72 24.503C177.145 24.7306 176.681 24.9985 176.328 25.3066V23.3779C176.537 23.2574 176.779 23.1502 177.053 23.0565C177.341 22.9627 177.635 22.8891 177.936 22.8355C178.237 22.7685 178.538 22.7217 178.838 22.6949C179.139 22.6547 179.414 22.6346 179.662 22.6346C180.342 22.6346 180.931 22.6949 181.428 22.8154C181.938 22.936 182.356 23.1369 182.683 23.4181C183.01 23.6994 183.252 24.0744 183.409 24.5431C183.566 24.9985 183.644 25.5677 183.644 26.2508V33.4831H182.153L182.055 31.9563ZM177.21 30.2688C177.21 30.8447 177.367 31.2933 177.681 31.6148C177.995 31.9362 178.511 32.0969 179.231 32.0969C180.198 32.0969 180.904 31.8425 181.349 31.3335C181.794 30.8246 182.016 30.1817 182.016 29.4049V28.5009H179.741C179.244 28.5009 178.832 28.5343 178.505 28.6013C178.178 28.6683 177.916 28.7754 177.72 28.9227C177.537 29.0567 177.406 29.2375 177.328 29.4652C177.249 29.6795 177.21 29.9473 177.21 30.2688Z" fill="#262626" fill-opacity="0.7"/>
</g>
<g filter="url(#filter1_dd_6_1181)">
<path d="M116.875 69.4775H24.5192C13.6859 69.4775 4.90381 78.4721 4.90381 89.5674C4.90381 100.663 13.6859 109.657 24.5192 109.657H116.875C127.708 109.657 136.49 100.663 136.49 89.5674C136.49 78.4721 127.708 69.4775 116.875 69.4775Z" fill="white"/>
<path d="M26.7163 83.1587C27.1348 83.1052 27.6578 83.0516 28.2855 82.998C28.9263 82.9445 29.5802 82.9177 30.2471 82.9177C31.2932 82.9177 32.1825 83.0114 32.9148 83.1989C33.6471 83.3864 34.2421 83.6744 34.6998 84.0628C35.1575 84.4378 35.4844 84.9133 35.6805 85.4892C35.8898 86.0517 35.9944 86.7213 35.9944 87.4982C35.9944 89.2795 35.5432 90.5853 34.6409 91.4157C33.7517 92.2461 32.2871 92.6613 30.2471 92.6613C29.9855 92.6613 29.6978 92.6546 29.384 92.6412C29.0702 92.6278 28.7694 92.6077 28.4817 92.5809V97.1011H26.7163V83.1587ZM28.4817 90.9938C28.7694 91.0206 29.0571 91.0407 29.3448 91.0541C29.6455 91.0675 29.9463 91.0742 30.2471 91.0742C30.9663 91.0742 31.5744 91.0206 32.0713 90.9134C32.5682 90.7929 32.9671 90.5987 33.2678 90.3308C33.5817 90.063 33.804 89.7147 33.9348 89.2862C34.0786 88.8576 34.1505 88.3218 34.1505 87.679C34.1505 87.0897 34.0852 86.5941 33.9544 86.1923C33.8236 85.7905 33.6013 85.4691 33.2875 85.228C32.9867 84.9735 32.5944 84.7927 32.1105 84.6856C31.6267 84.5784 31.0317 84.5249 30.3255 84.5249C30.0248 84.5249 29.7109 84.5316 29.384 84.5449C29.0702 84.5583 28.7694 84.5784 28.4817 84.6052V90.9938ZM44.5831 95.5743C44.3216 96.0565 43.9162 96.4716 43.367 96.8199C42.8308 97.1547 42.1901 97.3221 41.4447 97.3221C40.3985 97.3221 39.5747 97.0542 38.9731 96.5185C38.3716 95.9694 38.0708 95.1792 38.0708 94.1479C38.0708 93.5586 38.1428 93.0631 38.2866 92.6613C38.4435 92.2461 38.6855 91.9112 39.0124 91.6568C39.3524 91.3889 39.7839 91.1947 40.307 91.0742C40.8301 90.9536 41.4643 90.8933 42.2097 90.8933H44.5439V89.8889C44.5439 89.4603 44.4916 89.112 44.387 88.8442C44.2955 88.5629 44.1451 88.3486 43.9358 88.2013C43.7266 88.0406 43.4585 87.9334 43.1316 87.8799C42.8178 87.8129 42.4451 87.7794 42.0135 87.7794C41.4251 87.7794 40.8366 87.8933 40.2481 88.1209C39.6728 88.3486 39.2085 88.6165 38.8555 88.9245V86.9959C39.0647 86.8754 39.3066 86.7682 39.5812 86.6745C39.8689 86.5807 40.1631 86.5071 40.4639 86.4535C40.7647 86.3865 41.0655 86.3396 41.3662 86.3129C41.667 86.2727 41.9416 86.2526 42.1901 86.2526C42.8701 86.2526 43.4585 86.3129 43.9555 86.4334C44.4655 86.5539 44.8839 86.7548 45.2108 87.0361C45.5378 87.3173 45.7797 87.6924 45.9366 88.1611C46.0935 88.6165 46.172 89.1857 46.172 89.8688V97.1011H44.6812L44.5831 95.5743ZM39.7381 93.8867C39.7381 94.4627 39.8951 94.9113 40.2089 95.2328C40.5228 95.5542 41.0393 95.7149 41.7585 95.7149C42.7262 95.7149 43.4324 95.4604 43.877 94.9515C44.3216 94.4426 44.5439 93.7997 44.5439 93.0229V92.1188H42.2685C41.7716 92.1188 41.3597 92.1523 41.0328 92.2193C40.7058 92.2862 40.4443 92.3934 40.2481 92.5407C40.0651 92.6747 39.9343 92.8555 39.8558 93.0831C39.7774 93.2974 39.7381 93.5653 39.7381 93.8867ZM56.8325 88.6835C56.5187 88.4558 56.1133 88.2616 55.6164 88.1009C55.1195 87.9267 54.5768 87.8397 53.9883 87.8397C53.5175 87.8397 53.086 87.9067 52.6937 88.0406C52.3014 88.1611 51.9614 88.3687 51.6737 88.6634C51.3991 88.958 51.1833 89.3598 51.0264 89.8688C50.8825 90.3643 50.8106 90.9804 50.8106 91.717C50.8106 92.4671 50.8891 93.0965 51.046 93.6055C51.2029 94.1144 51.4318 94.5296 51.7325 94.8511C52.0464 95.1591 52.4191 95.3801 52.8506 95.514C53.2952 95.648 53.8052 95.7149 54.3806 95.7149C54.9168 95.7149 55.4268 95.6346 55.9106 95.4738C56.4075 95.3131 56.826 95.0854 57.166 94.7908V96.5989C56.8914 96.8266 56.4925 97.0007 55.9695 97.1212C55.4595 97.2551 54.8514 97.3221 54.1452 97.3221C53.3606 97.3221 52.6545 97.2284 52.0268 97.0409C51.4122 96.84 50.8891 96.5118 50.4575 96.0564C50.026 95.6011 49.6925 95.0118 49.4572 94.2885C49.2349 93.5519 49.1237 92.6479 49.1237 91.5764C49.1237 89.7415 49.5422 88.3955 50.3791 87.5383C51.2291 86.6812 52.5041 86.2526 54.2041 86.2526C54.8448 86.2526 55.3679 86.3062 55.7733 86.4133C56.1787 86.5071 56.5318 86.6343 56.8325 86.795V88.6835ZM60.1164 86.4535H68.3941V97.1011H66.766V88.0205H61.7445V97.1011H60.1164V86.4535ZM72.1844 86.4535H73.8125V91.6367C73.8125 92.2662 73.7994 92.8755 73.7733 93.4649C73.7471 94.0408 73.721 94.4627 73.6948 94.7305L73.7733 94.7707C74.0218 94.3421 74.2833 93.9269 74.5579 93.5251C74.8325 93.1099 75.1137 92.7014 75.4014 92.2996L79.3441 86.4535H80.776V97.1011H79.1479V92.8019C79.1479 92.4135 79.1479 92.0251 79.1479 91.6367C79.161 91.2349 79.1741 90.8532 79.1871 90.4915C79.2002 90.1299 79.2133 89.8018 79.2264 89.5071C79.2394 89.1991 79.2525 88.9513 79.2656 88.7638L79.2068 88.7437C79.0368 89.0518 78.8144 89.4402 78.5398 89.9089C78.2652 90.3643 77.9775 90.7929 77.6767 91.1947L73.636 97.1011H72.1844V86.4535ZM91.5427 88.6835C91.2289 88.4558 90.8235 88.2616 90.3265 88.1009C89.8296 87.9267 89.2869 87.8397 88.6985 87.8397C88.2277 87.8397 87.7962 87.9067 87.4039 88.0406C87.0116 88.1611 86.6715 88.3687 86.3839 88.6634C86.1092 88.958 85.8935 89.3598 85.7365 89.8688C85.5927 90.3643 85.5208 90.9804 85.5208 91.717C85.5208 92.4671 85.5992 93.0965 85.7562 93.6055C85.9131 94.1144 86.1419 94.5296 86.4427 94.8511C86.7565 95.1591 87.1292 95.3801 87.5608 95.514C88.0054 95.648 88.5154 95.7149 89.0908 95.7149C89.6269 95.7149 90.1369 95.6346 90.6208 95.4738C91.1177 95.3131 91.5362 95.0854 91.8762 94.7908V96.5989C91.6016 96.8266 91.2027 97.0007 90.6796 97.1212C90.1696 97.2551 89.5616 97.3221 88.8554 97.3221C88.0708 97.3221 87.3646 97.2284 86.7369 97.0409C86.1223 96.84 85.5992 96.5118 85.1677 96.0564C84.7362 95.6011 84.4027 95.0118 84.1673 94.2885C83.945 93.5519 83.8338 92.6479 83.8338 91.5764C83.8338 89.7415 84.2523 88.3955 85.0892 87.5383C85.9392 86.6812 87.2142 86.2526 88.9142 86.2526C89.555 86.2526 90.0781 86.3062 90.4835 86.4133C90.8889 86.5071 91.2419 86.6343 91.5427 86.795V88.6835ZM98.1613 92.2795H96.4547V97.1011H94.8266V86.4535H96.4547V90.9737H98.1809L101.653 86.4535H103.516L99.554 91.5161L103.928 97.1011H101.947L98.1613 92.2795ZM106.205 86.4535H107.833V91.6367C107.833 92.2662 107.82 92.8755 107.794 93.4649C107.768 94.0408 107.742 94.4627 107.716 94.7305L107.794 94.7707C108.043 94.3421 108.304 93.9269 108.579 93.5251C108.853 93.1099 109.134 92.7014 109.422 92.2996L113.365 86.4535H114.797V97.1011H113.169V92.8019C113.169 92.4135 113.169 92.0251 113.169 91.6367C113.182 91.2349 113.195 90.8532 113.208 90.4915C113.221 90.1299 113.234 89.8018 113.247 89.5071C113.26 89.1991 113.273 88.9513 113.286 88.7638L113.228 88.7437C113.058 89.0518 112.835 89.4402 112.561 89.9089C112.286 90.3643 111.998 90.7929 111.697 91.1947L107.657 97.1011H106.205V86.4535Z" fill="#262626" fill-opacity="0.7"/>
</g>
<g filter="url(#filter2_dd_6_1181)">
<path d="M308.942 129.747H24.5192C13.6859 129.747 4.90381 138.742 4.90381 149.837C4.90381 160.932 13.6859 169.927 24.5192 169.927H308.942C319.776 169.927 328.558 160.932 328.558 149.837C328.558 138.742 319.776 129.747 308.942 129.747Z" fill="white"/>
<path d="M24.7153 155.764H26.1669C26.5592 154.786 26.9188 153.493 27.2457 151.886C27.5857 150.279 27.7688 148.391 27.7949 146.221L27.8342 143.308H36.1511V155.764H37.9165V159.982H36.2688V157.371H26.363V159.982H24.7153V155.764ZM34.3857 144.915H29.5407L29.5211 146.281C29.508 147.205 29.4557 148.116 29.3642 149.013C29.2857 149.897 29.1746 150.748 29.0307 151.565C28.8999 152.382 28.743 153.145 28.5599 153.855C28.3899 154.565 28.2069 155.201 28.0107 155.764H34.3857V144.915ZM39.7755 152.007C39.7755 151.083 39.8998 150.279 40.1482 149.596C40.3967 148.913 40.7432 148.344 41.1878 147.888C41.6325 147.433 42.1621 147.091 42.7767 146.864C43.4044 146.636 44.0909 146.522 44.8363 146.522C45.5425 146.522 46.1832 146.629 46.7586 146.844C47.334 147.058 47.8178 147.393 48.2101 147.848C48.6155 148.304 48.9294 148.879 49.1517 149.576C49.374 150.272 49.4851 151.103 49.4851 152.067C49.4851 153.072 49.3544 153.922 49.0928 154.618C48.8444 155.315 48.4978 155.884 48.0532 156.326C47.6217 156.768 47.1117 157.09 46.5232 157.29C45.9348 157.491 45.3005 157.592 44.6205 157.592C43.0644 157.592 41.8678 157.103 41.0309 156.125C40.194 155.147 39.7755 153.775 39.7755 152.007ZM41.4036 152.067C41.4036 153.339 41.6848 154.331 42.2471 155.04C42.8225 155.737 43.6594 156.085 44.7578 156.085C45.7255 156.085 46.484 155.77 47.0332 155.141C47.5825 154.498 47.8571 153.473 47.8571 152.067V152.007C47.8571 150.654 47.5759 149.65 47.0136 148.993C46.4644 148.337 45.6667 148.009 44.6205 148.009C43.5875 148.009 42.7898 148.35 42.2275 149.033C41.6782 149.703 41.4036 150.694 41.4036 152.007V152.067ZM52.5497 146.723H59.1209V148.29H54.1778V157.371H52.5497V146.723ZM60.6935 152.007C60.6935 151.083 60.8177 150.279 61.0662 149.596C61.3146 148.913 61.6612 148.344 62.1058 147.888C62.5504 147.433 63.08 147.091 63.6946 146.864C64.3223 146.636 65.0088 146.522 65.7542 146.522C66.4604 146.522 67.1012 146.629 67.6765 146.844C68.2519 147.058 68.7358 147.393 69.1281 147.848C69.5335 148.304 69.8473 148.879 70.0696 149.576C70.2919 150.272 70.4031 151.103 70.4031 152.067C70.4031 153.072 70.2723 153.922 70.0108 154.618C69.7623 155.315 69.4158 155.884 68.9712 156.326C68.5396 156.768 68.0296 157.09 67.4412 157.29C66.8527 157.491 66.2185 157.592 65.5385 157.592C63.9823 157.592 62.7858 157.103 61.9488 156.125C61.1119 155.147 60.6935 153.775 60.6935 152.007ZM62.3215 152.067C62.3215 153.339 62.6027 154.331 63.165 155.04C63.7404 155.737 64.5773 156.085 65.6758 156.085C66.6435 156.085 67.4019 155.77 67.9512 155.141C68.5004 154.498 68.775 153.473 68.775 152.067V152.007C68.775 150.654 68.4938 149.65 67.9315 148.993C67.3823 148.337 66.5846 148.009 65.5385 148.009C64.5054 148.009 63.7077 148.35 63.1454 149.033C62.5962 149.703 62.3215 150.694 62.3215 152.007V152.067ZM73.4677 146.703C73.8469 146.676 74.3242 146.649 74.8996 146.623C75.488 146.596 76.1877 146.583 76.9984 146.583C77.8353 146.583 78.5219 146.643 79.058 146.763C79.5942 146.884 80.0192 147.051 80.333 147.266C80.6469 147.48 80.8627 147.748 80.9803 148.069C81.1111 148.377 81.1765 148.719 81.1765 149.094C81.1765 149.777 81.0261 150.326 80.7253 150.741C80.4246 151.143 79.9015 151.451 79.1561 151.665C80.0323 151.746 80.6665 151.967 81.0588 152.328C81.4642 152.69 81.6669 153.313 81.6669 154.197C81.6669 154.692 81.595 155.147 81.4511 155.563C81.3073 155.964 81.0588 156.313 80.7057 156.607C80.3657 156.902 79.9015 157.13 79.313 157.29C78.7377 157.451 78.0184 157.532 77.1553 157.532C76.8153 157.532 76.4623 157.525 76.0961 157.511C75.743 157.511 75.403 157.505 75.0761 157.491C74.7492 157.478 74.4484 157.458 74.1738 157.431C73.8992 157.418 73.6638 157.404 73.4677 157.391V146.703ZM75.0957 155.985C75.4357 156.011 75.7757 156.038 76.1157 156.065C76.4688 156.078 76.835 156.085 77.2142 156.085C77.7503 156.085 78.195 156.058 78.548 156.005C78.9142 155.938 79.2084 155.831 79.4307 155.683C79.653 155.536 79.81 155.342 79.9015 155.101C79.993 154.86 80.0388 154.565 80.0388 154.217C80.0388 153.614 79.8361 153.199 79.4307 152.971C79.0384 152.73 78.3977 152.609 77.5084 152.609H75.0957V155.985ZM77.5084 151.183C78.123 151.183 78.6134 151.056 78.9796 150.801C79.3457 150.547 79.5288 150.138 79.5288 149.576C79.5288 148.973 79.3457 148.565 78.9796 148.35C78.6265 148.136 78.0053 148.029 77.1161 148.029C76.6192 148.029 76.2138 148.029 75.9 148.029C75.5861 148.029 75.318 148.036 75.0957 148.049V151.183H77.5084ZM84.0249 152.007C84.0249 151.083 84.1491 150.279 84.3976 149.596C84.6461 148.913 84.9926 148.344 85.4372 147.888C85.8818 147.433 86.4114 147.091 87.026 146.864C87.6537 146.636 88.3403 146.522 89.0857 146.522C89.7918 146.522 90.4326 146.629 91.008 146.844C91.5834 147.058 92.0672 147.393 92.4595 147.848C92.8649 148.304 93.1787 148.879 93.4011 149.576C93.6234 150.272 93.7345 151.103 93.7345 152.067C93.7345 153.072 93.6037 153.922 93.3422 154.618C93.0937 155.315 92.7472 155.884 92.3026 156.326C91.871 156.768 91.3611 157.09 90.7726 157.29C90.1841 157.491 89.5499 157.592 88.8699 157.592C87.3137 157.592 86.1172 157.103 85.2803 156.125C84.4434 155.147 84.0249 153.775 84.0249 152.007ZM85.653 152.067C85.653 153.339 85.9341 154.331 86.4964 155.04C87.0718 155.737 87.9087 156.085 89.0072 156.085C89.9749 156.085 90.7334 155.77 91.2826 155.141C91.8318 154.498 92.1064 153.473 92.1064 152.067V152.007C92.1064 150.654 91.8253 149.65 91.263 148.993C90.7137 148.337 89.9161 148.009 88.8699 148.009C87.8368 148.009 87.0391 148.35 86.4768 149.033C85.9276 149.703 85.653 150.694 85.653 152.007V152.067ZM96.7798 146.723H98.2706L98.3686 148.591C98.9179 147.212 100.127 146.522 101.997 146.522C103.344 146.522 104.351 146.937 105.018 147.768C105.685 148.585 106.019 149.938 106.019 151.826C106.019 152.857 105.927 153.741 105.744 154.478C105.561 155.201 105.286 155.797 104.92 156.266C104.567 156.721 104.122 157.056 103.586 157.27C103.05 157.485 102.429 157.592 101.723 157.592C100.834 157.592 100.121 157.431 99.5848 157.11C99.0617 156.775 98.6694 156.386 98.4079 155.944V160.987H96.7798V146.723ZM98.4079 153.092C98.4079 154.016 98.6629 154.746 99.1729 155.281C99.696 155.817 100.435 156.085 101.389 156.085C101.939 156.085 102.403 156.011 102.782 155.864C103.161 155.717 103.469 155.476 103.704 155.141C103.939 154.806 104.109 154.377 104.214 153.855C104.332 153.333 104.391 152.69 104.391 151.926C104.391 151.203 104.325 150.594 104.194 150.098C104.064 149.589 103.874 149.187 103.626 148.893C103.377 148.585 103.063 148.364 102.684 148.23C102.318 148.096 101.893 148.029 101.409 148.029C100.899 148.029 100.454 148.103 100.075 148.25C99.696 148.397 99.3821 148.605 99.1336 148.873C98.8852 149.127 98.7021 149.435 98.5844 149.797C98.4667 150.159 98.4079 150.547 98.4079 150.962V153.092ZM110.706 150.239C110.967 150.212 111.209 150.192 111.432 150.179C111.654 150.165 111.889 150.159 112.138 150.159C112.962 150.159 113.661 150.232 114.237 150.379C114.812 150.513 115.276 150.728 115.629 151.022C115.982 151.304 116.237 151.665 116.394 152.107C116.551 152.536 116.63 153.051 116.63 153.654C116.63 154.19 116.551 154.692 116.394 155.161C116.237 155.63 115.969 156.038 115.59 156.386C115.224 156.735 114.734 157.009 114.119 157.21C113.504 157.411 112.739 157.511 111.824 157.511C111.366 157.511 110.909 157.498 110.451 157.471C109.993 157.458 109.536 157.424 109.078 157.371V146.723H110.706V150.239ZM110.706 155.944C110.941 155.971 111.137 155.991 111.294 156.005C111.464 156.005 111.7 156.005 112.001 156.005C112.589 156.005 113.073 155.951 113.452 155.844C113.844 155.737 114.152 155.583 114.374 155.382C114.609 155.181 114.773 154.94 114.864 154.659C114.956 154.377 115.002 154.063 115.002 153.714C115.002 153.393 114.962 153.098 114.884 152.83C114.806 152.563 114.649 152.335 114.413 152.147C114.191 151.947 113.871 151.792 113.452 151.685C113.047 151.578 112.504 151.525 111.824 151.525C111.615 151.525 111.425 151.538 111.255 151.565C111.098 151.578 110.915 151.598 110.706 151.625V155.944ZM118.101 146.723H119.729V157.371H118.101V146.723ZM128.677 152.007C128.677 151.083 128.801 150.279 129.05 149.596C129.298 148.913 129.645 148.344 130.089 147.888C130.534 147.433 131.063 147.091 131.678 146.864C132.306 146.636 132.992 146.522 133.738 146.522C134.444 146.522 135.085 146.629 135.66 146.844C136.235 147.058 136.719 147.393 137.111 147.848C137.517 148.304 137.831 148.879 138.053 149.576C138.275 150.272 138.386 151.103 138.386 152.067C138.386 153.072 138.256 153.922 137.994 154.618C137.746 155.315 137.399 155.884 136.955 156.326C136.523 156.768 136.013 157.09 135.425 157.29C134.836 157.491 134.202 157.592 133.522 157.592C131.966 157.592 130.769 157.103 129.932 156.125C129.095 155.147 128.677 153.775 128.677 152.007ZM130.305 152.067C130.305 153.339 130.586 154.331 131.148 155.04C131.724 155.737 132.561 156.085 133.659 156.085C134.627 156.085 135.385 155.77 135.935 155.141C136.484 154.498 136.758 153.473 136.758 152.067V152.007C136.758 150.654 136.477 149.65 135.915 148.993C135.366 148.337 134.568 148.009 133.522 148.009C132.489 148.009 131.691 148.35 131.129 149.033C130.58 149.703 130.305 150.694 130.305 152.007V152.067ZM149.709 143.83C149.513 143.937 149.147 144.024 148.611 144.091C148.075 144.158 147.264 144.225 146.179 144.292C145.473 144.332 144.891 144.446 144.433 144.634C143.975 144.808 143.609 145.076 143.334 145.437C143.06 145.799 142.857 146.261 142.726 146.824C142.596 147.386 142.498 148.069 142.432 148.873L142.491 148.893C142.949 148.21 143.518 147.701 144.198 147.366C144.891 147.031 145.629 146.864 146.414 146.864C147.055 146.864 147.63 146.944 148.14 147.105C148.663 147.252 149.108 147.513 149.474 147.888C149.84 148.263 150.121 148.772 150.318 149.415C150.514 150.045 150.612 150.842 150.612 151.806C150.612 152.824 150.507 153.701 150.298 154.438C150.089 155.161 149.775 155.757 149.356 156.226C148.951 156.681 148.448 157.023 147.846 157.25C147.244 157.465 146.558 157.572 145.786 157.572C144.113 157.572 142.87 157.043 142.059 155.985C141.249 154.913 140.843 153.219 140.843 150.902C140.843 149.522 140.928 148.337 141.098 147.346C141.268 146.341 141.536 145.504 141.903 144.835C142.282 144.165 142.766 143.649 143.354 143.288C143.956 142.926 144.681 142.685 145.531 142.565C145.78 142.524 146.1 142.491 146.493 142.464C146.885 142.424 147.284 142.384 147.689 142.344C148.108 142.29 148.5 142.23 148.866 142.163C149.232 142.082 149.513 141.989 149.709 141.881V143.83ZM145.826 155.985C146.859 155.985 147.624 155.677 148.121 155.06C148.631 154.431 148.886 153.413 148.886 152.007C148.886 151.297 148.82 150.714 148.689 150.259C148.559 149.79 148.363 149.422 148.101 149.154C147.853 148.873 147.539 148.679 147.159 148.571C146.793 148.451 146.375 148.391 145.904 148.391C144.897 148.391 144.08 148.672 143.452 149.234C142.838 149.784 142.53 150.58 142.53 151.625C142.53 152.415 142.602 153.092 142.746 153.654C142.89 154.203 143.099 154.652 143.374 155C143.661 155.348 144.008 155.603 144.413 155.764C144.832 155.911 145.303 155.985 145.826 155.985ZM158.847 152.007C158.847 151.083 158.971 150.279 159.22 149.596C159.468 148.913 159.815 148.344 160.259 147.888C160.704 147.433 161.233 147.091 161.848 146.864C162.476 146.636 163.162 146.522 163.908 146.522C164.614 146.522 165.255 146.629 165.83 146.844C166.405 147.058 166.889 147.393 167.282 147.848C167.687 148.304 168.001 148.879 168.223 149.576C168.445 150.272 168.557 151.103 168.557 152.067C168.557 153.072 168.426 153.922 168.164 154.618C167.916 155.315 167.569 155.884 167.125 156.326C166.693 156.768 166.183 157.09 165.595 157.29C165.006 157.491 164.372 157.592 163.692 157.592C162.136 157.592 160.939 157.103 160.102 156.125C159.265 155.147 158.847 153.775 158.847 152.007ZM160.475 152.067C160.475 153.339 160.756 154.331 161.318 155.04C161.894 155.737 162.731 156.085 163.829 156.085C164.797 156.085 165.555 155.77 166.105 155.141C166.654 154.498 166.928 153.473 166.928 152.067V152.007C166.928 150.654 166.647 149.65 166.085 148.993C165.536 148.337 164.738 148.009 163.692 148.009C162.659 148.009 161.861 148.35 161.299 149.033C160.75 149.703 160.475 150.694 160.475 152.007V152.067ZM174.956 152.549H173.25V157.371H171.621V146.723H173.25V151.243H174.976L178.448 146.723H180.311L176.349 151.786L180.723 157.371H178.742L174.956 152.549ZM188.806 155.844C188.545 156.326 188.139 156.741 187.59 157.09C187.054 157.424 186.413 157.592 185.668 157.592C184.622 157.592 183.798 157.324 183.196 156.788C182.595 156.239 182.294 155.449 182.294 154.418C182.294 153.828 182.366 153.333 182.51 152.931C182.667 152.516 182.908 152.181 183.235 151.926C183.575 151.659 184.007 151.464 184.53 151.344C185.053 151.223 185.687 151.163 186.433 151.163H188.767V150.159C188.767 149.73 188.715 149.382 188.61 149.114C188.518 148.833 188.368 148.618 188.159 148.471C187.95 148.31 187.682 148.203 187.355 148.15C187.041 148.083 186.668 148.049 186.237 148.049C185.648 148.049 185.06 148.163 184.471 148.391C183.896 148.618 183.432 148.886 183.078 149.194V147.266C183.288 147.145 183.53 147.038 183.804 146.944C184.092 146.85 184.386 146.777 184.687 146.723C184.988 146.656 185.288 146.609 185.589 146.583C185.89 146.542 186.165 146.522 186.413 146.522C187.093 146.522 187.682 146.583 188.178 146.703C188.688 146.824 189.107 147.024 189.434 147.306C189.761 147.587 190.003 147.962 190.16 148.431C190.317 148.886 190.395 149.455 190.395 150.138V157.371H188.904L188.806 155.844ZM183.961 154.156C183.961 154.732 184.118 155.181 184.432 155.502C184.746 155.824 185.262 155.985 185.982 155.985C186.949 155.985 187.655 155.73 188.1 155.221C188.545 154.712 188.767 154.069 188.767 153.293V152.388H186.492C185.995 152.388 185.583 152.422 185.256 152.489C184.929 152.556 184.667 152.663 184.471 152.81C184.288 152.944 184.157 153.125 184.079 153.353C184 153.567 183.961 153.835 183.961 154.156ZM193.346 154.9C193.686 155.181 194.164 155.449 194.778 155.703C195.406 155.958 196.138 156.085 196.975 156.085C197.773 156.085 198.368 155.944 198.76 155.663C199.166 155.382 199.368 154.9 199.368 154.217C199.368 153.922 199.322 153.674 199.231 153.473C199.139 153.272 198.982 153.112 198.76 152.991C198.538 152.871 198.244 152.79 197.877 152.75C197.524 152.697 197.073 152.67 196.524 152.67H195.171V151.344H196.74C197.485 151.344 198.021 151.203 198.348 150.922C198.688 150.627 198.858 150.185 198.858 149.596C198.858 149.047 198.714 148.645 198.427 148.391C198.139 148.136 197.577 148.009 196.74 148.009C195.968 148.009 195.341 148.116 194.857 148.33C194.386 148.531 193.948 148.792 193.542 149.114V147.165C193.726 147.085 193.922 147.011 194.131 146.944C194.34 146.864 194.582 146.797 194.857 146.743C195.131 146.676 195.445 146.623 195.798 146.583C196.151 146.542 196.563 146.522 197.034 146.522C198.316 146.522 199.211 146.757 199.721 147.225C200.244 147.681 200.506 148.31 200.506 149.114C200.506 149.864 200.395 150.46 200.172 150.902C199.95 151.33 199.512 151.638 198.858 151.826C199.499 151.866 200.016 152.08 200.408 152.469C200.8 152.844 200.996 153.393 200.996 154.116C200.996 155.322 200.65 156.206 199.957 156.768C199.277 157.317 198.126 157.592 196.504 157.592C196.269 157.592 196.007 157.578 195.72 157.552C195.432 157.525 195.144 157.478 194.857 157.411C194.582 157.357 194.307 157.297 194.033 157.23C193.771 157.15 193.542 157.056 193.346 156.949V154.9ZM209.858 155.844C209.596 156.326 209.191 156.741 208.641 157.09C208.105 157.424 207.465 157.592 206.719 157.592C205.673 157.592 204.849 157.324 204.248 156.788C203.646 156.239 203.345 155.449 203.345 154.418C203.345 153.828 203.417 153.333 203.561 152.931C203.718 152.516 203.96 152.181 204.287 151.926C204.627 151.659 205.058 151.464 205.581 151.344C206.105 151.223 206.739 151.163 207.484 151.163H209.818V150.159C209.818 149.73 209.766 149.382 209.661 149.114C209.57 148.833 209.42 148.618 209.21 148.471C209.001 148.31 208.733 148.203 208.406 148.15C208.092 148.083 207.72 148.049 207.288 148.049C206.7 148.049 206.111 148.163 205.523 148.391C204.947 148.618 204.483 148.886 204.13 149.194V147.266C204.339 147.145 204.581 147.038 204.856 146.944C205.143 146.85 205.438 146.777 205.738 146.723C206.039 146.656 206.34 146.609 206.641 146.583C206.941 146.542 207.216 146.522 207.465 146.522C208.145 146.522 208.733 146.583 209.23 146.703C209.74 146.824 210.158 147.024 210.485 147.306C210.812 147.587 211.054 147.962 211.211 148.431C211.368 148.886 211.446 149.455 211.446 150.138V157.371H209.956L209.858 155.844ZM205.013 154.156C205.013 154.732 205.169 155.181 205.483 155.502C205.797 155.824 206.314 155.985 207.033 155.985C208.001 155.985 208.707 155.73 209.151 155.221C209.596 154.712 209.818 154.069 209.818 153.293V152.388H207.543C207.046 152.388 206.634 152.422 206.307 152.489C205.98 152.556 205.719 152.663 205.523 152.81C205.339 152.944 205.209 153.125 205.13 153.353C205.052 153.567 205.013 153.835 205.013 154.156ZM215.105 146.723H216.733V151.183H221.911V146.723H223.539V157.371H221.911V152.77H216.733V157.371H215.105V146.723ZM227.307 146.723H228.935V151.906C228.935 152.536 228.922 153.145 228.896 153.735C228.87 154.31 228.844 154.732 228.817 155L228.896 155.04C229.144 154.612 229.406 154.197 229.681 153.795C229.955 153.38 230.236 152.971 230.524 152.569L234.467 146.723H235.899V157.371H234.271V153.072C234.271 152.683 234.271 152.295 234.271 151.906C234.284 151.505 234.297 151.123 234.31 150.761C234.323 150.4 234.336 150.071 234.349 149.777C234.362 149.469 234.375 149.221 234.388 149.033L234.329 149.013C234.159 149.321 233.937 149.71 233.662 150.179C233.388 150.634 233.1 151.063 232.799 151.464L228.759 157.371H227.307V146.723ZM239.662 146.723H241.29V151.906C241.29 152.536 241.277 153.145 241.251 153.735C241.225 154.31 241.199 154.732 241.173 155L241.251 155.04C241.5 154.612 241.761 154.197 242.036 153.795C242.31 153.38 242.592 152.971 242.879 152.569L246.822 146.723H248.254V157.371H246.626V153.072C246.626 152.683 246.626 152.295 246.626 151.906C246.639 151.505 246.652 151.123 246.665 150.761C246.678 150.4 246.691 150.071 246.704 149.777C246.717 149.469 246.73 149.221 246.744 149.033L246.685 149.013C246.515 149.321 246.292 149.71 246.018 150.179C245.743 150.634 245.455 151.063 245.155 151.464L241.114 157.371H239.662V146.723ZM259.036 159.54C259.219 159.54 259.382 159.514 259.526 159.46C259.683 159.42 259.827 159.326 259.958 159.179C260.102 159.032 260.239 158.817 260.37 158.536C260.514 158.255 260.664 157.88 260.821 157.411L256.604 146.723H258.487L261.664 155.221L264.312 146.723H266.058L262.469 157.009C262.129 158 261.802 158.77 261.488 159.32C261.187 159.869 260.899 160.277 260.625 160.545C260.35 160.813 260.082 160.974 259.82 161.027C259.559 161.094 259.304 161.128 259.055 161.128C258.637 161.128 258.33 161.074 258.134 160.967V159.299C258.408 159.46 258.709 159.54 259.036 159.54ZM275.111 148.953C274.797 148.725 274.391 148.531 273.894 148.371C273.398 148.196 272.855 148.109 272.266 148.109C271.796 148.109 271.364 148.176 270.972 148.31C270.579 148.431 270.239 148.638 269.952 148.933C269.677 149.228 269.461 149.629 269.304 150.138C269.161 150.634 269.089 151.25 269.089 151.987C269.089 152.737 269.167 153.366 269.324 153.875C269.481 154.384 269.71 154.799 270.011 155.121C270.324 155.429 270.697 155.65 271.129 155.784C271.573 155.918 272.083 155.985 272.659 155.985C273.195 155.985 273.705 155.904 274.189 155.744C274.686 155.583 275.104 155.355 275.444 155.06V156.869C275.169 157.096 274.771 157.27 274.248 157.391C273.738 157.525 273.129 157.592 272.423 157.592C271.639 157.592 270.933 157.498 270.305 157.311C269.69 157.11 269.167 156.781 268.736 156.326C268.304 155.871 267.971 155.281 267.735 154.558C267.513 153.822 267.402 152.918 267.402 151.846C267.402 150.011 267.82 148.665 268.657 147.808C269.507 146.951 270.782 146.522 272.482 146.522C273.123 146.522 273.646 146.576 274.051 146.683C274.457 146.777 274.81 146.904 275.111 147.065V148.953ZM277.388 155.502C277.545 155.556 277.715 155.583 277.898 155.583C278.028 155.583 278.166 155.563 278.31 155.523C278.453 155.482 278.591 155.389 278.721 155.241C278.852 155.081 278.976 154.846 279.094 154.538C279.225 154.217 279.336 153.781 279.428 153.232C279.532 152.683 279.617 151.993 279.683 151.163C279.748 150.319 279.8 149.301 279.84 148.109L279.879 146.723H286.783V157.371H285.155V148.33H281.35L281.33 148.973C281.265 150.862 281.134 152.375 280.938 153.514C280.755 154.639 280.52 155.509 280.232 156.125C279.957 156.728 279.643 157.123 279.29 157.311C278.937 157.498 278.565 157.592 278.172 157.592C278.015 157.592 277.878 157.585 277.76 157.572C277.656 157.572 277.531 157.545 277.388 157.491V155.502ZM291.716 159.54C291.899 159.54 292.062 159.514 292.206 159.46C292.363 159.42 292.507 159.326 292.638 159.179C292.782 159.032 292.919 158.817 293.05 158.536C293.194 158.255 293.344 157.88 293.501 157.411L289.284 146.723H291.167L294.344 155.221L296.992 146.723H298.738L295.149 157.009C294.809 158 294.482 158.77 294.168 159.32C293.867 159.869 293.579 160.277 293.305 160.545C293.03 160.813 292.762 160.974 292.5 161.027C292.239 161.094 291.984 161.128 291.735 161.128C291.317 161.128 291.01 161.074 290.814 160.967V159.299C291.088 159.46 291.389 159.54 291.716 159.54ZM301.018 146.723H307.589V148.29H302.646V157.371H301.018V146.723Z" fill="#262626" fill-opacity="0.7"/>
</g>
<g filter="url(#filter3_dd_6_1181)">
<path d="M315.481 190.017H24.5192C13.6859 190.017 4.90381 199.011 4.90381 210.107C4.90381 221.202 13.6859 230.197 24.5192 230.197H315.481C326.314 230.197 335.096 221.202 335.096 210.107C335.096 199.011 326.314 190.017 315.481 190.017Z" fill="white"/>
<path d="M24.7153 216.033H26.1669C26.5592 215.056 26.9188 213.763 27.2457 212.156C27.5857 210.549 27.7688 208.66 27.7949 206.491L27.8342 203.578H36.1511V216.033H37.9165V220.252H36.2688V217.64H26.363V220.252H24.7153V216.033ZM34.3857 205.185H29.5407L29.5211 206.551C29.508 207.475 29.4557 208.386 29.3642 209.283C29.2857 210.167 29.1746 211.017 29.0307 211.834C28.8999 212.651 28.743 213.415 28.5599 214.125C28.3899 214.835 28.2069 215.471 28.0107 216.033H34.3857V205.185ZM39.7755 212.276C39.7755 211.352 39.8998 210.549 40.1482 209.866C40.3967 209.183 40.7432 208.613 41.1878 208.158C41.6325 207.703 42.1621 207.361 42.7767 207.133C43.4044 206.906 44.0909 206.792 44.8363 206.792C45.5425 206.792 46.1832 206.899 46.7586 207.113C47.334 207.328 47.8178 207.662 48.2101 208.118C48.6155 208.573 48.9294 209.149 49.1517 209.846C49.374 210.542 49.4851 211.372 49.4851 212.337C49.4851 213.341 49.3544 214.192 49.0928 214.888C48.8444 215.585 48.4978 216.154 48.0532 216.596C47.6217 217.038 47.1117 217.359 46.5232 217.56C45.9348 217.761 45.3005 217.861 44.6205 217.861C43.0644 217.861 41.8678 217.373 41.0309 216.395C40.194 215.417 39.7755 214.044 39.7755 212.276ZM41.4036 212.337C41.4036 213.609 41.6848 214.6 42.2471 215.31C42.8225 216.006 43.6594 216.355 44.7578 216.355C45.7255 216.355 46.484 216.04 47.0332 215.41C47.5825 214.768 47.8571 213.743 47.8571 212.337V212.276C47.8571 210.924 47.5759 209.919 47.0136 209.263C46.4644 208.607 45.6667 208.279 44.6205 208.279C43.5875 208.279 42.7898 208.62 42.2275 209.303C41.6782 209.973 41.4036 210.964 41.4036 212.276V212.337ZM52.5497 206.993H60.8274V217.64H59.1993V208.56H54.1778V217.64H52.5497V206.993ZM63.9116 212.276C63.9116 211.352 64.0358 210.549 64.2843 209.866C64.5328 209.183 64.8793 208.613 65.3239 208.158C65.7685 207.703 66.2981 207.361 66.9128 207.133C67.5405 206.906 68.227 206.792 68.9724 206.792C69.6785 206.792 70.3193 206.899 70.8947 207.113C71.4701 207.328 71.9539 207.662 72.3462 208.118C72.7516 208.573 73.0655 209.149 73.2878 209.846C73.5101 210.542 73.6212 211.372 73.6212 212.337C73.6212 213.341 73.4905 214.192 73.2289 214.888C72.9805 215.585 72.6339 216.154 72.1893 216.596C71.7578 217.038 71.2478 217.359 70.6593 217.56C70.0708 217.761 69.4366 217.861 68.7566 217.861C67.2005 217.861 66.0039 217.373 65.167 216.395C64.3301 215.417 63.9116 214.044 63.9116 212.276ZM65.5397 212.337C65.5397 213.609 65.8208 214.6 66.3832 215.31C66.9585 216.006 67.7955 216.355 68.8939 216.355C69.8616 216.355 70.6201 216.04 71.1693 215.41C71.7185 214.768 71.9931 213.743 71.9931 212.337V212.276C71.9931 210.924 71.712 209.919 71.1497 209.263C70.6005 208.607 69.8028 208.279 68.7566 208.279C67.7235 208.279 66.9258 208.62 66.3635 209.303C65.8143 209.973 65.5397 210.964 65.5397 212.276V212.337ZM75.3912 215.772C75.5481 215.826 75.7181 215.852 75.9012 215.852C76.032 215.852 76.1693 215.832 76.3131 215.792C76.457 215.752 76.5943 215.658 76.725 215.511C76.8558 215.35 76.98 215.116 77.0977 214.808C77.2285 214.486 77.3397 214.051 77.4312 213.502C77.5358 212.953 77.6208 212.263 77.6862 211.433C77.7516 210.589 77.8039 209.571 77.8431 208.379L77.8823 206.993H84.7866V217.64H83.1586V208.6H79.3535L79.3339 209.243C79.2685 211.131 79.1377 212.645 78.9416 213.783C78.7585 214.908 78.5231 215.779 78.2354 216.395C77.9608 216.998 77.647 217.393 77.2939 217.58C76.9408 217.768 76.5681 217.861 76.1758 217.861C76.0189 217.861 75.8816 217.855 75.7639 217.841C75.6593 217.841 75.535 217.815 75.3912 217.761V215.772ZM88.5814 206.993H90.2095V211.453H95.3879V206.993H97.016V217.64H95.3879V213.04H90.2095V217.64H88.5814V206.993ZM100.784 206.993H102.412V212.176C102.412 212.805 102.399 213.415 102.373 214.004C102.346 214.58 102.32 215.002 102.294 215.27L102.373 215.31C102.621 214.881 102.883 214.466 103.157 214.064C103.432 213.649 103.713 213.241 104.001 212.839L107.943 206.993H109.375V217.64H107.747V213.341C107.747 212.953 107.747 212.564 107.747 212.176C107.76 211.774 107.773 211.393 107.786 211.031C107.8 210.669 107.813 210.341 107.826 210.046C107.839 209.738 107.852 209.491 107.865 209.303L107.806 209.283C107.636 209.591 107.414 209.98 107.139 210.448C106.865 210.904 106.577 211.332 106.276 211.734L102.235 217.64H100.784V206.993ZM114.983 208.56H111.609V206.993H119.965V208.56H116.611V217.64H114.983V208.56ZM123.141 212.919C123.141 214.071 123.429 214.935 124.004 215.511C124.593 216.073 125.462 216.355 126.613 216.355C127.28 216.355 127.882 216.241 128.418 216.013C128.954 215.772 129.412 215.498 129.791 215.189V216.917C129.529 217.105 129.124 217.312 128.575 217.54C128.025 217.754 127.359 217.861 126.574 217.861C125.737 217.861 124.998 217.761 124.357 217.56C123.73 217.346 123.2 217.011 122.769 216.556C122.35 216.087 122.03 215.498 121.807 214.788C121.598 214.064 121.494 213.187 121.494 212.156C121.494 210.401 121.892 209.069 122.69 208.158C123.488 207.247 124.652 206.792 126.182 206.792C126.979 206.792 127.659 206.912 128.222 207.154C128.784 207.395 129.235 207.736 129.575 208.178C129.915 208.62 130.164 209.156 130.32 209.785C130.477 210.401 130.556 211.084 130.556 211.834V212.919H123.141ZM126.162 208.299C125.207 208.299 124.462 208.56 123.926 209.082C123.403 209.591 123.141 210.388 123.141 211.473H128.928C128.928 210.388 128.705 209.591 128.261 209.082C127.829 208.56 127.13 208.299 126.162 208.299ZM132.13 215.772C132.287 215.826 132.457 215.852 132.64 215.852C132.771 215.852 132.908 215.832 133.052 215.792C133.196 215.752 133.333 215.658 133.464 215.511C133.595 215.35 133.719 215.116 133.837 214.808C133.967 214.486 134.078 214.051 134.17 213.502C134.275 212.953 134.36 212.263 134.425 211.433C134.49 210.589 134.543 209.571 134.582 208.379L134.621 206.993H141.526V217.64H139.898V208.6H136.092L136.073 209.243C136.007 211.131 135.877 212.645 135.68 213.783C135.497 214.908 135.262 215.779 134.974 216.395C134.7 216.998 134.386 217.393 134.033 217.58C133.68 217.768 133.307 217.861 132.915 217.861C132.758 217.861 132.62 217.855 132.503 217.841C132.398 217.841 132.274 217.815 132.13 217.761V215.772ZM145.321 206.993H146.949V210.509C147.249 210.482 147.55 210.462 147.851 210.448C148.165 210.435 148.511 210.428 148.891 210.428C149.636 210.428 150.283 210.488 150.832 210.609C151.395 210.716 151.852 210.91 152.206 211.192C152.572 211.459 152.84 211.821 153.01 212.276C153.193 212.718 153.284 213.268 153.284 213.924C153.284 214.567 153.199 215.129 153.029 215.611C152.872 216.094 152.604 216.495 152.225 216.817C151.859 217.138 151.369 217.379 150.754 217.54C150.152 217.701 149.407 217.781 148.518 217.781C147.89 217.781 147.289 217.768 146.713 217.741C146.151 217.714 145.687 217.681 145.321 217.64V206.993ZM146.949 216.194C147.21 216.234 147.465 216.261 147.714 216.274C147.975 216.274 148.341 216.274 148.812 216.274C149.361 216.274 149.812 216.234 150.166 216.154C150.532 216.073 150.826 215.946 151.048 215.772C151.271 215.585 151.427 215.35 151.519 215.069C151.611 214.774 151.656 214.413 151.656 213.984C151.656 213.582 151.611 213.247 151.519 212.98C151.427 212.698 151.257 212.471 151.009 212.297C150.761 212.122 150.414 211.995 149.969 211.915C149.538 211.834 148.969 211.794 148.263 211.794C148.054 211.794 147.844 211.808 147.635 211.834C147.426 211.848 147.197 211.868 146.949 211.895V216.194ZM156.105 206.993H157.733V211.453H162.911V206.993H164.54V217.64H162.911V213.04H157.733V217.64H156.105V206.993ZM169.935 210.509C170.197 210.482 170.439 210.462 170.661 210.448C170.883 210.435 171.119 210.428 171.367 210.428C172.191 210.428 172.891 210.502 173.466 210.649C174.042 210.783 174.506 210.997 174.859 211.292C175.212 211.573 175.467 211.935 175.624 212.377C175.781 212.805 175.859 213.321 175.859 213.924C175.859 214.46 175.781 214.962 175.624 215.431C175.467 215.899 175.199 216.308 174.82 216.656C174.453 217.004 173.963 217.279 173.348 217.48C172.734 217.681 171.969 217.781 171.053 217.781C170.596 217.781 170.138 217.768 169.68 217.741C169.223 217.728 168.765 217.694 168.307 217.64V206.993H169.935V210.509ZM169.935 216.214C170.171 216.241 170.367 216.261 170.524 216.274C170.694 216.274 170.929 216.274 171.23 216.274C171.818 216.274 172.302 216.221 172.682 216.114C173.074 216.006 173.381 215.852 173.603 215.652C173.839 215.451 174.002 215.21 174.094 214.928C174.185 214.647 174.231 214.332 174.231 213.984C174.231 213.663 174.192 213.368 174.113 213.1C174.035 212.832 173.878 212.605 173.643 212.417C173.42 212.216 173.1 212.062 172.682 211.955C172.276 211.848 171.733 211.794 171.053 211.794C170.844 211.794 170.655 211.808 170.485 211.834C170.328 211.848 170.145 211.868 169.935 211.895V216.214ZM177.33 206.993H178.958V217.64H177.33V206.993ZM183.673 212.919C183.673 214.071 183.96 214.935 184.536 215.511C185.124 216.073 185.994 216.355 187.145 216.355C187.812 216.355 188.413 216.241 188.949 216.013C189.485 215.772 189.943 215.498 190.322 215.189V216.917C190.061 217.105 189.655 217.312 189.106 217.54C188.557 217.754 187.89 217.861 187.105 217.861C186.268 217.861 185.53 217.761 184.889 217.56C184.261 217.346 183.732 217.011 183.3 216.556C182.882 216.087 182.561 215.498 182.339 214.788C182.13 214.064 182.025 213.187 182.025 212.156C182.025 210.401 182.424 209.069 183.222 208.158C184.019 207.247 185.183 206.792 186.713 206.792C187.511 206.792 188.191 206.912 188.753 207.154C189.315 207.395 189.767 207.736 190.107 208.178C190.447 208.62 190.695 209.156 190.852 209.785C191.009 210.401 191.087 211.084 191.087 211.834V212.919H183.673ZM186.693 208.299C185.739 208.299 184.993 208.56 184.457 209.082C183.934 209.591 183.673 210.388 183.673 211.473H189.459C189.459 210.388 189.237 209.591 188.792 209.082C188.361 208.56 187.661 208.299 186.693 208.299ZM207.032 209.223C206.718 208.995 206.313 208.801 205.816 208.64C205.319 208.466 204.776 208.379 204.188 208.379C203.717 208.379 203.286 208.446 202.893 208.58C202.501 208.7 202.161 208.908 201.873 209.203C201.599 209.497 201.383 209.899 201.226 210.408C201.082 210.904 201.01 211.52 201.01 212.256C201.01 213.006 201.089 213.636 201.246 214.145C201.403 214.654 201.631 215.069 201.932 215.39C202.246 215.698 202.619 215.919 203.05 216.053C203.495 216.187 204.005 216.254 204.58 216.254C205.116 216.254 205.626 216.174 206.11 216.013C206.607 215.852 207.026 215.625 207.366 215.33V217.138C207.091 217.366 206.692 217.54 206.169 217.661C205.659 217.794 205.051 217.861 204.345 217.861C203.56 217.861 202.854 217.768 202.226 217.58C201.612 217.379 201.089 217.051 200.657 216.596C200.226 216.14 199.892 215.551 199.657 214.828C199.434 214.091 199.323 213.187 199.323 212.116C199.323 210.281 199.742 208.935 200.579 208.078C201.429 207.221 202.704 206.792 204.404 206.792C205.044 206.792 205.568 206.845 205.973 206.953C206.378 207.046 206.731 207.174 207.032 207.334V209.223ZM209.322 212.276C209.322 211.352 209.446 210.549 209.695 209.866C209.943 209.183 210.29 208.613 210.735 208.158C211.179 207.703 211.709 207.361 212.323 207.133C212.951 206.906 213.638 206.792 214.383 206.792C215.089 206.792 215.73 206.899 216.305 207.113C216.881 207.328 217.365 207.662 217.757 208.118C218.162 208.573 218.476 209.149 218.698 209.846C218.921 210.542 219.032 211.372 219.032 212.337C219.032 213.341 218.901 214.192 218.64 214.888C218.391 215.585 218.045 216.154 217.6 216.596C217.168 217.038 216.658 217.359 216.07 217.56C215.481 217.761 214.847 217.861 214.167 217.861C212.611 217.861 211.415 217.373 210.578 216.395C209.741 215.417 209.322 214.044 209.322 212.276ZM210.95 212.337C210.95 213.609 211.231 214.6 211.794 215.31C212.369 216.006 213.206 216.355 214.305 216.355C215.272 216.355 216.031 216.04 216.58 215.41C217.129 214.768 217.404 213.743 217.404 212.337V212.276C217.404 210.924 217.123 209.919 216.56 209.263C216.011 208.607 215.213 208.279 214.167 208.279C213.134 208.279 212.336 208.62 211.774 209.303C211.225 209.973 210.95 210.964 210.95 212.276V212.337ZM222.097 206.993H228.668V208.56H223.725V217.64H222.097V206.993ZM229.058 215.772C229.215 215.826 229.385 215.852 229.568 215.852C229.699 215.852 229.836 215.832 229.98 215.792C230.124 215.752 230.261 215.658 230.392 215.511C230.522 215.35 230.647 215.116 230.764 214.808C230.895 214.486 231.006 214.051 231.098 213.502C231.202 212.953 231.287 212.263 231.353 211.433C231.418 210.589 231.47 209.571 231.51 208.379L231.549 206.993H238.454V217.64H236.825V208.6H233.02L233 209.243C232.935 211.131 232.804 212.645 232.608 213.783C232.425 214.908 232.19 215.779 231.902 216.395C231.627 216.998 231.314 217.393 230.96 217.58C230.607 217.768 230.235 217.861 229.842 217.861C229.685 217.861 229.548 217.855 229.43 217.841C229.326 217.841 229.202 217.815 229.058 217.761V215.772ZM248.054 216.114C247.793 216.596 247.388 217.011 246.838 217.359C246.302 217.694 245.661 217.861 244.916 217.861C243.87 217.861 243.046 217.594 242.444 217.058C241.843 216.509 241.542 215.719 241.542 214.687C241.542 214.098 241.614 213.602 241.758 213.201C241.915 212.785 242.157 212.451 242.484 212.196C242.824 211.928 243.255 211.734 243.778 211.613C244.301 211.493 244.936 211.433 245.681 211.433H248.015V210.428C248.015 210 247.963 209.651 247.858 209.384C247.767 209.102 247.616 208.888 247.407 208.741C247.198 208.58 246.93 208.473 246.603 208.419C246.289 208.352 245.916 208.319 245.485 208.319C244.896 208.319 244.308 208.433 243.719 208.66C243.144 208.888 242.68 209.156 242.327 209.464V207.535C242.536 207.415 242.778 207.308 243.053 207.214C243.34 207.12 243.634 207.046 243.935 206.993C244.236 206.926 244.537 206.879 244.838 206.852C245.138 206.812 245.413 206.792 245.661 206.792C246.341 206.792 246.93 206.852 247.427 206.973C247.937 207.093 248.355 207.294 248.682 207.575C249.009 207.857 249.251 208.232 249.408 208.7C249.565 209.156 249.643 209.725 249.643 210.408V217.64H248.153L248.054 216.114ZM243.209 214.426C243.209 215.002 243.366 215.451 243.68 215.772C243.994 216.094 244.511 216.254 245.23 216.254C246.198 216.254 246.904 216 247.348 215.491C247.793 214.982 248.015 214.339 248.015 213.562V212.658H245.74C245.243 212.658 244.831 212.692 244.504 212.759C244.177 212.826 243.916 212.933 243.719 213.08C243.536 213.214 243.406 213.395 243.327 213.622C243.249 213.837 243.209 214.105 243.209 214.426ZM253.301 206.993H254.929V216.053H258.734V206.993H260.362V216.053H264.168V206.993H265.796V217.64H253.301V206.993ZM270.506 212.919C270.506 214.071 270.794 214.935 271.369 215.511C271.957 216.073 272.827 216.355 273.978 216.355C274.645 216.355 275.246 216.241 275.782 216.013C276.319 215.772 276.776 215.498 277.156 215.189V216.917C276.894 217.105 276.489 217.312 275.939 217.54C275.39 217.754 274.723 217.861 273.939 217.861C273.102 217.861 272.363 217.761 271.722 217.56C271.094 217.346 270.565 217.011 270.133 216.556C269.715 216.087 269.394 215.498 269.172 214.788C268.963 214.064 268.858 213.187 268.858 212.156C268.858 210.401 269.257 209.069 270.055 208.158C270.852 207.247 272.016 206.792 273.546 206.792C274.344 206.792 275.024 206.912 275.586 207.154C276.149 207.395 276.6 207.736 276.94 208.178C277.28 208.62 277.528 209.156 277.685 209.785C277.842 210.401 277.921 211.084 277.921 211.834V212.919H270.506ZM273.527 208.299C272.572 208.299 271.827 208.56 271.291 209.082C270.767 209.591 270.506 210.388 270.506 211.473H276.292C276.292 210.388 276.07 209.591 275.626 209.082C275.194 208.56 274.494 208.299 273.527 208.299ZM280.981 206.993H282.609V211.453H287.787V206.993H289.415V217.64H287.787V213.04H282.609V217.64H280.981V206.993ZM293.183 206.993H294.811V212.176C294.811 212.805 294.798 213.415 294.772 214.004C294.746 214.58 294.719 215.002 294.693 215.27L294.772 215.31C295.02 214.881 295.282 214.466 295.556 214.064C295.831 213.649 296.112 213.241 296.4 212.839L300.343 206.993H301.774V217.64H300.146V213.341C300.146 212.953 300.146 212.564 300.146 212.176C300.159 211.774 300.173 211.393 300.186 211.031C300.199 210.669 300.212 210.341 300.225 210.046C300.238 209.738 300.251 209.491 300.264 209.303L300.205 209.283C300.035 209.591 299.813 209.98 299.538 210.448C299.264 210.904 298.976 211.332 298.675 211.734L294.634 217.64H293.183V206.993ZM307.323 213.542C306.905 213.475 306.558 213.348 306.284 213.16C306.009 212.96 305.793 212.725 305.636 212.457C305.479 212.176 305.368 211.861 305.303 211.513C305.237 211.151 305.205 210.776 305.205 210.388C305.205 209.825 305.277 209.33 305.42 208.901C305.577 208.459 305.839 208.091 306.205 207.796C306.571 207.502 307.055 207.281 307.657 207.133C308.258 206.973 309.004 206.892 309.893 206.892C310.468 206.892 311.063 206.906 311.678 206.933C312.292 206.946 312.789 206.979 313.169 207.033V217.64H311.54V213.823H308.99L306.323 217.64H304.44L307.323 213.542ZM311.54 208.439C311.292 208.412 311.044 208.392 310.795 208.379C310.547 208.366 310.2 208.359 309.755 208.359C309.167 208.359 308.683 208.399 308.304 208.479C307.925 208.546 307.624 208.66 307.402 208.821C307.192 208.982 307.042 209.196 306.95 209.464C306.872 209.718 306.833 210.04 306.833 210.428C306.833 211.232 307.022 211.781 307.402 212.076C307.794 212.37 308.448 212.518 309.363 212.518H311.54V208.439Z" fill="#262626" fill-opacity="0.7"/>
</g>
<g filter="url(#filter4_dd_6_1181)">
<path d="M277.885 250.287H24.5192C13.6859 250.287 4.90381 259.281 4.90381 270.376C4.90381 281.472 13.6859 290.466 24.5192 290.466H277.885C288.718 290.466 297.5 281.472 297.5 270.376C297.5 259.281 288.718 250.287 277.885 250.287Z" fill="white"/>
<path d="M27.756 270.015H29.7175C30.2406 270.015 30.6721 269.948 31.0121 269.814C31.3652 269.68 31.6464 269.506 31.8556 269.292C32.0648 269.064 32.2087 268.803 32.2871 268.508C32.3787 268.213 32.4244 267.905 32.4244 267.584C32.4244 266.754 32.176 266.171 31.679 265.836C31.1952 265.488 30.4433 265.314 29.4233 265.314C28.8348 265.314 28.266 265.421 27.7167 265.635C27.1675 265.849 26.664 266.137 26.2064 266.499V264.43C26.5856 264.282 27.0564 264.122 27.6187 263.948C28.194 263.774 28.9198 263.686 29.796 263.686C31.2998 263.686 32.4179 263.954 33.1502 264.49C33.8956 265.012 34.2683 265.883 34.2683 267.102C34.2683 267.986 34.0787 268.696 33.6994 269.231C33.3202 269.767 32.7317 270.155 31.934 270.396C32.941 270.517 33.6994 270.852 34.2094 271.401C34.7194 271.95 34.9744 272.787 34.9744 273.912C34.9744 275.265 34.556 276.296 33.719 277.006C32.8821 277.716 31.5483 278.071 29.7175 278.071C28.8414 278.071 28.0698 277.99 27.4029 277.83C26.736 277.656 26.1998 277.475 25.7944 277.287V274.997C25.9644 275.171 26.1802 275.345 26.4417 275.519C26.7164 275.68 27.0302 275.834 27.3833 275.981C27.7364 276.115 28.1221 276.229 28.5406 276.323C28.9721 276.403 29.4298 276.444 29.9137 276.444C31.0906 276.444 31.9144 276.223 32.3852 275.781C32.869 275.325 33.111 274.656 33.111 273.772C33.111 272.941 32.8429 272.359 32.3067 272.024C31.7837 271.689 30.9271 271.522 29.7371 271.522H27.756V270.015ZM43.932 276.383C43.6704 276.865 43.265 277.281 42.7158 277.629C42.1797 277.964 41.5389 278.131 40.7935 278.131C39.7473 278.131 38.9235 277.863 38.322 277.327C37.7204 276.778 37.4197 275.988 37.4197 274.957C37.4197 274.368 37.4916 273.872 37.6354 273.47C37.7923 273.055 38.0343 272.72 38.3612 272.466C38.7012 272.198 39.1327 272.004 39.6558 271.883C40.1789 271.763 40.8131 271.702 41.5585 271.702H43.8927V270.698C43.8927 270.269 43.8404 269.921 43.7358 269.653C43.6443 269.372 43.4939 269.158 43.2847 269.01C43.0754 268.85 42.8073 268.742 42.4804 268.689C42.1666 268.622 41.7939 268.588 41.3623 268.588C40.7739 268.588 40.1854 268.702 39.597 268.93C39.0216 269.158 38.5573 269.425 38.2043 269.734V267.805C38.4135 267.684 38.6554 267.577 38.93 267.483C39.2177 267.39 39.512 267.316 39.8127 267.262C40.1135 267.196 40.4143 267.149 40.715 267.122C41.0158 267.082 41.2904 267.062 41.5389 267.062C42.2189 267.062 42.8073 267.122 43.3043 267.242C43.8143 267.363 44.2327 267.564 44.5597 267.845C44.8866 268.126 45.1285 268.501 45.2854 268.97C45.4423 269.425 45.5208 269.995 45.5208 270.678V277.91H44.03L43.932 276.383ZM39.087 274.696C39.087 275.272 39.2439 275.72 39.5577 276.042C39.8716 276.363 40.3881 276.524 41.1073 276.524C42.075 276.524 42.7812 276.269 43.2258 275.761C43.6704 275.252 43.8927 274.609 43.8927 273.832V272.928H41.6173C41.1204 272.928 40.7085 272.961 40.3816 273.028C40.0547 273.095 39.7931 273.202 39.597 273.35C39.4139 273.484 39.2831 273.664 39.2047 273.892C39.1262 274.106 39.087 274.374 39.087 274.696ZM52.5132 273.089H50.8067V277.91H49.1786V267.262H50.8067V271.783H52.5328L56.0047 267.262H57.8682L53.9059 272.325L58.2801 277.91H56.299L52.5132 273.089ZM60.5374 267.262H62.0282L62.1263 269.131C62.6755 267.751 63.8851 267.062 65.7551 267.062C67.1021 267.062 68.109 267.477 68.7759 268.307C69.4428 269.124 69.7763 270.477 69.7763 272.365C69.7763 273.397 69.6848 274.281 69.5017 275.017C69.3186 275.74 69.044 276.336 68.6778 276.805C68.3248 277.261 67.8801 277.595 67.344 277.81C66.8078 278.024 66.1867 278.131 65.4805 278.131C64.5913 278.131 63.8786 277.97 63.3424 277.649C62.8194 277.314 62.4271 276.926 62.1655 276.484V281.526H60.5374V267.262ZM62.1655 273.631C62.1655 274.555 62.4205 275.285 62.9305 275.821C63.4536 276.356 64.1924 276.624 65.1471 276.624C65.6963 276.624 66.1605 276.551 66.5398 276.403C66.919 276.256 67.2263 276.015 67.4617 275.68C67.6971 275.345 67.8671 274.917 67.9717 274.394C68.0894 273.872 68.1482 273.229 68.1482 272.466C68.1482 271.743 68.0828 271.133 67.9521 270.638C67.8213 270.129 67.6317 269.727 67.3832 269.432C67.1348 269.124 66.8209 268.903 66.4417 268.769C66.0755 268.635 65.6505 268.568 65.1667 268.568C64.6567 268.568 64.2121 268.642 63.8328 268.789C63.4536 268.937 63.1398 269.144 62.8913 269.412C62.6428 269.667 62.4598 269.975 62.3421 270.336C62.2244 270.698 62.1655 271.086 62.1655 271.501V273.631ZM74.4639 270.778C74.7254 270.751 74.9673 270.731 75.1896 270.718C75.412 270.705 75.6473 270.698 75.8958 270.698C76.7196 270.698 77.4193 270.772 77.9946 270.919C78.57 271.053 79.0343 271.267 79.3873 271.562C79.7404 271.843 79.9954 272.205 80.1523 272.647C80.3093 273.075 80.3877 273.591 80.3877 274.193C80.3877 274.729 80.3093 275.231 80.1523 275.7C79.9954 276.169 79.7273 276.577 79.3481 276.926C78.982 277.274 78.4916 277.549 77.877 277.749C77.2623 277.95 76.4973 278.051 75.582 278.051C75.1243 278.051 74.6666 278.037 74.2089 278.011C73.7512 277.997 73.2935 277.964 72.8358 277.91V267.262H74.4639V270.778ZM74.4639 276.484C74.6993 276.511 74.8954 276.531 75.0523 276.544C75.2223 276.544 75.4577 276.544 75.7585 276.544C76.347 276.544 76.8308 276.49 77.21 276.383C77.6023 276.276 77.9096 276.122 78.132 275.921C78.3673 275.72 78.5308 275.479 78.6223 275.198C78.7139 274.917 78.7597 274.602 78.7597 274.254C78.7597 273.932 78.7204 273.638 78.642 273.37C78.5635 273.102 78.4066 272.874 78.1712 272.687C77.9489 272.486 77.6285 272.332 77.21 272.225C76.8046 272.118 76.262 272.064 75.582 272.064C75.3727 272.064 75.1831 272.077 75.0131 272.104C74.8562 272.118 74.6731 272.138 74.4639 272.164V276.484ZM81.8593 267.262H83.4874V277.91H81.8593V267.262ZM87.2601 267.242C87.6393 267.216 88.1166 267.189 88.692 267.162C89.2804 267.135 89.9801 267.122 90.7908 267.122C91.6277 267.122 92.3143 267.182 92.8504 267.303C93.3866 267.423 93.8116 267.591 94.1254 267.805C94.4393 268.019 94.6551 268.287 94.7728 268.608C94.9035 268.917 94.9689 269.258 94.9689 269.633C94.9689 270.316 94.8185 270.865 94.5177 271.28C94.217 271.682 93.6939 271.99 92.9485 272.205C93.8247 272.285 94.4589 272.506 94.8512 272.868C95.2566 273.229 95.4593 273.852 95.4593 274.736C95.4593 275.231 95.3874 275.687 95.2435 276.102C95.0997 276.504 94.8512 276.852 94.4981 277.147C94.1581 277.441 93.6939 277.669 93.1054 277.83C92.5301 277.99 91.8108 278.071 90.9477 278.071C90.6077 278.071 90.2547 278.064 89.8885 278.051C89.5354 278.051 89.1954 278.044 88.8685 278.031C88.5416 278.017 88.2408 277.997 87.9662 277.97C87.6916 277.957 87.4562 277.944 87.2601 277.93V267.242ZM88.8881 276.524C89.2281 276.551 89.5681 276.577 89.9081 276.604C90.2612 276.618 90.6274 276.624 91.0066 276.624C91.5427 276.624 91.9874 276.598 92.3404 276.544C92.7066 276.477 93.0008 276.37 93.2231 276.223C93.4454 276.075 93.6024 275.881 93.6939 275.64C93.7854 275.399 93.8312 275.104 93.8312 274.756C93.8312 274.153 93.6285 273.738 93.2231 273.51C92.8308 273.269 92.1901 273.149 91.3008 273.149H88.8881V276.524ZM91.3008 271.722C91.9154 271.722 92.4058 271.595 92.772 271.341C93.1381 271.086 93.3212 270.678 93.3212 270.115C93.3212 269.513 93.1381 269.104 92.772 268.89C92.4189 268.675 91.7977 268.568 90.9085 268.568C90.4116 268.568 90.0062 268.568 89.6924 268.568C89.3785 268.568 89.1104 268.575 88.8881 268.588V271.722H91.3008ZM104.33 276.383C104.068 276.865 103.663 277.281 103.113 277.629C102.577 277.964 101.936 278.131 101.191 278.131C100.145 278.131 99.3211 277.863 98.7195 277.327C98.118 276.778 97.8172 275.988 97.8172 274.957C97.8172 274.368 97.8891 273.872 98.033 273.47C98.1899 273.055 98.4318 272.72 98.7588 272.466C99.0988 272.198 99.5303 272.004 100.053 271.883C100.576 271.763 101.211 271.702 101.956 271.702H104.29V270.698C104.29 270.269 104.238 269.921 104.133 269.653C104.042 269.372 103.891 269.158 103.682 269.01C103.473 268.85 103.205 268.742 102.878 268.689C102.564 268.622 102.191 268.588 101.76 268.588C101.171 268.588 100.583 268.702 99.9945 268.93C99.4191 269.158 98.9549 269.425 98.6018 269.734V267.805C98.8111 267.684 99.053 267.577 99.3276 267.483C99.6153 267.39 99.9095 267.316 100.21 267.262C100.511 267.196 100.812 267.149 101.113 267.122C101.413 267.082 101.688 267.062 101.936 267.062C102.616 267.062 103.205 267.122 103.702 267.242C104.212 267.363 104.63 267.564 104.957 267.845C105.284 268.126 105.526 268.501 105.683 268.97C105.84 269.425 105.918 269.995 105.918 270.678V277.91H104.428L104.33 276.383ZM99.4845 274.696C99.4845 275.272 99.6414 275.72 99.9553 276.042C100.269 276.363 100.786 276.524 101.505 276.524C102.473 276.524 103.179 276.269 103.623 275.761C104.068 275.252 104.29 274.609 104.29 273.832V272.928H102.015C101.518 272.928 101.106 272.961 100.779 273.028C100.452 273.095 100.191 273.202 99.9945 273.35C99.8115 273.484 99.6807 273.664 99.6022 273.892C99.5238 274.106 99.4845 274.374 99.4845 274.696ZM118.109 267.062C118.855 267.062 119.509 267.162 120.071 267.363C120.646 267.55 121.13 267.865 121.522 268.307C121.915 268.749 122.209 269.325 122.405 270.035C122.614 270.731 122.719 271.582 122.719 272.586C122.719 273.618 122.614 274.488 122.405 275.198C122.196 275.894 121.889 276.464 121.483 276.906C121.078 277.334 120.574 277.649 119.973 277.85C119.384 278.037 118.704 278.131 117.933 278.131C117.122 278.131 116.429 278.017 115.854 277.79C115.278 277.562 114.801 277.24 114.422 276.825C114.042 276.397 113.755 275.874 113.559 275.258C113.362 274.642 113.251 273.952 113.225 273.189H111.205V277.91H109.577V267.262H111.205V271.682H113.264C113.382 270.155 113.82 269.004 114.579 268.227C115.337 267.45 116.514 267.062 118.109 267.062ZM114.853 272.586C114.853 274.006 115.115 275.031 115.638 275.66C116.161 276.29 116.945 276.604 117.992 276.604C118.462 276.604 118.881 276.544 119.247 276.423C119.626 276.303 119.947 276.095 120.208 275.801C120.483 275.493 120.685 275.084 120.816 274.575C120.96 274.066 121.032 273.423 121.032 272.647C121.032 271.856 120.973 271.2 120.855 270.678C120.751 270.155 120.568 269.74 120.306 269.432C120.058 269.111 119.731 268.89 119.325 268.769C118.933 268.635 118.456 268.568 117.894 268.568C117.344 268.568 116.88 268.642 116.501 268.789C116.122 268.923 115.808 269.151 115.559 269.472C115.311 269.78 115.128 270.189 115.01 270.698C114.905 271.207 114.853 271.836 114.853 272.586ZM125.801 267.262H127.429V276.323H131.234V267.262H132.863V276.323H136.668V267.262H138.296V276.323H139.806V280.522H138.276V277.91H125.801V267.262ZM142.313 267.262H143.941V272.446C143.941 273.075 143.928 273.685 143.902 274.274C143.876 274.85 143.85 275.272 143.823 275.54L143.902 275.58C144.15 275.151 144.412 274.736 144.687 274.334C144.961 273.919 145.242 273.51 145.53 273.109L149.473 267.262H150.905V277.91H149.277V273.611C149.277 273.222 149.277 272.834 149.277 272.446C149.29 272.044 149.303 271.662 149.316 271.301C149.329 270.939 149.342 270.611 149.355 270.316C149.368 270.008 149.381 269.76 149.394 269.573L149.335 269.553C149.165 269.861 148.943 270.249 148.668 270.718C148.394 271.173 148.106 271.602 147.805 272.004L143.765 277.91H142.313V267.262ZM155.611 273.189C155.611 274.341 155.898 275.205 156.474 275.781C157.062 276.343 157.932 276.624 159.083 276.624C159.75 276.624 160.351 276.511 160.887 276.283C161.423 276.042 161.881 275.767 162.26 275.459V277.187C161.999 277.374 161.593 277.582 161.044 277.81C160.495 278.024 159.828 278.131 159.043 278.131C158.206 278.131 157.468 278.031 156.827 277.83C156.199 277.615 155.67 277.281 155.238 276.825C154.82 276.357 154.499 275.767 154.277 275.057C154.068 274.334 153.963 273.457 153.963 272.426C153.963 270.671 154.362 269.338 155.16 268.428C155.957 267.517 157.121 267.062 158.651 267.062C159.449 267.062 160.129 267.182 160.691 267.423C161.253 267.664 161.705 268.006 162.045 268.448C162.385 268.89 162.633 269.425 162.79 270.055C162.947 270.671 163.025 271.354 163.025 272.104V273.189H155.611ZM158.631 268.568C157.677 268.568 156.931 268.829 156.395 269.352C155.872 269.861 155.611 270.658 155.611 271.743H161.397C161.397 270.658 161.175 269.861 160.73 269.352C160.299 268.829 159.599 268.568 158.631 268.568ZM170.476 276.323H171.653C171.993 275.573 172.261 274.542 172.457 273.229C172.653 271.903 172.751 270.296 172.751 268.408V267.262H179.675V276.323H181.245V280.522H179.715V277.91H172.006V280.522H170.476V276.323ZM178.047 268.829H174.301L174.281 269.573C174.255 270.872 174.164 272.104 174.007 273.269C173.863 274.435 173.614 275.452 173.261 276.323H178.047V268.829ZM183.041 272.546C183.041 271.622 183.165 270.818 183.414 270.135C183.662 269.452 184.009 268.883 184.453 268.428C184.898 267.972 185.428 267.631 186.042 267.403C186.67 267.175 187.357 267.062 188.102 267.062C188.808 267.062 189.449 267.169 190.024 267.383C190.6 267.597 191.083 267.932 191.476 268.387C191.881 268.843 192.195 269.419 192.417 270.115C192.64 270.812 192.751 271.642 192.751 272.606C192.751 273.611 192.62 274.461 192.358 275.158C192.11 275.854 191.763 276.423 191.319 276.865C190.887 277.307 190.377 277.629 189.789 277.83C189.2 278.031 188.566 278.131 187.886 278.131C186.33 278.131 185.133 277.642 184.297 276.665C183.46 275.687 183.041 274.314 183.041 272.546ZM184.669 272.606C184.669 273.879 184.95 274.87 185.513 275.58C186.088 276.276 186.925 276.624 188.023 276.624C188.991 276.624 189.75 276.31 190.299 275.68C190.848 275.037 191.123 274.013 191.123 272.606V272.546C191.123 271.193 190.842 270.189 190.279 269.533C189.73 268.876 188.932 268.548 187.886 268.548C186.853 268.548 186.055 268.89 185.493 269.573C184.944 270.242 184.669 271.234 184.669 272.546V272.606ZM199.149 273.089H197.443V277.91H195.815V267.262H197.443V271.783H199.169L202.641 267.262H204.504L200.542 272.325L204.916 277.91H202.935L199.149 273.089ZM208.331 280.08C208.514 280.08 208.678 280.053 208.821 279.999C208.978 279.959 209.122 279.866 209.253 279.718C209.397 279.571 209.534 279.357 209.665 279.075C209.809 278.794 209.959 278.419 210.116 277.95L205.899 267.262H207.782L210.96 275.761L213.608 267.262H215.353L211.764 277.548C211.424 278.54 211.097 279.31 210.783 279.859C210.482 280.408 210.195 280.816 209.92 281.084C209.645 281.352 209.377 281.513 209.116 281.566C208.854 281.633 208.599 281.667 208.351 281.667C207.932 281.667 207.625 281.613 207.429 281.506V279.839C207.703 279.999 208.004 280.08 208.331 280.08ZM217.634 267.262H219.791L223.087 273.591L226.245 267.262H228.304V277.91H226.676V272.305C226.676 271.702 226.703 271.106 226.755 270.517C226.807 269.914 226.859 269.312 226.912 268.709C226.611 269.392 226.33 270.035 226.068 270.638C225.807 271.227 225.565 271.722 225.343 272.124L223.538 275.339H222.42L220.713 272.144C220.491 271.716 220.236 271.207 219.948 270.617C219.661 270.028 219.36 269.399 219.046 268.729C219.098 269.332 219.144 269.941 219.183 270.557C219.236 271.16 219.262 271.769 219.262 272.385V277.91H217.634V267.262ZM233.018 273.189C233.018 274.341 233.306 275.205 233.881 275.781C234.469 276.343 235.339 276.624 236.49 276.624C237.157 276.624 237.758 276.511 238.294 276.283C238.831 276.042 239.288 275.767 239.667 275.459V277.187C239.406 277.374 239.001 277.582 238.451 277.81C237.902 278.024 237.235 278.131 236.451 278.131C235.614 278.131 234.875 278.031 234.234 277.83C233.606 277.615 233.077 277.281 232.645 276.825C232.227 276.357 231.906 275.767 231.684 275.057C231.475 274.334 231.37 273.457 231.37 272.426C231.37 270.671 231.769 269.338 232.567 268.428C233.364 267.517 234.528 267.062 236.058 267.062C236.856 267.062 237.536 267.182 238.098 267.423C238.661 267.664 239.112 268.006 239.452 268.448C239.792 268.89 240.04 269.425 240.197 270.055C240.354 270.671 240.432 271.354 240.432 272.104V273.189H233.018ZM236.039 268.568C235.084 268.568 234.339 268.829 233.802 269.352C233.279 269.861 233.018 270.658 233.018 271.743H238.804C238.804 270.658 238.582 269.861 238.138 269.352C237.706 268.829 237.006 268.568 236.039 268.568ZM243.493 267.262H245.121V271.722H250.3V267.262H251.928V277.91H250.3V273.31H245.121V277.91H243.493V267.262ZM257.54 268.829H254.166V267.262H262.522V268.829H259.168V277.91H257.54V268.829ZM266.384 270.778C266.646 270.751 266.888 270.731 267.11 270.718C267.333 270.705 267.568 270.698 267.816 270.698C268.64 270.698 269.34 270.772 269.915 270.919C270.491 271.053 270.955 271.267 271.308 271.562C271.661 271.843 271.916 272.205 272.073 272.647C272.23 273.075 272.308 273.591 272.308 274.193C272.308 274.729 272.23 275.231 272.073 275.7C271.916 276.169 271.648 276.577 271.269 276.926C270.903 277.274 270.412 277.549 269.798 277.749C269.183 277.95 268.418 278.051 267.503 278.051C267.045 278.051 266.587 278.037 266.129 278.011C265.672 277.997 265.214 277.964 264.756 277.91V267.262H266.384V270.778ZM266.384 276.484C266.62 276.511 266.816 276.531 266.973 276.544C267.143 276.544 267.378 276.544 267.679 276.544C268.268 276.544 268.751 276.49 269.131 276.383C269.523 276.276 269.83 276.122 270.053 275.921C270.288 275.72 270.451 275.479 270.543 275.198C270.634 274.917 270.68 274.602 270.68 274.254C270.68 273.932 270.641 273.638 270.563 273.37C270.484 273.102 270.327 272.874 270.092 272.687C269.869 272.486 269.549 272.332 269.131 272.225C268.725 272.118 268.183 272.064 267.503 272.064C267.293 272.064 267.104 272.077 266.934 272.104C266.777 272.118 266.594 272.138 266.384 272.164V276.484ZM273.779 267.262H275.408V277.91H273.779V267.262Z" fill="#262626" fill-opacity="0.7"/>
</g>
</g>
<defs>
<filter id="filter0_dd_6_1181" x="-1.09619" y="-0.48877" width="212.24" height="58.8764" filterUnits="userSpaceOnUse" color-interpolation-filters="sRGB">
<feFlood flood-opacity="0" result="BackgroundImageFix"/>
<feColorMatrix in="SourceAlpha" type="matrix" values="0 0 0 0 0 0 0 0 0 0 0 0 0 0 0 0 0 0 127 0" result="hardAlpha"/>
<feOffset dy="3"/>
<feGaussianBlur stdDeviation="3"/>
<feColorMatrix type="matrix" values="0 0 0 0 0.14902 0 0 0 0 0.14902 0 0 0 0 0.14902 0 0 0 0.16 0"/>
<feBlend mode="normal" in2="BackgroundImageFix" result="effect1_dropShadow_6_1181"/>
<feColorMatrix in="SourceAlpha" type="matrix" values="0 0 0 0 0 0 0 0 0 0 0 0 0 0 0 0 0 0 127 0" result="hardAlpha"/>
<feOffset dy="1"/>
<feGaussianBlur stdDeviation="1"/>
<feColorMatrix type="matrix" values="0 0 0 0 0.14902 0 0 0 0 0.14902 0 0 0 0 0.14902 0 0 0 0.04 0"/>
<feBlend mode="normal" in2="effect1_dropShadow_6_1181" result="effect2_dropShadow_6_1181"/>
<feBlend mode="normal" in="SourceGraphic" in2="effect2_dropShadow_6_1181" result="shape"/>
</filter>
<filter id="filter1_dd_6_1181" x="-1.09619" y="66.4775" width="143.586" height="52.1798" filterUnits="userSpaceOnUse" color-interpolation-filters="sRGB">
<feFlood flood-opacity="0" result="BackgroundImageFix"/>
<feColorMatrix in="SourceAlpha" type="matrix" values="0 0 0 0 0 0 0 0 0 0 0 0 0 0 0 0 0 0 127 0" result="hardAlpha"/>
<feOffset dy="3"/>
<feGaussianBlur stdDeviation="3"/>
<feColorMatrix type="matrix" values="0 0 0 0 0.14902 0 0 0 0 0.14902 0 0 0 0 0.14902 0 0 0 0.16 0"/>
<feBlend mode="normal" in2="BackgroundImageFix" result="effect1_dropShadow_6_1181"/>
<feColorMatrix in="SourceAlpha" type="matrix" values="0 0 0 0 0 0 0 0 0 0 0 0 0 0 0 0 0 0 127 0" result="hardAlpha"/>
<feOffset dy="1"/>
<feGaussianBlur stdDeviation="1"/>
<feColorMatrix type="matrix" values="0 0 0 0 0.14902 0 0 0 0 0.14902 0 0 0 0 0.14902 0 0 0 0.04 0"/>
<feBlend mode="normal" in2="effect1_dropShadow_6_1181" result="effect2_dropShadow_6_1181"/>
<feBlend mode="normal" in="SourceGraphic" in2="effect2_dropShadow_6_1181" result="shape"/>
</filter>
<filter id="filter2_dd_6_1181" x="-1.09619" y="126.747" width="335.654" height="52.1798" filterUnits="userSpaceOnUse" color-interpolation-filters="sRGB">
<feFlood flood-opacity="0" result="BackgroundImageFix"/>
<feColorMatrix in="SourceAlpha" type="matrix" values="0 0 0 0 0 0 0 0 0 0 0 0 0 0 0 0 0 0 127 0" result="hardAlpha"/>
<feOffset dy="3"/>
<feGaussianBlur stdDeviation="3"/>
<feColorMatrix type="matrix" values="0 0 0 0 0.14902 0 0 0 0 0.14902 0 0 0 0 0.14902 0 0 0 0.16 0"/>
<feBlend mode="normal" in2="BackgroundImageFix" result="effect1_dropShadow_6_1181"/>
<feColorMatrix in="SourceAlpha" type="matrix" values="0 0 0 0 0 0 0 0 0 0 0 0 0 0 0 0 0 0 127 0" result="hardAlpha"/>
<feOffset dy="1"/>
<feGaussianBlur stdDeviation="1"/>
<feColorMatrix type="matrix" values="0 0 0 0 0.14902 0 0 0 0 0.14902 0 0 0 0 0.14902 0 0 0 0.04 0"/>
<feBlend mode="normal" in2="effect1_dropShadow_6_1181" result="effect2_dropShadow_6_1181"/>
<feBlend mode="normal" in="SourceGraphic" in2="effect2_dropShadow_6_1181" result="shape"/>
</filter>
<filter id="filter3_dd_6_1181" x="-1.09619" y="187.017" width="342.192" height="52.1798" filterUnits="userSpaceOnUse" color-interpolation-filters="sRGB">
<feFlood flood-opacity="0" result="BackgroundImageFix"/>
<feColorMatrix in="SourceAlpha" type="matrix" values="0 0 0 0 0 0 0 0 0 0 0 0 0 0 0 0 0 0 127 0" result="hardAlpha"/>
<feOffset dy="3"/>
<feGaussianBlur stdDeviation="3"/>
<feColorMatrix type="matrix" values="0 0 0 0 0.14902 0 0 0 0 0.14902 0 0 0 0 0.14902 0 0 0 0.16 0"/>
<feBlend mode="normal" in2="BackgroundImageFix" result="effect1_dropShadow_6_1181"/>
<feColorMatrix in="SourceAlpha" type="matrix" values="0 0 0 0 0 0 0 0 0 0 0 0 0 0 0 0 0 0 127 0" result="hardAlpha"/>
<feOffset dy="1"/>
<feGaussianBlur stdDeviation="1"/>
<feColorMatrix type="matrix" values="0 0 0 0 0.14902 0 0 0 0 0.14902 0 0 0 0 0.14902 0 0 0 0.04 0"/>
<feBlend mode="normal" in2="effect1_dropShadow_6_1181" result="effect2_dropShadow_6_1181"/>
<feBlend mode="normal" in="SourceGraphic" in2="effect2_dropShadow_6_1181" result="shape"/>
</filter>
<filter id="filter4_dd_6_1181" x="-1.09619" y="247.287" width="304.596" height="52.1798" filterUnits="userSpaceOnUse" color-interpolation-filters="sRGB">
<feFlood flood-opacity="0" result="BackgroundImageFix"/>
<feColorMatrix in="SourceAlpha" type="matrix" values="0 0 0 0 0 0 0 0 0 0 0 0 0 0 0 0 0 0 127 0" result="hardAlpha"/>
<feOffset dy="3"/>
<feGaussianBlur stdDeviation="3"/>
<feColorMatrix type="matrix" values="0 0 0 0 0.14902 0 0 0 0 0.14902 0 0 0 0 0.14902 0 0 0 0.16 0"/>
<feBlend mode="normal" in2="BackgroundImageFix" result="effect1_dropShadow_6_1181"/>
<feColorMatrix in="SourceAlpha" type="matrix" values="0 0 0 0 0 0 0 0 0 0 0 0 0 0 0 0 0 0 127 0" result="hardAlpha"/>
<feOffset dy="1"/>
<feGaussianBlur stdDeviation="1"/>
<feColorMatrix type="matrix" values="0 0 0 0 0.14902 0 0 0 0 0.14902 0 0 0 0 0.14902 0 0 0 0.04 0"/>
<feBlend mode="normal" in2="effect1_dropShadow_6_1181" result="effect2_dropShadow_6_1181"/>
<feBlend mode="normal" in="SourceGraphic" in2="effect2_dropShadow_6_1181" result="shape"/>
</filter>
<clipPath id="clip0_6_1181">
<rect width="340" height="298" fill="white"/>
</clipPath>
</defs>
</svg>
