<svg width="264" height="25" viewBox="0 0 264 25" fill="none" xmlns="http://www.w3.org/2000/svg">
<path d="M21.4601 5.64722C22.0262 6.37937 22.5099 7.17905 22.8959 8.03273L11.9796 16.0905L7.4192 13.227V9.78215L11.9796 12.6457L21.4601 5.64722Z" fill="#2A9E3E"/>
<path d="M2.76695 12.9836C2.76695 12.8288 2.77091 12.6755 2.77885 12.5222L0.0150638 12.384C0.00554995 12.5826 0 12.7827 0 12.9836C0 16.2974 1.34066 19.2975 3.50903 21.4686L5.46889 19.5056C3.8 17.8348 2.76695 15.5279 2.76695 12.9836Z" fill="url(#paint0_linear_3_484)"/>
<path d="M11.9787 3.75563C12.1334 3.75563 12.2864 3.76117 12.4394 3.76833L12.5773 0.998487C12.3791 0.988957 12.1794 0.983398 11.9787 0.983398C8.67034 0.983398 5.67502 2.32622 3.50745 4.49811L5.4673 6.46114C7.13541 4.79034 9.43936 3.75563 11.9787 3.75563Z" fill="url(#paint1_linear_3_484)"/>
<path d="M11.9792 22.2117C11.8246 22.2117 11.6716 22.2078 11.5186 22.1999L11.3806 24.968C11.5788 24.9776 11.7786 24.9831 11.9792 24.9831C15.2876 24.9831 18.2829 23.6403 20.4505 21.4685L18.4906 19.5054C16.8225 21.1763 14.5194 22.2117 11.9792 22.2117Z" fill="url(#paint2_linear_3_484)"/>
<path d="M17.1739 5.36607L19.504 3.64603C17.4474 1.98159 14.8303 0.983398 11.9801 0.983398V3.75563C13.9059 3.75563 15.6945 4.35041 17.1739 5.36607Z" fill="url(#paint3_linear_3_484)"/>
<path d="M23.9592 12.9836C23.9592 12.2498 23.8934 11.5312 23.7673 10.834L21.1883 12.7374C21.1907 12.8192 21.1915 12.901 21.1915 12.9836C21.1915 15.6931 20.0197 18.1334 18.1565 19.8232L20.0157 21.8816C22.4377 19.6866 23.9592 16.5134 23.9592 12.9836Z" fill="#2A9E3E"/>
<path d="M11.9803 22.2119C9.27517 22.2119 6.83881 21.0382 5.15168 19.1721L3.09668 21.0342C5.28883 23.4594 8.45695 24.9834 11.9803 24.9834V22.2119Z" fill="url(#paint4_linear_3_484)"/>
<path d="M5.80188 6.14378L3.94271 4.08545C1.52143 6.28116 0 9.45443 0 12.9835H2.76774C2.76695 10.2739 3.93875 7.83364 5.80188 6.14378Z" fill="url(#paint5_linear_3_484)"/>
<path d="M33 14.3316C33 13.1035 33.1691 12.0268 33.5072 11.1013C33.8454 10.1758 34.3259 9.41054 34.9488 8.80542C35.5717 8.18251 36.3192 7.71977 37.1913 7.41721C38.0812 7.11466 39.0779 6.96338 40.1813 6.96338C42.317 6.96338 43.9722 7.55959 45.1468 8.75203C46.3215 9.94447 46.9088 11.831 46.9088 14.4117C46.9088 15.7287 46.7397 16.8588 46.4016 17.8021C46.0634 18.7276 45.5829 19.4929 44.96 20.098C44.3548 20.7031 43.6251 21.148 42.7709 21.4328C41.9166 21.6997 40.9733 21.8332 39.941 21.8332C37.6452 21.8332 35.9099 21.1925 34.7353 19.9111C33.5784 18.6297 33 16.7698 33 14.3316ZM35.8565 14.4383C35.8565 16.0401 36.2036 17.2682 36.8977 18.1224C37.6096 18.9767 38.6774 19.4039 40.1012 19.4039C41.3826 19.4039 42.3615 19.0212 43.0378 18.2559C43.7141 17.4728 44.0523 16.2003 44.0523 14.4383V14.3316C44.0523 12.623 43.7141 11.3683 43.0378 10.5674C42.3615 9.74869 41.3293 9.33935 39.941 9.33935C37.218 9.33935 35.8565 11.0034 35.8565 14.3316V14.4383Z" fill="#2A72F8"/>
<path d="M50.8014 7.25704H53.6313V13.0501H60.2519V7.25704H63.0551V21.5129H60.2519V15.5863H53.6313V21.5129H50.8014V7.25704Z" fill="#2A72F8"/>
<path d="M66.2232 18.5496C66.4367 18.6208 66.6681 18.6564 66.9173 18.6564C67.202 18.6564 67.4779 18.5852 67.7449 18.4428C68.0296 18.2826 68.2877 17.8911 68.519 17.2682C68.7504 16.6452 68.9462 15.702 69.1064 14.4383C69.2665 13.1747 69.3733 11.4306 69.4267 9.20587L69.4801 7.25704H79.6247V21.5129H76.8216V9.84658H72.0163L71.9896 10.6742C71.9184 13.0234 71.7582 14.9278 71.509 16.3872C71.2599 17.8466 70.9395 18.9767 70.548 19.7776C70.1564 20.5785 69.6937 21.1213 69.1598 21.4061C68.6436 21.6908 68.0741 21.8332 67.4512 21.8332C67.202 21.8332 66.9796 21.8243 66.7838 21.8065C66.6058 21.7887 66.4189 21.7442 66.2232 21.6731V18.5496Z" fill="#2A72F8"/>
<path d="M92.601 19.4573C92.2451 20.0802 91.6933 20.6319 90.9458 21.1124C90.1983 21.5752 89.264 21.8065 88.1427 21.8065C86.6299 21.8065 85.4731 21.4328 84.6722 20.6853C83.8891 19.92 83.4976 18.861 83.4976 17.5084C83.4976 15.9422 83.9514 14.8299 84.8591 14.1714C85.7667 13.5129 87.2706 13.1836 89.3708 13.1836H92.4675V12.009C92.4675 10.9945 92.2095 10.3093 91.6933 9.95337C91.1772 9.59741 90.3229 9.41944 89.1305 9.41944C88.7033 9.41944 88.2762 9.46393 87.8491 9.55292C87.4219 9.64191 87.0126 9.75759 86.621 9.89997C86.2295 10.0424 85.8646 10.2114 85.5265 10.4072C85.1883 10.5852 84.8947 10.7721 84.6455 10.9678V7.97784C84.9303 7.81766 85.2684 7.67528 85.66 7.5507C86.0515 7.42611 86.4609 7.31933 86.888 7.23034C87.3329 7.14135 87.7779 7.07906 88.2228 7.04346C88.6856 6.99007 89.1216 6.96338 89.5309 6.96338C90.5454 6.96338 91.4175 7.05236 92.1472 7.23034C92.8769 7.39052 93.4731 7.66638 93.9358 8.05793C94.4164 8.43167 94.7634 8.9389 94.977 9.57962C95.1906 10.2203 95.2973 11.0123 95.2973 11.9556V21.5129H92.7345L92.601 19.4573ZM86.3541 17.1347C86.3541 17.811 86.5498 18.3449 86.9414 18.7365C87.3329 19.128 87.9914 19.3238 88.9169 19.3238C90.1449 19.3238 91.0437 19.0212 91.6132 18.4161C92.1828 17.811 92.4675 17.0368 92.4675 16.0935V14.999H89.5843C88.9614 14.999 88.4364 15.0346 88.0092 15.1058C87.5999 15.1769 87.2706 15.3015 87.0215 15.4795C86.7723 15.6397 86.5943 15.8622 86.4875 16.1469C86.3986 16.4139 86.3541 16.7431 86.3541 17.1347Z" fill="#2A72F8"/>
<path d="M99.9446 7.25704H102.774V14.0112C102.774 14.7587 102.757 15.4795 102.721 16.1736C102.685 16.8499 102.65 17.366 102.614 17.722L102.721 17.7754C103.024 17.2415 103.335 16.7342 103.655 16.2537C103.994 15.7732 104.341 15.2837 104.697 14.7854L109.822 7.25704H112.385V21.5129H109.582V15.6931C109.582 15.2481 109.582 14.7943 109.582 14.3316C109.6 13.8688 109.609 13.4328 109.609 13.0234C109.626 12.5963 109.644 12.2048 109.662 11.8488C109.68 11.4929 109.698 11.1992 109.715 10.9678L109.662 10.9411C109.431 11.3505 109.146 11.8221 108.808 12.356C108.47 12.89 108.123 13.415 107.767 13.9311L102.534 21.5129H99.9446V7.25704ZM104.296 0.983398C104.296 1.64191 104.438 2.16694 104.723 2.55848C105.008 2.93223 105.489 3.11911 106.165 3.11911C106.841 3.11911 107.331 2.93223 107.633 2.55848C107.936 2.16694 108.087 1.64191 108.087 0.983398H110.436C110.436 1.6775 110.321 2.27372 110.089 2.77205C109.876 3.27038 109.573 3.68863 109.182 4.02678C108.808 4.34714 108.363 4.5874 107.847 4.74758C107.331 4.90776 106.77 4.98785 106.165 4.98785C105.56 4.98785 104.999 4.90776 104.483 4.74758C103.967 4.5874 103.513 4.34714 103.121 4.02678C102.748 3.68863 102.445 3.27038 102.214 2.77205C102 2.27372 101.893 1.6775 101.893 0.983398H104.296Z" fill="#2A72F8"/>
<path d="M117.203 7.25704H120.033V13.0501H126.654V7.25704H129.457V21.5129H126.654V15.5863H120.033V21.5129H117.203V7.25704Z" fill="#2A72F8"/>
<path d="M134.414 12.4361H141.969V14.9723H134.414V12.4361Z" fill="#2A72F8"/>
<path d="M146.924 7.25704H158.937V21.5129H156.134V9.81988H149.754V21.5129H146.924V7.25704Z" fill="#2A72F8"/>
<path d="M162.858 14.3316C162.858 13.1035 163.027 12.0268 163.365 11.1013C163.703 10.1758 164.184 9.41054 164.807 8.80542C165.43 8.18251 166.177 7.71977 167.049 7.41721C167.939 7.11466 168.936 6.96338 170.039 6.96338C172.175 6.96338 173.83 7.55959 175.005 8.75203C176.179 9.94447 176.767 11.831 176.767 14.4117C176.767 15.7287 176.598 16.8588 176.259 17.8021C175.921 18.7276 175.441 19.4929 174.818 20.098C174.213 20.7031 173.483 21.148 172.629 21.4328C171.774 21.6997 170.831 21.8332 169.799 21.8332C167.503 21.8332 165.768 21.1925 164.593 19.9111C163.436 18.6297 162.858 16.7698 162.858 14.3316ZM165.714 14.4383C165.714 16.0401 166.061 17.2682 166.755 18.1224C167.467 18.9767 168.535 19.4039 169.959 19.4039C171.24 19.4039 172.219 19.0212 172.896 18.2559C173.572 17.4728 173.91 16.2003 173.91 14.4383V14.3316C173.91 12.623 173.572 11.3683 172.896 10.5674C172.219 9.74869 171.187 9.33935 169.799 9.33935C167.076 9.33935 165.714 11.0034 165.714 14.3316V14.4383Z" fill="#2A72F8"/>
<path d="M178.557 18.9767H180.185C180.648 17.9801 181.004 16.6274 181.253 14.9189C181.502 13.1925 181.635 11.1458 181.653 8.77873V7.25704H191.771V18.9767H193.907V24.9834H191.291V21.5129H181.199V24.9834H178.557V18.9767ZM188.941 9.76649H184.27L184.243 10.7276C184.207 12.2937 184.092 13.7976 183.896 15.2392C183.7 16.6808 183.389 17.9267 182.961 18.9767H188.941V9.76649Z" fill="#2A72F8"/>
<path d="M197.136 7.25704H209.149V21.5129H206.346V9.81988H199.966V21.5129H197.136V7.25704Z" fill="#2A72F8"/>
<path d="M213.978 7.25704H216.807V14.0112C216.807 14.7587 216.79 15.4795 216.754 16.1736C216.718 16.8499 216.683 17.366 216.647 17.722L216.754 17.7754C217.056 17.2415 217.368 16.7342 217.688 16.2537C218.026 15.7732 218.374 15.2837 218.729 14.7854L223.855 7.25704H226.418V21.5129H223.615V15.6931C223.615 15.2481 223.615 14.7943 223.615 14.3316C223.633 13.8688 223.642 13.4328 223.642 13.0234C223.659 12.5963 223.677 12.2048 223.695 11.8488C223.713 11.4929 223.731 11.1992 223.748 10.9678L223.695 10.9411C223.464 11.3505 223.179 11.8221 222.841 12.356C222.503 12.89 222.155 13.415 221.8 13.9311L216.567 21.5129H213.978V7.25704Z" fill="#2A72F8"/>
<path d="M241.434 10.6742C240.989 10.3538 240.429 10.0779 239.752 9.84658C239.094 9.61521 238.337 9.49953 237.483 9.49953C236.825 9.49953 236.229 9.57962 235.695 9.73979C235.178 9.89997 234.734 10.1669 234.36 10.5407C234.004 10.8966 233.728 11.3861 233.532 12.009C233.336 12.6141 233.238 13.3705 233.238 14.2782C233.238 15.1858 233.336 15.96 233.532 16.6007C233.728 17.2237 234.022 17.7309 234.413 18.1224C234.822 18.514 235.321 18.7987 235.908 18.9767C236.495 19.1547 237.181 19.2437 237.964 19.2437C238.711 19.2437 239.423 19.1369 240.099 18.9233C240.794 18.7098 241.372 18.4161 241.835 18.0424V20.8455C241.443 21.1124 240.883 21.3438 240.153 21.5396C239.423 21.7353 238.542 21.8332 237.51 21.8332C236.335 21.8332 235.303 21.6997 234.413 21.4328C233.523 21.148 232.776 20.7031 232.171 20.098C231.566 19.4929 231.103 18.7009 230.782 17.722C230.48 16.7431 230.329 15.5507 230.329 14.1447C230.329 11.6886 230.916 9.88217 232.091 8.72533C233.283 7.5507 235.098 6.96338 237.537 6.96338C238.515 6.96338 239.307 7.04347 239.913 7.20364C240.518 7.34602 241.025 7.5151 241.434 7.71087V10.6742Z" fill="#2A72F8"/>
<path d="M245.679 7.25704H248.509V11.7954C248.919 11.7598 249.319 11.7331 249.711 11.7153C250.12 11.6975 250.583 11.6886 251.099 11.6886C252.184 11.6886 253.11 11.7776 253.875 11.9556C254.64 12.1158 255.272 12.3827 255.771 12.7565C256.269 13.1302 256.634 13.6286 256.865 14.2515C257.097 14.8566 257.212 15.5952 257.212 16.4673C257.212 17.3393 257.097 18.1046 256.865 18.7632C256.634 19.4217 256.251 19.9734 255.717 20.4183C255.183 20.8455 254.471 21.1658 253.582 21.3794C252.709 21.593 251.633 21.6997 250.351 21.6997C249.444 21.6997 248.589 21.6819 247.788 21.6464C246.988 21.6108 246.285 21.5663 245.679 21.5129V7.25704ZM248.483 19.2437C248.803 19.2793 249.114 19.306 249.417 19.3238C249.737 19.3238 250.182 19.3238 250.752 19.3238C251.446 19.3238 252.024 19.2793 252.487 19.1903C252.95 19.0835 253.315 18.9233 253.582 18.7098C253.866 18.4784 254.062 18.1936 254.169 17.8555C254.293 17.4995 254.356 17.0635 254.356 16.5474C254.356 16.0668 254.293 15.6575 254.169 15.3193C254.062 14.9812 253.857 14.7053 253.555 14.4917C253.252 14.2782 252.825 14.1269 252.273 14.0379C251.739 13.9311 251.045 13.8777 250.191 13.8777C249.924 13.8777 249.657 13.8955 249.39 13.9311C249.123 13.9489 248.821 13.9756 248.483 14.0112V19.2437Z" fill="#2A72F8"/>
<defs>
<linearGradient id="paint0_linear_3_484" x1="4.06841" y1="21.1221" x2="1.03564" y2="12.3698" gradientUnits="userSpaceOnUse">
<stop offset="0.1444" stop-color="#F2E913"/>
<stop offset="0.3037" stop-color="#E7E518"/>
<stop offset="0.5823" stop-color="#CADB26"/>
<stop offset="0.891" stop-color="#A3CD39"/>
</linearGradient>
<linearGradient id="paint1_linear_3_484" x1="4.29804" y1="4.98907" x2="12.0898" y2="2.02457" gradientUnits="userSpaceOnUse">
<stop offset="0.0592" stop-color="#0FA8E0"/>
<stop offset="0.5385" stop-color="#0099F9"/>
<stop offset="0.9234" stop-color="#0291EB"/>
</linearGradient>
<linearGradient id="paint2_linear_3_484" x1="11.1982" y1="23.3111" x2="20.0072" y2="21.3234" gradientUnits="userSpaceOnUse">
<stop offset="0.1226" stop-color="#A3CD39"/>
<stop offset="0.2846" stop-color="#86C339"/>
<stop offset="0.8693" stop-color="#21A038"/>
</linearGradient>
<linearGradient id="paint3_linear_3_484" x1="11.4012" y1="1.91272" x2="18.9336" y2="4.23304" gradientUnits="userSpaceOnUse">
<stop offset="0.0566" stop-color="#0291EB"/>
<stop offset="0.79" stop-color="#0C8ACB"/>
</linearGradient>
<linearGradient id="paint4_linear_3_484" x1="3.7907" y1="20.6973" x2="11.9907" y2="23.7561" gradientUnits="userSpaceOnUse">
<stop offset="0.1324" stop-color="#F2E913"/>
<stop offset="0.2977" stop-color="#EBE716"/>
<stop offset="0.5306" stop-color="#D9E01F"/>
<stop offset="0.8023" stop-color="#BBD62D"/>
<stop offset="0.9829" stop-color="#A3CD39"/>
</linearGradient>
<linearGradient id="paint5_linear_3_484" x1="1.03021" y1="13.3196" x2="4.32972" y2="4.75027" gradientUnits="userSpaceOnUse">
<stop offset="0.0698" stop-color="#A3CD39"/>
<stop offset="0.2599" stop-color="#81C55F"/>
<stop offset="0.9216" stop-color="#0FA8E0"/>
</linearGradient>
</defs>
</svg>
