<svg width="264" height="24" viewBox="0 0 264 24" fill="none" xmlns="http://www.w3.org/2000/svg">
<path d="M21.4601 4.66382C22.0262 5.39598 22.5099 6.19565 22.8959 7.04933L11.9796 15.1071L7.41919 12.2436V8.79876L11.9796 11.6623L21.4601 4.66382Z" fill="#2A9E3E"/>
<path d="M2.76695 12.0002C2.76695 11.8454 2.77091 11.6921 2.77885 11.5388L0.0150638 11.4006C0.00554995 11.5992 0 11.7993 0 12.0002C0 15.314 1.34066 18.3141 3.50903 20.4852L5.46889 18.5222C3.8 16.8514 2.76695 14.5445 2.76695 12.0002Z" fill="url(#paint0_linear_3_83)"/>
<path d="M11.9787 2.77223C12.1334 2.77223 12.2864 2.77778 12.4394 2.78493L12.5773 0.0150882C12.3791 0.00555894 12.1794 0 11.9787 0C8.67034 0 5.67502 1.34283 3.50745 3.51471L5.4673 5.47775C7.13541 3.80694 9.43936 2.77223 11.9787 2.77223Z" fill="url(#paint1_linear_3_83)"/>
<path d="M11.9792 21.2285C11.8246 21.2285 11.6716 21.2245 11.5186 21.2166L11.3806 23.9847C11.5788 23.9943 11.7786 23.9999 11.9792 23.9999C15.2876 23.9999 18.2829 22.657 20.4505 20.4852L18.4906 18.5221C16.8225 20.193 14.5193 21.2285 11.9792 21.2285Z" fill="url(#paint2_linear_3_83)"/>
<path d="M17.1739 4.38267L19.504 2.66264C17.4474 0.998191 14.8303 0 11.9801 0V2.77223C13.9059 2.77223 15.6945 3.36701 17.1739 4.38267Z" fill="url(#paint3_linear_3_83)"/>
<path d="M23.9592 12.0002C23.9592 11.2664 23.8933 10.5478 23.7673 9.85059L21.1882 11.754C21.1907 11.8358 21.1915 11.9176 21.1915 12.0002C21.1915 14.7097 20.0197 17.15 18.1565 18.8398L20.0157 20.8982C22.4377 18.7032 23.9592 15.53 23.9592 12.0002Z" fill="#2A9E3E"/>
<path d="M11.9803 21.2285C9.27517 21.2285 6.83881 20.0548 5.15168 18.1887L3.09668 20.0508C5.28883 22.476 8.45695 24 11.9803 24V21.2285Z" fill="url(#paint4_linear_3_83)"/>
<path d="M5.80188 5.16026L3.94271 3.10193C1.52143 5.29764 0 8.47091 0 11.9999H2.76774C2.76695 9.29039 3.93875 6.85012 5.80188 5.16026Z" fill="url(#paint5_linear_3_83)"/>
<path d="M33 13.3482C33 12.1201 33.1691 11.0434 33.5072 10.1179C33.8454 9.19244 34.3259 8.42714 34.9488 7.82202C35.5717 7.19911 36.3192 6.73637 37.1913 6.43382C38.0812 6.13126 39.0779 5.97998 40.1813 5.97998C42.317 5.97998 43.9722 6.5762 45.1468 7.76863C46.3215 8.96107 46.9088 10.8476 46.9088 13.4283C46.9088 14.7453 46.7397 15.8754 46.4016 16.8187C46.0634 17.7442 45.5829 18.5095 44.96 19.1146C44.3548 19.7197 43.6251 20.1646 42.7709 20.4494C41.9166 20.7163 40.9733 20.8498 39.941 20.8498C37.6452 20.8498 35.9099 20.2091 34.7353 18.9277C33.5784 17.6463 33 15.7864 33 13.3482ZM35.8565 13.4549C35.8565 15.0567 36.2036 16.2848 36.8977 17.139C37.6096 17.9933 38.6774 18.4205 40.1012 18.4205C41.3826 18.4205 42.3615 18.0378 43.0378 17.2725C43.7141 16.4894 44.0523 15.2169 44.0523 13.4549V13.3482C44.0523 11.6396 43.7141 10.3849 43.0378 9.58398C42.3615 8.76529 41.3293 8.35595 39.941 8.35595C37.218 8.35595 35.8565 10.02 35.8565 13.3482V13.4549Z" fill="#2A72F8"/>
<path d="M50.8014 6.27364H53.6313V12.0667H60.2519V6.27364H63.0551V20.5295H60.2519V14.6029H53.6313V20.5295H50.8014V6.27364Z" fill="#2A72F8"/>
<path d="M66.2232 17.5662C66.4367 17.6374 66.6681 17.673 66.9173 17.673C67.202 17.673 67.4779 17.6018 67.7449 17.4594C68.0296 17.2992 68.2877 16.9077 68.519 16.2848C68.7504 15.6618 68.9462 14.7186 69.1064 13.4549C69.2665 12.1913 69.3733 10.4472 69.4267 8.22247L69.4801 6.27364H79.6247V20.5295H76.8216V8.86318H72.0163L71.9896 9.69077C71.9184 12.04 71.7582 13.9444 71.509 15.4038C71.2599 16.8632 70.9395 17.9933 70.548 18.7942C70.1564 19.5951 69.6937 20.1379 69.1598 20.4227C68.6436 20.7075 68.0741 20.8498 67.4512 20.8498C67.202 20.8498 66.9796 20.8409 66.7838 20.8231C66.6058 20.8053 66.4189 20.7608 66.2232 20.6897V17.5662Z" fill="#2A72F8"/>
<path d="M92.601 18.4739C92.2451 19.0968 91.6933 19.6485 90.9458 20.129C90.1983 20.5918 89.264 20.8231 88.1427 20.8231C86.6299 20.8231 85.4731 20.4494 84.6722 19.7019C83.8891 18.9366 83.4976 17.8776 83.4976 16.525C83.4976 14.9588 83.9514 13.8465 84.8591 13.188C85.7667 12.5295 87.2706 12.2002 89.3708 12.2002H92.4675V11.0256C92.4675 10.0111 92.2095 9.32592 91.6933 8.96997C91.1772 8.61402 90.3229 8.43604 89.1305 8.43604C88.7033 8.43604 88.2762 8.48053 87.8491 8.56952C87.4219 8.65851 87.0126 8.77419 86.621 8.91657C86.2295 9.05895 85.8646 9.22803 85.5265 9.4238C85.1883 9.60178 84.8947 9.78865 84.6455 9.98443V6.99444C84.9303 6.83426 85.2684 6.69188 85.66 6.5673C86.0515 6.44271 86.4609 6.33593 86.888 6.24694C87.3329 6.15795 87.7779 6.09566 88.2228 6.06007C88.6856 6.00667 89.1216 5.97998 89.5309 5.97998C90.5454 5.97998 91.4175 6.06897 92.1472 6.24694C92.8769 6.40712 93.4731 6.68298 93.9358 7.07453C94.4164 7.44828 94.7634 7.95551 94.977 8.59622C95.1906 9.23693 95.2973 10.0289 95.2973 10.9722V20.5295H92.7345L92.601 18.4739ZM86.3541 16.1513C86.3541 16.8276 86.5498 17.3615 86.9414 17.7531C87.3329 18.1446 87.9914 18.3404 88.9169 18.3404C90.1449 18.3404 91.0437 18.0378 91.6132 17.4327C92.1828 16.8276 92.4675 16.0534 92.4675 15.1101V14.0156H89.5843C88.9614 14.0156 88.4364 14.0512 88.0092 14.1224C87.5999 14.1935 87.2706 14.3181 87.0215 14.4961C86.7723 14.6563 86.5943 14.8788 86.4875 15.1635C86.3986 15.4305 86.3541 15.7597 86.3541 16.1513Z" fill="#2A72F8"/>
<path d="M99.9446 6.27364H102.774V13.0278C102.774 13.7753 102.757 14.4961 102.721 15.1902C102.685 15.8665 102.65 16.3826 102.614 16.7386L102.721 16.792C103.024 16.2581 103.335 15.7508 103.655 15.2703C103.994 14.7898 104.341 14.3003 104.697 13.802L109.822 6.27364H112.385V20.5295H109.582V14.7097C109.582 14.2647 109.582 13.8109 109.582 13.3482C109.6 12.8854 109.609 12.4494 109.609 12.04C109.626 11.6129 109.644 11.2214 109.662 10.8654C109.68 10.5095 109.698 10.2158 109.715 9.98443L109.662 9.95773C109.431 10.3671 109.146 10.8387 108.808 11.3726C108.47 11.9066 108.123 12.4316 107.767 12.9477L102.534 20.5295H99.9446V6.27364ZM104.296 0C104.296 0.658509 104.438 1.18354 104.723 1.57508C105.008 1.94883 105.489 2.13571 106.165 2.13571C106.841 2.13571 107.331 1.94883 107.633 1.57508C107.936 1.18354 108.087 0.658509 108.087 0H110.436C110.436 0.694105 110.321 1.29032 110.089 1.78865C109.876 2.28699 109.573 2.70523 109.182 3.04338C108.808 3.36374 108.363 3.604 107.847 3.76418C107.331 3.92436 106.77 4.00445 106.165 4.00445C105.56 4.00445 104.999 3.92436 104.483 3.76418C103.967 3.604 103.513 3.36374 103.121 3.04338C102.748 2.70523 102.445 2.28699 102.214 1.78865C102 1.29032 101.893 0.694105 101.893 0H104.296Z" fill="#2A72F8"/>
<path d="M117.203 6.27364H120.033V12.0667H126.654V6.27364H129.457V20.5295H126.654V14.6029H120.033V20.5295H117.203V6.27364Z" fill="#2A72F8"/>
<path d="M134.414 11.4527H141.969V13.9889H134.414V11.4527Z" fill="#2A72F8"/>
<path d="M146.924 6.27364H158.937V20.5295H156.134V8.83648H149.754V20.5295H146.924V6.27364Z" fill="#2A72F8"/>
<path d="M162.858 13.3482C162.858 12.1201 163.027 11.0434 163.365 10.1179C163.703 9.19244 164.184 8.42714 164.807 7.82202C165.43 7.19911 166.177 6.73637 167.049 6.43382C167.939 6.13126 168.936 5.97998 170.039 5.97998C172.175 5.97998 173.83 6.5762 175.005 7.76863C176.179 8.96107 176.767 10.8476 176.767 13.4283C176.767 14.7453 176.598 15.8754 176.259 16.8187C175.921 17.7442 175.441 18.5095 174.818 19.1146C174.213 19.7197 173.483 20.1646 172.629 20.4494C171.774 20.7163 170.831 20.8498 169.799 20.8498C167.503 20.8498 165.768 20.2091 164.593 18.9277C163.436 17.6463 162.858 15.7864 162.858 13.3482ZM165.714 13.4549C165.714 15.0567 166.061 16.2848 166.755 17.139C167.467 17.9933 168.535 18.4205 169.959 18.4205C171.24 18.4205 172.219 18.0378 172.896 17.2725C173.572 16.4894 173.91 15.2169 173.91 13.4549V13.3482C173.91 11.6396 173.572 10.3849 172.896 9.58398C172.219 8.76529 171.187 8.35595 169.799 8.35595C167.076 8.35595 165.714 10.02 165.714 13.3482V13.4549Z" fill="#2A72F8"/>
<path d="M178.557 17.9933H180.185C180.648 16.9967 181.004 15.644 181.253 13.9355C181.502 12.2091 181.635 10.1624 181.653 7.79533V6.27364H191.771V17.9933H193.907V24H191.291V20.5295H181.199V24H178.557V17.9933ZM188.941 8.78309H184.27L184.243 9.74416C184.207 11.3103 184.092 12.8142 183.896 14.2558C183.7 15.6974 183.389 16.9433 182.961 17.9933H188.941V8.78309Z" fill="#2A72F8"/>
<path d="M197.136 6.27364H209.149V20.5295H206.346V8.83648H199.966V20.5295H197.136V6.27364Z" fill="#2A72F8"/>
<path d="M213.978 6.27364H216.807V13.0278C216.807 13.7753 216.79 14.4961 216.754 15.1902C216.718 15.8665 216.683 16.3826 216.647 16.7386L216.754 16.792C217.056 16.2581 217.368 15.7508 217.688 15.2703C218.026 14.7898 218.374 14.3003 218.729 13.802L223.855 6.27364H226.418V20.5295H223.615V14.7097C223.615 14.2647 223.615 13.8109 223.615 13.3482C223.633 12.8854 223.642 12.4494 223.642 12.04C223.659 11.6129 223.677 11.2214 223.695 10.8654C223.713 10.5095 223.731 10.2158 223.748 9.98443L223.695 9.95773C223.464 10.3671 223.179 10.8387 222.841 11.3726C222.503 11.9066 222.155 12.4316 221.8 12.9477L216.567 20.5295H213.978V6.27364Z" fill="#2A72F8"/>
<path d="M241.434 9.69077C240.989 9.37041 240.429 9.09455 239.752 8.86318C239.094 8.63181 238.337 8.51613 237.483 8.51613C236.825 8.51613 236.229 8.59622 235.695 8.7564C235.178 8.91657 234.734 9.18354 234.36 9.55729C234.004 9.91324 233.728 10.4027 233.532 11.0256C233.336 11.6307 233.238 12.3871 233.238 13.2948C233.238 14.2024 233.336 14.9766 233.532 15.6174C233.728 16.2403 234.022 16.7475 234.413 17.139C234.822 17.5306 235.321 17.8153 235.908 17.9933C236.495 18.1713 237.181 18.2603 237.964 18.2603C238.711 18.2603 239.423 18.1535 240.099 17.9399C240.794 17.7264 241.372 17.4327 241.835 17.059V19.8621C241.443 20.129 240.883 20.3604 240.153 20.5562C239.423 20.7519 238.542 20.8498 237.51 20.8498C236.335 20.8498 235.303 20.7163 234.413 20.4494C233.523 20.1646 232.776 19.7197 232.171 19.1146C231.566 18.5095 231.103 17.7175 230.782 16.7386C230.48 15.7597 230.329 14.5673 230.329 13.1613C230.329 10.7052 230.916 8.89878 232.091 7.74193C233.283 6.5673 235.098 5.97998 237.537 5.97998C238.515 5.97998 239.307 6.06007 239.913 6.22024C240.518 6.36263 241.025 6.5317 241.434 6.72747V9.69077Z" fill="#2A72F8"/>
<path d="M245.679 6.27364H248.509V10.812C248.919 10.7764 249.319 10.7497 249.711 10.7319C250.12 10.7141 250.583 10.7052 251.099 10.7052C252.184 10.7052 253.11 10.7942 253.875 10.9722C254.64 11.1324 255.272 11.3993 255.771 11.7731C256.269 12.1468 256.634 12.6452 256.865 13.2681C257.097 13.8732 257.212 14.6118 257.212 15.4839C257.212 16.3559 257.097 17.1212 256.865 17.7798C256.634 18.4383 256.251 18.99 255.717 19.4349C255.183 19.8621 254.471 20.1824 253.582 20.396C252.709 20.6096 251.633 20.7163 250.351 20.7163C249.444 20.7163 248.589 20.6986 247.788 20.663C246.988 20.6274 246.285 20.5829 245.679 20.5295V6.27364ZM248.483 18.2603C248.803 18.2959 249.114 18.3226 249.417 18.3404C249.737 18.3404 250.182 18.3404 250.752 18.3404C251.446 18.3404 252.024 18.2959 252.487 18.2069C252.95 18.1001 253.315 17.9399 253.582 17.7264C253.866 17.495 254.062 17.2102 254.169 16.8721C254.293 16.5161 254.356 16.0801 254.356 15.564C254.356 15.0834 254.293 14.6741 254.169 14.3359C254.062 13.9978 253.857 13.7219 253.555 13.5083C253.252 13.2948 252.825 13.1435 252.273 13.0545C251.739 12.9477 251.045 12.8943 250.191 12.8943C249.924 12.8943 249.657 12.9121 249.39 12.9477C249.123 12.9655 248.821 12.9922 248.483 13.0278V18.2603Z" fill="#2A72F8"/>
<defs>
<linearGradient id="paint0_linear_3_83" x1="4.06841" y1="20.1387" x2="1.03564" y2="11.3864" gradientUnits="userSpaceOnUse">
<stop offset="0.1444" stop-color="#F2E913"/>
<stop offset="0.3037" stop-color="#E7E518"/>
<stop offset="0.5823" stop-color="#CADB26"/>
<stop offset="0.891" stop-color="#A3CD39"/>
</linearGradient>
<linearGradient id="paint1_linear_3_83" x1="4.29804" y1="4.00567" x2="12.0898" y2="1.04117" gradientUnits="userSpaceOnUse">
<stop offset="0.0592" stop-color="#0FA8E0"/>
<stop offset="0.5385" stop-color="#0099F9"/>
<stop offset="0.9234" stop-color="#0291EB"/>
</linearGradient>
<linearGradient id="paint2_linear_3_83" x1="11.1982" y1="22.3278" x2="20.0072" y2="20.3401" gradientUnits="userSpaceOnUse">
<stop offset="0.1226" stop-color="#A3CD39"/>
<stop offset="0.2846" stop-color="#86C339"/>
<stop offset="0.8693" stop-color="#21A038"/>
</linearGradient>
<linearGradient id="paint3_linear_3_83" x1="11.4012" y1="0.929323" x2="18.9336" y2="3.24964" gradientUnits="userSpaceOnUse">
<stop offset="0.0566" stop-color="#0291EB"/>
<stop offset="0.79" stop-color="#0C8ACB"/>
</linearGradient>
<linearGradient id="paint4_linear_3_83" x1="3.7907" y1="19.7139" x2="11.9907" y2="22.7727" gradientUnits="userSpaceOnUse">
<stop offset="0.1324" stop-color="#F2E913"/>
<stop offset="0.2977" stop-color="#EBE716"/>
<stop offset="0.5306" stop-color="#D9E01F"/>
<stop offset="0.8023" stop-color="#BBD62D"/>
<stop offset="0.9829" stop-color="#A3CD39"/>
</linearGradient>
<linearGradient id="paint5_linear_3_83" x1="1.03021" y1="12.3361" x2="4.32972" y2="3.76675" gradientUnits="userSpaceOnUse">
<stop offset="0.0698" stop-color="#A3CD39"/>
<stop offset="0.2599" stop-color="#81C55F"/>
<stop offset="0.9216" stop-color="#0FA8E0"/>
</linearGradient>
</defs>
</svg>
