<svg width="247" height="40" viewBox="0 0 247 40" fill="none" xmlns="http://www.w3.org/2000/svg">
<path d="M0 13.1558C0 18.4833 3.52035 21.6516 8.80088 21.6516C14.1518 21.6516 17.6018 18.1547 17.6018 13.2028C17.6018 7.89877 14.0814 4.73045 8.80088 4.70699C3.44994 4.70699 0 8.20387 0 13.1558ZM3.09791 13.1793C3.09791 9.75282 5.25706 7.42939 8.77741 7.40592C12.5325 7.42939 14.5038 9.96404 14.5038 13.1793C14.5038 16.6292 12.3212 18.9527 8.82435 18.9527C5.0693 18.9292 3.09791 16.3946 3.09791 13.1793Z" fill="#2A72F8"/>
<path d="M32.5997 21.3935H35.5334V4.96515H32.5997V11.5834H23.6111V4.96515H20.6775V21.3935H23.6111V14.2823H32.5997V21.3935Z" fill="#2A72F8"/>
<path d="M50.7279 21.3935H53.6615V4.96515H41.7862L41.6219 8.36815C41.1525 17.8262 39.8148 18.5302 38.6883 18.5302C38.4771 18.5302 38.2189 18.5068 37.9842 18.4129V21.37C38.3363 21.5343 38.7822 21.6047 39.2985 21.6047C41.6923 21.6047 43.7811 20.3843 44.4382 8.43856L44.4851 7.66408H50.7279V21.3935Z" fill="#2A72F8"/>
<path d="M65.9701 4.96515H62.6375L55.9723 21.3935H58.9529L60.5018 17.4976H68.0354L69.6078 21.3935H72.7292L65.9701 4.96515ZM61.5579 14.7987L64.2569 8.06306L66.9558 14.7987H61.5579Z" fill="#2A72F8"/>
<path d="M77.9749 4.96515H75.0412V21.3935H78.1861L87.1982 8.93141V21.3935H90.1318V4.96515H86.94L77.9749 17.2394V4.96515ZM84.687 0.740723C84.5696 1.56214 84.0533 2.10193 82.6687 2.10193C81.3309 2.10193 80.6973 1.58561 80.5564 0.740723H77.7871C78.0687 3.51007 80.0871 4.1672 82.7156 4.1672C85.3911 4.1672 87.1512 3.04069 87.4094 0.740723H84.687Z" fill="#2A72F8"/>
<path d="M106.33 21.3935H109.264V4.96515H106.33V11.5834H97.3414V4.96515H94.4077V21.3935H97.3414V14.2823H106.33V21.3935Z" fill="#2A72F8"/>
<path d="M113.263 15.7374H119.553V13.2028H113.263V15.7374Z" fill="#2A72F8"/>
<path d="M135.248 21.3935H138.182V4.96515H123.561V21.3935H126.494V7.66408H135.248V21.3935Z" fill="#2A72F8"/>
<path d="M141.272 13.1558C141.272 18.4833 144.793 21.6516 150.073 21.6516C155.424 21.6516 158.874 18.1547 158.874 13.2028C158.874 7.89877 155.354 4.73045 150.073 4.70699C144.722 4.70699 141.272 8.20387 141.272 13.1558ZM144.37 13.1793C144.37 9.75282 146.529 7.42939 150.05 7.40592C153.805 7.42939 155.776 9.96404 155.776 13.1793C155.776 16.6292 153.594 18.9527 150.097 18.9527C146.342 18.9292 144.37 16.3946 144.37 13.1793Z" fill="#2A72F8"/>
<path d="M159.566 18.6945V24.4444H162.312V21.3935H173.788V24.4444H176.534V18.6945H174.633V4.96515H163.086L163.039 8.36815C162.969 13.3671 162.288 16.465 161.35 18.6945H159.566ZM165.762 8.43856V7.66408H171.699V18.6945H164.213C165.152 16.1129 165.668 12.7334 165.762 8.43856Z" fill="#2A72F8"/>
<path d="M190.941 21.3935H193.875V4.96515H179.254V21.3935H182.187V7.66408H190.941V21.3935Z" fill="#2A72F8"/>
<path d="M201.073 4.96515H198.139V21.3935H201.284L210.296 8.93141V21.3935H213.229V4.96515H210.038L201.073 17.2394V4.96515Z" fill="#2A72F8"/>
<path d="M231.071 15.9721C230.108 17.6384 228.09 18.9527 225.227 18.9527C221.448 18.8823 219.5 16.3711 219.5 13.1793C219.5 9.72935 221.706 7.40592 225.297 7.40592C227.761 7.40592 229.756 8.81406 230.742 10.2691V6.18553C229.78 5.50493 227.879 4.70699 225.297 4.70699C219.852 4.70699 216.332 8.20387 216.332 13.1558C216.332 18.4598 219.899 21.6281 225.25 21.6516C228.09 21.6516 230.249 20.572 231.071 19.5863V15.9721Z" fill="#2A72F8"/>
<path d="M237.032 4.96515H234.099V21.3935H239.285C244.073 21.3935 246.655 19.469 246.655 15.6435C246.655 11.9354 244.472 10.0814 239.262 10.0814H237.032V4.96515ZM239.52 12.7803C242.383 12.7803 243.627 13.5548 243.627 15.5731C243.627 17.8027 242.219 18.6945 239.473 18.6945H237.032V12.7803H239.52Z" fill="#2A72F8"/>
<path d="M236.925 30.469L238.614 29.2222H232.961V36.7101H238.614V35.4632H234.574V33.5465H238.02V32.2997H234.574V30.469H236.925Z" fill="#2A9E3E"/>
<path d="M228.695 32.1412H226.732V30.469H229.866L231.555 29.2222H225.119V36.7101H228.487C230.376 36.7101 231.46 35.8528 231.46 34.3577C231.46 32.9284 230.477 32.1412 228.695 32.1412ZM228.414 35.4632H226.732V33.3876H228.414C229.438 33.3876 229.915 33.7347 229.915 34.4252C229.915 35.131 229.41 35.4632 228.414 35.4632Z" fill="#2A9E3E"/>
<path d="M243.193 29.2222H240.115V36.7101H241.728V34.5891H243.193C245.157 34.5891 246.377 33.5547 246.377 31.9019C246.377 30.2491 245.157 29.2222 243.193 29.2222ZM243.158 33.3423H241.728V30.469H243.158C244.192 30.469 244.761 30.9792 244.761 31.9056C244.761 32.8321 244.192 33.3423 243.158 33.3423Z" fill="#2A9E3E"/>
<path d="M222.35 35.0649C221.936 35.2934 221.454 35.4145 220.957 35.4145C219.503 35.4145 218.448 34.3748 218.448 32.9423C218.448 31.5097 219.503 30.47 220.957 30.47C221.507 30.47 222.001 30.6248 222.425 30.93L223.581 30.076L223.505 30.0088C222.83 29.4143 221.927 29.1001 220.895 29.1001C219.775 29.1001 218.759 29.4781 218.034 30.1649C217.304 30.8555 216.903 31.8272 216.903 32.9011C216.903 33.9799 217.303 34.9661 218.03 35.6776C218.759 36.3916 219.773 36.7848 220.885 36.7848C222.048 36.7848 223.063 36.3788 223.751 35.6397C223.22 35.2477 222.707 34.8693 222.707 34.8693L222.35 35.0649Z" fill="#2A9E3E"/>
<path d="M212.001 29.1138C212.298 29.4979 212.551 29.9175 212.754 30.3654L207.026 34.5933L204.633 33.0908V31.2833L207.026 32.7858L212.001 29.1138Z" fill="#2A9E3E"/>
<path d="M202.193 32.963C202.193 32.8818 202.195 32.8014 202.199 32.7209L200.749 32.6484C200.744 32.7526 200.741 32.8576 200.741 32.963C200.741 34.7018 201.444 36.2759 202.582 37.4151L203.61 36.3851C202.735 35.5084 202.193 34.298 202.193 32.963Z" fill="url(#paint0_linear_3_142)"/>
<path d="M207.026 28.1213C207.107 28.1213 207.187 28.1242 207.268 28.128L207.34 26.6747C207.236 26.6697 207.131 26.6667 207.026 26.6667C205.29 26.6667 203.718 27.3713 202.581 28.5109L203.609 29.5409C204.485 28.6642 205.693 28.1213 207.026 28.1213Z" fill="url(#paint1_linear_3_142)"/>
<path d="M207.026 37.805C206.945 37.805 206.865 37.8029 206.784 37.7988L206.712 39.2512C206.816 39.2563 206.921 39.2592 207.026 39.2592C208.762 39.2592 210.334 38.5546 211.471 37.415L210.443 36.385C209.567 37.2617 208.359 37.805 207.026 37.805Z" fill="url(#paint2_linear_3_142)"/>
<path d="M209.752 28.9663L210.974 28.0638C209.895 27.1905 208.522 26.6667 207.027 26.6667V28.1213C208.037 28.1213 208.976 28.4334 209.752 28.9663Z" fill="url(#paint3_linear_3_142)"/>
<path d="M213.312 32.9631C213.312 32.5781 213.277 32.201 213.211 31.8352L211.858 32.8339C211.859 32.8768 211.86 32.9198 211.86 32.9631C211.86 34.3847 211.245 35.6651 210.267 36.5518L211.243 37.6318C212.514 36.4801 213.312 34.8152 213.312 32.9631Z" fill="#2A9E3E"/>
<path d="M207.027 37.8052C205.607 37.8052 204.329 37.1893 203.444 36.2102L202.366 37.1872C203.516 38.4597 205.178 39.2593 207.027 39.2593V37.8052Z" fill="url(#paint4_linear_3_142)"/>
<path d="M203.785 29.3742L202.809 28.2942C201.539 29.4463 200.741 31.1113 200.741 32.9629H202.193C202.193 31.5412 202.807 30.2608 203.785 29.3742Z" fill="url(#paint5_linear_3_142)"/>
<defs>
<linearGradient id="paint0_linear_3_142" x1="202.875" y1="37.2332" x2="201.284" y2="32.641" gradientUnits="userSpaceOnUse">
<stop offset="0.1444" stop-color="#F2E913"/>
<stop offset="0.3037" stop-color="#E7E518"/>
<stop offset="0.5823" stop-color="#CADB26"/>
<stop offset="0.891" stop-color="#A3CD39"/>
</linearGradient>
<linearGradient id="paint1_linear_3_142" x1="202.996" y1="28.7685" x2="207.084" y2="27.213" gradientUnits="userSpaceOnUse">
<stop offset="0.0592" stop-color="#0FA8E0"/>
<stop offset="0.5385" stop-color="#0099F9"/>
<stop offset="0.9234" stop-color="#0291EB"/>
</linearGradient>
<linearGradient id="paint2_linear_3_142" x1="206.616" y1="38.3819" x2="211.238" y2="37.3389" gradientUnits="userSpaceOnUse">
<stop offset="0.1226" stop-color="#A3CD39"/>
<stop offset="0.2846" stop-color="#86C339"/>
<stop offset="0.8693" stop-color="#21A038"/>
</linearGradient>
<linearGradient id="paint3_linear_3_142" x1="206.723" y1="27.1544" x2="210.675" y2="28.3718" gradientUnits="userSpaceOnUse">
<stop offset="0.0566" stop-color="#0291EB"/>
<stop offset="0.79" stop-color="#0C8ACB"/>
</linearGradient>
<linearGradient id="paint4_linear_3_142" x1="202.73" y1="37.0105" x2="207.032" y2="38.6154" gradientUnits="userSpaceOnUse">
<stop offset="0.1324" stop-color="#F2E913"/>
<stop offset="0.2977" stop-color="#EBE716"/>
<stop offset="0.5306" stop-color="#D9E01F"/>
<stop offset="0.8023" stop-color="#BBD62D"/>
<stop offset="0.9829" stop-color="#A3CD39"/>
</linearGradient>
<linearGradient id="paint5_linear_3_142" x1="201.281" y1="33.1393" x2="203.012" y2="28.643" gradientUnits="userSpaceOnUse">
<stop offset="0.0698" stop-color="#A3CD39"/>
<stop offset="0.2599" stop-color="#81C55F"/>
<stop offset="0.9216" stop-color="#0FA8E0"/>
</linearGradient>
</defs>
</svg>
