<svg width="21" height="22" viewBox="0 0 21 22" fill="none" xmlns="http://www.w3.org/2000/svg">
<path fill-rule="evenodd" clip-rule="evenodd" d="M12.5364 14.284L12.794 14.412L12.9449 14.2574L14.0453 13.1505C15.0665 12.1293 16.4909 12.0868 17.5436 13.0221L17.6787 13.1497L19.5064 14.9671L20.1845 15.6545C21.2268 16.6968 21.2702 18.1216 20.3148 19.1957L20.1845 19.3338L19.2839 20.2202L19.0743 20.4361C19.042 20.4701 19.0109 20.5034 18.9804 20.5365L18.8017 20.736C17.9703 21.6514 16.9021 22.0365 15.6176 21.9775C14.2407 21.9101 12.9085 21.4985 11.4168 20.7663C8.61367 19.3982 6.19274 17.5042 4.19312 15.1184C2.60389 13.2639 1.41073 11.3115 0.638352 9.21705C0.161932 7.92685 -0.0567146 6.83441 0.0125507 5.6917C0.0730613 4.76203 0.444936 3.96381 1.12509 3.31217L1.28246 3.16078L2.56322 1.89242L2.81211 1.65535C3.86607 0.71878 5.29133 0.761331 6.31255 1.78254L7.57555 3.04554L8.58426 4.04654L8.92833 4.40599C9.85975 5.44937 9.8603 6.77983 8.94155 7.81161L8.69044 8.07516L8.19447 8.57556L7.55491 9.19761C7.82168 9.73072 8.16952 10.2495 8.62559 10.8103C9.73111 12.1756 10.9438 13.2916 12.2605 14.1319L12.4355 14.2311C12.467 14.248 12.5003 14.2655 12.5364 14.284ZM4.89833 3.19676C4.61394 2.91237 4.37551 2.91237 4.07619 3.21178L3.84024 3.44063L2.84825 4.42692L2.50725 4.75773C2.18976 5.06191 2.03634 5.39122 2.00861 5.81714C1.9589 6.63732 2.12594 7.47191 2.51467 8.52465C3.20054 10.3845 4.27011 12.1347 5.71884 13.8253C7.54549 16.0047 9.7431 17.724 12.296 18.9699C13.5653 19.5929 14.6486 19.9277 15.7123 19.9797C16.4297 20.0127 16.9162 19.8373 17.3071 19.4072C17.5093 19.1749 17.7015 18.9722 17.9824 18.6931L18.7703 17.9195C19.0768 17.6131 19.0768 17.3752 18.7615 17.0598L18.2664 16.5566L16.2648 14.5642C15.9814 14.2804 15.7439 14.2804 15.4582 14.5661L14.5159 15.512L13.9125 16.1328C13.4662 16.5791 12.8972 16.6929 12.3212 16.4066L11.687 16.0958L11.4416 15.967L11.2087 15.8328C9.67746 14.8561 8.30662 13.5945 7.0726 12.0706C6.39639 11.2391 5.89809 10.4513 5.51877 9.55053C5.31433 9.00844 5.42587 8.48287 5.84298 8.06898L6.57327 7.3642L7.0283 6.91379C7.0743 6.8674 7.11944 6.82157 7.16435 6.77566L7.45601 6.47211C7.68372 6.21255 7.68259 6.01694 7.44241 5.7451L7.15725 5.44788L4.89833 3.19676Z" fill="#262626" fill-opacity="0.7"/>
</svg>
