<svg width="21" height="21" viewBox="0 0 21 21" fill="none" xmlns="http://www.w3.org/2000/svg">
<path fill-rule="evenodd" clip-rule="evenodd" d="M12.5364 13.3006L12.794 13.4286L12.9449 13.274L14.0453 12.1671C15.0665 11.1459 16.4909 11.1034 17.5436 12.0387L17.6787 12.1663L19.5064 13.9837L20.1845 14.6711C21.2268 15.7134 21.2702 17.1382 20.3148 18.2123L20.1845 18.3504L19.2839 19.2368L19.0743 19.4527C19.042 19.4867 19.0109 19.52 18.9804 19.5531L18.8017 19.7526C17.9703 20.668 16.9021 21.0531 15.6176 20.9941C14.2407 20.9267 12.9085 20.5151 11.4168 19.7829C8.61367 18.4148 6.19274 16.5208 4.19312 14.135C2.60389 12.2805 1.41073 10.3281 0.638352 8.23365C0.161932 6.94345 -0.0567146 5.85101 0.0125507 4.7083C0.0730613 3.77864 0.444936 2.98042 1.12509 2.32877L1.28246 2.17739L2.56322 0.909025L2.81211 0.671953C3.86607 -0.264618 5.29133 -0.222068 6.31255 0.799143L7.57555 2.06214L8.58426 3.06314L8.92833 3.42259C9.85975 4.46597 9.8603 5.79644 8.94155 6.82821L8.69044 7.09176L8.19447 7.59217L7.55491 8.21421C7.82168 8.74733 8.16952 9.26611 8.62559 9.82694C9.73111 11.1922 10.9438 12.3082 12.2605 13.1485L12.4355 13.2477C12.467 13.2646 12.5003 13.2821 12.5364 13.3006ZM4.89833 2.21336C4.61394 1.92897 4.37551 1.92897 4.07619 2.22838L3.84024 2.45723L2.84825 3.44353L2.50725 3.77433C2.18976 4.07851 2.03634 4.40783 2.00861 4.83374C1.9589 5.65392 2.12594 6.48851 2.51467 7.54125C3.20054 9.40109 4.27011 11.1513 5.71884 12.8419C7.54549 15.0213 9.7431 16.7406 12.296 17.9866C13.5653 18.6095 14.6486 18.9443 15.7123 18.9963C16.4297 19.0293 16.9162 18.8539 17.3071 18.4238C17.5093 18.1915 17.7015 17.9888 17.9824 17.7097L18.7703 16.9361C19.0768 16.6297 19.0768 16.3918 18.7615 16.0764L18.2664 15.5732L16.2648 13.5808C15.9814 13.297 15.7439 13.297 15.4582 13.5827L14.5159 14.5286L13.9125 15.1494C13.4662 15.5957 12.8972 15.7095 12.3212 15.4232L11.687 15.1124L11.4416 14.9836L11.2087 14.8494C9.67746 13.8727 8.30662 12.6111 7.0726 11.0872C6.39639 10.2557 5.89809 9.46791 5.51877 8.56713C5.31433 8.02504 5.42587 7.49947 5.84298 7.08558L6.57327 6.38081L7.0283 5.93039C7.0743 5.884 7.11944 5.83817 7.16435 5.79226L7.45601 5.48871C7.68372 5.22915 7.68259 5.03355 7.44241 4.7617L7.15725 4.46448L4.89833 2.21336Z" fill="#262626" fill-opacity="0.7"/>
</svg>
