<svg width="21" height="21" viewBox="0 0 21 21" fill="none" xmlns="http://www.w3.org/2000/svg">
<path fill-rule="evenodd" clip-rule="evenodd" d="M12.5362 13.3006L12.7938 13.4286L12.9446 13.274L14.0451 12.1671C15.0663 11.1459 16.4906 11.1034 17.5433 12.0387L17.6784 12.1663L19.5061 13.9837L20.1843 14.6711C21.2265 15.7134 21.2699 17.1382 20.3146 18.2123L20.1843 18.3504L19.2837 19.2368L19.074 19.4527C19.0418 19.4867 19.0106 19.52 18.9802 19.5531L18.8015 19.7526C17.9701 20.668 16.9019 21.0531 15.6174 20.9941C14.2404 20.9267 12.9082 20.5151 11.4166 19.7829C8.61343 18.4148 6.1925 16.5208 4.19287 14.135C2.60365 12.2805 1.41048 10.3281 0.638108 8.23365C0.161688 6.94345 -0.0569587 5.85101 0.0123066 4.7083C0.0728172 3.77864 0.444692 2.98042 1.12485 2.32877L1.28222 2.17739L2.56297 0.909025L2.81187 0.671953C3.86582 -0.264618 5.29109 -0.222068 6.3123 0.799143L7.5753 2.06214L8.58401 3.06314L8.92809 3.42259C9.85951 4.46597 9.86006 5.79644 8.94131 6.82821L8.69019 7.09176L8.19422 7.59217L7.55466 8.21421C7.82144 8.74733 8.16927 9.26611 8.62535 9.82694C9.73087 11.1922 10.9435 12.3082 12.2603 13.1485L12.4352 13.2477C12.4667 13.2646 12.5001 13.2821 12.5362 13.3006ZM4.89809 2.21336C4.6137 1.92897 4.37527 1.92897 4.07595 2.22838L3.83999 2.45723L2.84801 3.44353L2.50701 3.77433C2.18952 4.07851 2.0361 4.40783 2.00836 4.83374C1.95866 5.65392 2.12569 6.48851 2.51443 7.54125C3.2003 9.40109 4.26987 11.1513 5.7186 12.8419C7.54525 15.0213 9.74285 16.7406 12.2958 17.9866C13.5651 18.6095 14.6484 18.9443 15.7121 18.9963C16.4294 19.0293 16.9159 18.8539 17.3068 18.4238C17.509 18.1915 17.7013 17.9888 17.9821 17.7097L18.7701 16.9361C19.0766 16.6297 19.0766 16.3918 18.7613 16.0764L18.2662 15.5732L16.2646 13.5808C15.9811 13.297 15.7437 13.297 15.4579 13.5827L14.5156 14.5286L13.9123 15.1494C13.4659 15.5957 12.8969 15.7095 12.321 15.4232L11.6867 15.1124L11.4413 14.9836L11.2084 14.8494C9.67721 13.8727 8.30638 12.6111 7.07235 11.0872C6.39615 10.2557 5.89785 9.46791 5.51853 8.56713C5.31408 8.02504 5.42563 7.49947 5.84273 7.08558L6.57303 6.38081L7.02805 5.93039C7.07406 5.884 7.11919 5.83817 7.1641 5.79226L7.45576 5.48871C7.68347 5.22915 7.68235 5.03355 7.44217 4.7617L7.157 4.46448L4.89809 2.21336Z" fill="#262626" fill-opacity="0.7"/>
</svg>
