<svg width="21" height="22" viewBox="0 0 21 22" fill="none" xmlns="http://www.w3.org/2000/svg">
<path fill-rule="evenodd" clip-rule="evenodd" d="M12.5364 14.2838L12.794 14.4117L12.9449 14.2571L14.0453 13.1503C15.0665 12.1291 16.4909 12.0865 17.5436 13.0219L17.6787 13.1494L19.5064 14.9669L20.1845 15.6543C21.2268 16.6965 21.2702 18.1214 20.3148 19.1955L20.1845 19.3335L19.2839 20.22L19.0743 20.4359C19.042 20.4699 19.0109 20.5032 18.9804 20.5363L18.8017 20.7357C17.9703 21.6511 16.9021 22.0362 15.6176 21.9772C14.2407 21.9099 12.9085 21.4982 11.4168 20.7661C8.61367 19.398 6.19274 17.504 4.19312 15.1181C2.60389 13.2637 1.41073 11.3112 0.638352 9.2168C0.161932 7.92661 -0.0567146 6.83417 0.0125507 5.69145C0.0730613 4.76179 0.444936 3.96357 1.12509 3.31192L1.28246 3.16054L2.56322 1.89218L2.81211 1.65511C3.86607 0.718536 5.29133 0.761086 6.31255 1.7823L7.57555 3.0453L8.58426 4.04629L8.92833 4.40574C9.85975 5.44912 9.8603 6.77959 8.94155 7.81137L8.69044 8.07491L8.19447 8.57532L7.55491 9.19736C7.82168 9.73048 8.16952 10.2493 8.62559 10.8101C9.73111 12.1753 10.9438 13.2914 12.2605 14.1317L12.4355 14.2309C12.467 14.2478 12.5003 14.2653 12.5364 14.2838ZM4.89833 3.19651C4.61394 2.91212 4.37551 2.91212 4.07619 3.21154L3.84024 3.44039L2.84825 4.42668L2.50725 4.75748C2.18976 5.06166 2.03634 5.39098 2.00861 5.8169C1.9589 6.63708 2.12594 7.47167 2.51467 8.5244C3.20054 10.3842 4.27011 12.1344 5.71884 13.825C7.54549 16.0044 9.7431 17.7237 12.296 18.9697C13.5653 19.5927 14.6486 19.9274 15.7123 19.9795C16.4297 20.0124 16.9162 19.837 17.3071 19.4069C17.5093 19.1746 17.7015 18.972 17.9824 18.6929L18.7703 17.9193C19.0768 17.6128 19.0768 17.375 18.7615 17.0596L18.2664 16.5564L16.2648 14.564C15.9814 14.2801 15.7439 14.2801 15.4582 14.5659L14.5159 15.5117L13.9125 16.1325C13.4662 16.5789 12.8972 16.6927 12.3212 16.4063L11.687 16.0956L11.4416 15.9667L11.2087 15.8325C9.67746 14.8559 8.30662 13.5943 7.0726 12.0703C6.39639 11.2388 5.89809 10.4511 5.51877 9.55028C5.31433 9.00819 5.42587 8.48262 5.84298 8.06874L6.57327 7.36396L7.0283 6.91355C7.0743 6.86715 7.11944 6.82133 7.16435 6.77542L7.45601 6.47186C7.68372 6.2123 7.68259 6.0167 7.44241 5.74486L7.15725 5.44763L4.89833 3.19651Z" fill="#262626" fill-opacity="0.7"/>
</svg>
