<svg width="60" height="49" viewBox="0 0 60 49" fill="none" xmlns="http://www.w3.org/2000/svg">
<g filter="url(#filter0_i_6_2200)">
<path fill-rule="evenodd" clip-rule="evenodd" d="M24.6189 5.8562C24.1946 7.95752 22.847 10.2992 20.5587 12.2314C20.1278 12.5952 19.4885 12.535 19.1307 12.097C18.7729 11.659 18.8321 11.009 19.2629 10.6452C21.248 8.9691 22.3132 7.02167 22.6323 5.44153C22.9653 3.79211 22.472 2.89516 21.8922 2.61106C21.2327 2.28794 19.7297 2.32878 17.2098 4.23148C14.7567 6.08366 11.605 9.51938 7.86263 15.2488C4.80296 19.933 3.40995 23.1699 3.07265 25.2564C2.90549 26.2904 3.01527 26.9356 3.20287 27.3208C3.37331 27.6708 3.65774 27.9113 4.12576 28.0464C5.17171 28.3482 6.94955 28.0556 9.1572 27.0721C11.3068 26.1145 13.6659 24.5899 15.7698 22.7361C19.8344 19.1546 24.6538 15.43 27.6919 13.5713C28.4495 13.1077 29.1366 12.7351 29.6938 12.5137C29.967 12.4052 30.2641 12.3103 30.552 12.2792C30.7949 12.2529 31.3163 12.2409 31.7187 12.6541C32.1494 13.0964 32.0999 13.6588 32.0408 13.939C31.9753 14.249 31.8317 14.5642 31.668 14.8611C31.3333 15.4684 30.7661 16.2602 29.9642 17.2489C28.6901 18.8199 27.3102 20.6067 26.1249 22.2699C25.0515 23.7761 24.1705 25.1358 23.6622 26.1291C23.798 26.0506 23.9475 25.9604 24.1117 25.857C24.8983 25.3615 25.933 24.6207 27.2593 23.5821C28.9495 22.2585 31.1428 20.8994 32.7055 20.4908C33.1033 20.3867 33.5513 20.3186 33.9798 20.3857C34.4427 20.4581 34.9488 20.7072 35.2296 21.2662C35.4791 21.7629 35.4494 22.3143 35.3486 22.7808C35.2435 23.2669 35.0276 23.8163 34.7204 24.4266C34.3446 25.1734 34.1515 25.7218 34.0732 26.1055C34.0314 26.3105 34.0282 26.439 34.0329 26.5113C34.141 26.5216 34.3318 26.5117 34.6168 26.4376C35.2737 26.2669 36.1286 25.836 36.9368 25.2506C37.749 24.6623 38.4068 23.9958 38.7427 23.4266C38.9646 23.0507 39.6596 22.1268 40.5919 20.9464C41.5489 19.7348 42.8122 18.1831 44.2238 16.5102C47.0397 13.1731 50.4766 9.31672 53.2584 6.7183C54.6276 5.43936 55.9249 4.3812 56.9492 3.88098C57.4212 3.6505 58.0896 3.40718 58.7394 3.61319C59.5678 3.87586 59.8428 4.64641 59.8911 5.26964C59.9385 5.88257 59.8123 6.64122 59.5748 7.5099C59.3315 8.3998 58.9461 9.49245 58.4082 10.8073C57.3318 13.4381 55.615 17.0301 53.1096 21.7923C53.0665 21.8741 53.0235 21.9558 52.9804 22.0372C54.8899 21.3329 56.7968 20.7413 58.6487 20.302C59.1941 20.1726 59.7394 20.5173 59.8666 21.0717C59.9939 21.6262 59.6549 22.1806 59.1096 22.31C56.624 22.8996 54.0266 23.7789 51.4599 24.8419C46.9561 32.9341 42.7382 38.6149 39.1027 42.3818C37.0649 44.4932 35.1949 46.0191 33.5442 47.0296C31.9089 48.0307 30.4181 48.5692 29.1553 48.5988C27.8445 48.6294 26.7128 48.0956 26.1305 46.9416C25.5922 45.875 25.6474 44.5096 26.0756 43.0977C26.9399 40.2471 29.508 36.5571 34.0396 32.7366C37.8873 29.4927 43.8308 25.8571 50.0361 23.2093C50.4617 22.4355 50.8902 21.6391 51.3212 20.8198C53.8136 16.0825 55.4957 12.5572 56.5356 10.0154C57.0558 8.74399 57.4078 7.73649 57.6208 6.95768C57.7735 6.39926 57.8434 5.99743 57.8652 5.72144C57.8529 5.72721 57.8403 5.73325 57.8274 5.73959C57.1011 6.09427 55.9972 6.96014 54.6305 8.23667C51.9407 10.7492 48.5675 14.5294 45.7631 17.8527C44.3646 19.5101 43.1154 21.0446 42.1733 22.2374C41.2065 23.4614 40.6159 24.2602 40.4818 24.4875C39.9485 25.391 39.0489 26.2525 38.1136 26.9299C37.1744 27.6102 36.0917 28.1826 35.1189 28.4353C34.6373 28.5605 34.1038 28.6282 33.5992 28.5288C33.0588 28.4224 32.5245 28.1115 32.2262 27.5024C31.9538 26.946 31.9614 26.3042 32.0874 25.6867C32.2163 25.055 32.494 24.3239 32.915 23.4874C33.1418 23.0368 33.2718 22.6993 33.3383 22.4573C33.2994 22.4655 33.2569 22.4756 33.2106 22.4877C32.0626 22.7879 30.1384 23.9301 28.4969 25.2156C27.1433 26.2756 26.0482 27.0628 25.1797 27.6098C24.3429 28.1369 23.6182 28.5057 23.033 28.6229C22.7446 28.6806 22.3161 28.7141 21.9102 28.4889C21.4369 28.2265 21.2564 27.7684 21.2172 27.3983C21.1817 27.0632 21.2475 26.7333 21.3242 26.4665C21.4054 26.1841 21.5254 25.8841 21.6666 25.5795C22.2222 24.3806 23.279 22.7489 24.4826 21.0601C25.6983 19.3542 27.1054 17.5327 28.3995 15.9372C28.6215 15.6634 28.8187 15.4127 28.9929 15.1838C28.9101 15.2331 28.825 15.2845 28.7376 15.3379C25.841 17.1102 21.1209 20.7495 17.098 24.2942C14.856 26.2697 12.326 27.9116 9.97118 28.9606C7.67447 29.9838 5.33273 30.5381 3.57194 30.0299C2.63659 29.76 1.84586 29.1813 1.38535 28.2357C0.942009 27.3253 0.865056 26.1985 1.0714 24.9221C1.48109 22.3877 3.07596 18.8498 6.17313 14.1081C9.98141 8.27784 13.285 4.62657 16.0006 2.57616C18.6492 0.576264 21.0282 -0.101096 22.7726 0.753592C24.5967 1.6473 25.0293 3.82416 24.6189 5.8562ZM30.7668 14.3295C30.7833 14.3277 30.7807 14.3294 30.7636 14.3299C30.7648 14.3297 30.7658 14.3296 30.7668 14.3295ZM48.3188 26.239C43.2378 28.6531 38.5197 31.6381 35.3342 34.3238C30.9566 38.0144 28.7154 41.3909 28.0136 43.7052C27.6587 44.8757 27.7417 45.6174 27.9349 46.0004C28.0841 46.296 28.3875 46.5543 29.1086 46.5374C29.8776 46.5194 31.0153 46.1709 32.498 45.2632C33.9653 44.365 35.7029 42.9604 37.6551 40.9377C40.7749 37.7052 44.4041 32.9341 48.3188 26.239ZM22.6065 26.6049C22.6066 26.6047 22.6108 26.6041 22.6184 26.6038C22.6101 26.605 22.6063 26.6051 22.6065 26.6049Z" fill="#677178"/>
</g>
<defs>
<filter id="filter0_i_6_2200" x="0.962402" y="0.391304" width="58.9385" height="50.2087" filterUnits="userSpaceOnUse" color-interpolation-filters="sRGB">
<feFlood flood-opacity="0" result="BackgroundImageFix"/>
<feBlend mode="normal" in="SourceGraphic" in2="BackgroundImageFix" result="shape"/>
<feColorMatrix in="SourceAlpha" type="matrix" values="0 0 0 0 0 0 0 0 0 0 0 0 0 0 0 0 0 0 127 0" result="hardAlpha"/>
<feOffset dy="2"/>
<feGaussianBlur stdDeviation="1.5"/>
<feComposite in2="hardAlpha" operator="arithmetic" k2="-1" k3="1"/>
<feColorMatrix type="matrix" values="0 0 0 0 0 0 0 0 0 0 0 0 0 0 0 0 0 0 0.62 0"/>
<feBlend mode="normal" in2="shape" result="effect1_innerShadow_6_2200"/>
</filter>
</defs>
</svg>
