<svg width="21" height="22" viewBox="0 0 21 22" fill="none" xmlns="http://www.w3.org/2000/svg">
<path fill-rule="evenodd" clip-rule="evenodd" d="M12.5362 14.2837L12.7938 14.4117L12.9446 14.2571L14.0451 13.1502C15.0663 12.129 16.4907 12.0865 17.5433 13.0218L17.6784 13.1494L19.5061 14.9668L20.1843 15.6542C21.2265 16.6964 21.2699 18.1213 20.3146 19.1954L20.1843 19.3335L19.2837 20.2199L19.074 20.4358C19.0418 20.4698 19.0107 20.5031 18.9802 20.5362L18.8015 20.7357C17.9701 21.6511 16.9019 22.0362 15.6174 21.9771C14.2404 21.9098 12.9082 21.4981 11.4166 20.766C8.61343 19.3979 6.1925 17.5039 4.19287 15.1181C2.60365 13.2636 1.41048 11.3112 0.638108 9.21674C0.161688 7.92655 -0.0569587 6.8341 0.0123066 5.69139C0.0728172 4.76173 0.444692 3.96351 1.12485 3.31186L1.28222 3.16048L2.56297 1.89212L2.81187 1.65505C3.86582 0.718475 5.29109 0.761025 6.3123 1.78224L7.5753 3.04524L8.58401 4.04623L8.92809 4.40568C9.85951 5.44906 9.86006 6.77953 8.94131 7.81131L8.69019 8.07485L8.19422 8.57526L7.55466 9.1973C7.82144 9.73042 8.16927 10.2492 8.62535 10.81C9.73087 12.1753 10.9435 13.2913 12.2603 14.1316L12.4352 14.2308C12.4667 14.2477 12.5001 14.2652 12.5362 14.2837ZM4.89809 3.19645C4.6137 2.91206 4.37527 2.91206 4.07595 3.21148L3.83999 3.44033L2.84801 4.42662L2.50701 4.75742C2.18952 5.0616 2.0361 5.39092 2.00836 5.81684C1.95866 6.63702 2.12569 7.47161 2.51443 8.52434C3.2003 10.3842 4.26987 12.1344 5.7186 13.825C7.54525 16.0044 9.74285 17.7237 12.2958 18.9696C13.5651 19.5926 14.6484 19.9274 15.7121 19.9794C16.4294 20.0124 16.9159 19.837 17.3068 19.4069C17.509 19.1746 17.7013 18.9719 17.9821 18.6928L18.7701 17.9192C19.0766 17.6128 19.0766 17.3749 18.7613 17.0595L18.2662 16.5563L16.2646 14.5639C15.9811 14.2801 15.7437 14.2801 15.4579 14.5658L14.5156 15.5117L13.9123 16.1325C13.4659 16.5788 12.8969 16.6926 12.321 16.4063L11.6867 16.0955L11.4413 15.9667L11.2084 15.8324C9.67721 14.8558 8.30638 13.5942 7.07235 12.0703C6.39615 11.2388 5.89785 10.451 5.51853 9.55022C5.31408 9.00813 5.42563 8.48256 5.84273 8.06867L6.57303 7.3639L7.02805 6.91349C7.07406 6.86709 7.11919 6.82126 7.1641 6.77536L7.45576 6.4718C7.68347 6.21224 7.68235 6.01664 7.44217 5.7448L7.157 5.44757L4.89809 3.19645Z" fill="#262626" fill-opacity="0.7"/>
</svg>
