<svg width="32" height="32" viewBox="0 0 32 32" fill="none" xmlns="http://www.w3.org/2000/svg">
<path d="M16 5.33337C17.4008 5.33337 18.7878 5.60928 20.082 6.14533C21.3761 6.68138 22.552 7.46708 23.5425 8.45757C24.533 9.44806 25.3187 10.6239 25.8547 11.9181C26.3908 13.2122 26.6667 14.5993 26.6667 16C26.6667 17.4008 26.3908 18.7879 25.8547 20.082C25.3187 21.3761 24.533 22.552 23.5425 23.5425C22.552 24.533 21.3761 25.3187 20.082 25.8548C18.7878 26.3908 17.4008 26.6667 16 26.6667C13.171 26.6667 10.4579 25.5429 8.45753 23.5425C6.45714 21.5421 5.33333 18.829 5.33333 16C5.33333 13.1711 6.45714 10.458 8.45753 8.45757C10.4579 6.45718 13.171 5.33337 16 5.33337ZM16 20.4445C15.6464 20.4445 15.3072 20.585 15.0572 20.835C14.8071 21.0851 14.6667 21.4242 14.6667 21.7778C14.6667 22.1314 14.8071 22.4706 15.0572 22.7206C15.3072 22.9707 15.6464 23.1112 16 23.1112C16.3536 23.1112 16.6928 22.9707 16.9428 22.7206C17.1929 22.4706 17.3333 22.1314 17.3333 21.7778C17.3333 21.4242 17.1929 21.0851 16.9428 20.835C16.6928 20.585 16.3536 20.4445 16 20.4445ZM16 9.77782C15.057 9.77782 14.1526 10.1524 13.4858 10.8192C12.819 11.486 12.4444 12.3904 12.4444 13.3334C12.4444 13.5691 12.5381 13.7952 12.7048 13.9619C12.8715 14.1286 13.0976 14.2223 13.3333 14.2223C13.5691 14.2223 13.7952 14.1286 13.9619 13.9619C14.1286 13.7952 14.2222 13.5691 14.2222 13.3334C14.2222 12.8619 14.4095 12.4097 14.7429 12.0763C15.0763 11.7429 15.5285 11.5556 16 11.5556C16.4715 11.5556 16.9237 11.7429 17.2571 12.0763C17.5905 12.4097 17.7778 12.8619 17.7778 13.3334C17.7778 13.9912 17.6302 14.3645 17.1271 14.9298L16.9209 15.152L16.4516 15.632C15.488 16.64 15.1111 17.3654 15.1111 18.6667C15.1111 18.9025 15.2048 19.1285 15.3715 19.2952C15.5382 19.4619 15.7643 19.5556 16 19.5556C16.2357 19.5556 16.4618 19.4619 16.6285 19.2952C16.7952 19.1285 16.8889 18.9025 16.8889 18.6667C16.8889 18.0089 17.0364 17.6356 17.5396 17.0703L17.7458 16.848L18.2151 16.368C19.1787 15.36 19.5556 14.6347 19.5556 13.3334C19.5556 12.3904 19.181 11.486 18.5142 10.8192C17.8474 10.1524 16.943 9.77782 16 9.77782Z" fill="#262626" fill-opacity="0.7"/>
</svg>
