<svg width="21" height="21" viewBox="0 0 21 21" fill="none" xmlns="http://www.w3.org/2000/svg">
<path fill-rule="evenodd" clip-rule="evenodd" d="M12.5362 13.3006L12.7938 13.4285L12.9446 13.2739L14.0451 12.1671C15.0663 11.1459 16.4907 11.1033 17.5433 12.0387L17.6784 12.1662L19.5061 13.9837L20.1843 14.6711C21.2265 15.7133 21.2699 17.1382 20.3146 18.2123L20.1843 18.3503L19.2837 19.2368L19.074 19.4527C19.0418 19.4867 19.0107 19.52 18.9802 19.5531L18.8015 19.7525C17.9701 20.6679 16.9019 21.053 15.6174 20.994C14.2404 20.9267 12.9082 20.515 11.4166 19.7829C8.61343 18.4148 6.1925 16.5208 4.19287 14.1349C2.60365 12.2805 1.41048 10.328 0.638108 8.2336C0.161688 6.94341 -0.0569587 5.85097 0.0123066 4.70825C0.0728172 3.77859 0.444692 2.98037 1.12485 2.32872L1.28222 2.17734L2.56297 0.908979L2.81187 0.671908C3.86582 -0.264664 5.29109 -0.222114 6.3123 0.799097L7.5753 2.0621L8.58401 3.06309L8.92809 3.42254C9.85951 4.46592 9.86006 5.79639 8.94131 6.82817L8.69019 7.09171L8.19422 7.59212L7.55466 8.21416C7.82144 8.74728 8.16927 9.26606 8.62535 9.82689C9.73087 11.1921 10.9435 12.3082 12.2603 13.1485L12.4352 13.2477C12.4667 13.2646 12.5001 13.2821 12.5362 13.3006ZM4.89809 2.21331C4.6137 1.92892 4.37527 1.92892 4.07595 2.22834L3.83999 2.45719L2.84801 3.44348L2.50701 3.77428C2.18952 4.07846 2.0361 4.40778 2.00836 4.8337C1.95866 5.65388 2.12569 6.48847 2.51443 7.5412C3.2003 9.40104 4.26987 11.1512 5.7186 12.8418C7.54525 15.0212 9.74285 16.7405 12.2958 17.9865C13.5651 18.6095 14.6484 18.9443 15.7121 18.9963C16.4294 19.0292 16.9159 18.8538 17.3068 18.4237C17.509 18.1914 17.7013 17.9888 17.9821 17.7097L18.7701 16.9361C19.0766 16.6296 19.0766 16.3918 18.7613 16.0764L18.2662 15.5732L16.2646 13.5808C15.9811 13.2969 15.7437 13.2969 15.4579 13.5827L14.5156 14.5285L13.9123 15.1493C13.4659 15.5957 12.8969 15.7095 12.321 15.4231L11.6867 15.1124L11.4413 14.9835L11.2084 14.8493C9.67721 13.8727 8.30638 12.6111 7.07235 11.0871C6.39615 10.2556 5.89785 9.46786 5.51853 8.56708C5.31408 8.02499 5.42563 7.49942 5.84273 7.08554L6.57303 6.38076L7.02805 5.93035C7.07406 5.88395 7.11919 5.83812 7.1641 5.79222L7.45576 5.48866C7.68347 5.2291 7.68235 5.0335 7.44217 4.76166L7.157 4.46443L4.89809 2.21331Z" fill="#262626" fill-opacity="0.7"/>
</svg>
